<svg xmlns="http://www.w3.org/2000/svg" viewBox="0 0 1024 1024"><path fill="#08dcf1" d="m523.1 823.4-2.2 1.6-.7-26.5-.4-131.2-.6-27.9-1-1.1-2.1-.8-12.3-1-172.1-.8-11.5-.9-2.4-.7-.9-1 .2-1.2 13-21.2 6.2-10.4 13.8-24.3 8-13.5 9.5-15 13.4-22.7 8.6-15.3 16.5-28 18.2-30 7.7-13 18.1-31.7 3.4-4.9 3.4-6.2 16.1-27.1 6.3-11 7.5-11.8 1.6-1 4.2-.5 67.9-1.2 11.8-.7 3-.6 1.3-1.1-.4-2.6-2.6-4.5L544 284l-16.9-29.6-22.9-37.9-1.4-1.2-1.4-.3-2.7 1.4-3.7 4.7-4.8 7.7-11.7 19.7-12.1 21.2-9.2 16.5-4.5 6-6.6 12-9.8 16.8-25.7 42.5-13.1 23-8 13.5-16.5 26.5-13 23.1-39 65.4-13.7 23.7-8.3 15.2-.9 1.1-.9.7-.8 1.5-3.4 5.8-6.5 10.4-9.6 16.1-12.7 22.5-6.4 10.7-2.8 5-3.4 4.6-3.4 3.7-58.7-.5.2-2.6.9-3.2 2-3.8 28.3-48.4 13.9-22.9 4-7.8 4.5-6.4 5.1-9.3 20.4-34.3 19.1-31.3 11.5-20.4 4.6-7.6 49.4-83.5 10.5-17.2 4.1-7.7 3.9-5.9 9.3-16.2 11.5-18.8 12.4-20.7 9.3-16.7 5.7-9.7 2.9-5.4 11-17.1 3.5-5.7 22.4-39.4 8.9-14.4 4.2-8 4.3-6.3 3.7-6.8 9.5-16.3 6.6-10.6 3.5-4.8 1.6.4 2 2 4.4 7.3 13.4 23.7 22.5 37.3 8.9 15.3 10 18.2 5.8 9.5 6.8 10.3 8.3 13.9L600 271l6.9 12.6 13.3 21.3 18.3 31.4 24.2 40.6 9.5 17.5 1.8 1.5 9.9 17.3 4.8 7.8 49.5 83.8 12.2 20.2 10.9 19.7 1.4 3.4v2.1l-1.2 1.2-29.1.5h-27.5l-2.9-2.7-3.1-4-25.9-43.7-10.4-16.9-21.6-38-7.7-12.2-46-77.7-3.5-4-2.2-1.4-.9 1-.6 3.1-.8 15.5-.3 87.8.3 103.8.5 14.8.8 3.8 2.6.7 6.5.5 64 1 5.5.5 1.5.9.1 1.6-.5 1.6-5.3 9.6-15.6 26.5-3.2 6-2.9 3.6-2.8 1.4-4 .7-18 .3-21.9.6-4.7 1-2.1 1.7-.6 13.8-.2 31.4v44L558.8 763l-9.9 16.2-1.9 3.8-.9 1-.9.6-8.9 16.3Zm-43.5 91.4-1.6.5-5 .4-28.5.5-187.8.3-226.7-.3-5.9-1-1.5-1-.6-1.1 6.8-12.1 10.5-17.2 18.2-30.6 2.5-4.5 3.1-4.8 3.1-3.9 51.5.6 5.1.7 2 1.4-.4 2.2-2.6 4.8-3.9 7.9-.1 2.2 1 1.4 7.2.7 23.9.4 120.6.5h107.7l45.9-.6 3.4-.8.3-26-.1-21.9-.5-3.8-.9-1.5-8.4-.6-27.1-.3-303.1-.9-.8-.9 1.1-3 32.9-56.4L137 719l4.5-6.5 23.8-41.1 2.9-3.4h156.4l133.8.3 19 .5 3 .4.7.6.2 28.5-.8 21-.7.6-2.4.5-16.1.6-238.7.8-18.6.5-5.2.9-3.4 3.9-4.5 7.1-8 14.3-.7 2.5.6 1.2 7.2.7 23.8.4 118.4.7 148.2.5.6 2.4.4 79.3-.4 65.1-.5 10.5Zm479.1 1.2-220.3.6-218.6-.3-7.6-.6-3.2-1.2-.2-1.3.9-2.8 6.3-12.1 9.5-16.3 13.4-22.2L557 828l21-34.5 23.4-40.7 17.1-27.3 9.5-17 10-17 16-28 16-26.5 9.5-16.4 8.9-15 6.1-9.7 5.2-10.2 2.6-1.6 5.7-.8 28.6-.3h47.3l2.4 3.2 4.8 7.5 6.9 11.5 12.3 22.3 19.7 32 14.1 23.5 1.9 3.9 8.8 15.1 6.5 12 1.5 2.8.2 2-1.8 1.3-4.8.6-23.2.3-25.4-.3-3.8-.7-1.7-1.2-11.7-18.8-10.6-18-3.1-5.8-9.6-15.4-5.3-9.6-4.2-6.9-4.2-5.4-1.8-1.2-2.3-.8-4.3-.6-4.7.1-4.3.9-3.2 1.5-4.3 5.5-6.3 11.2-15 24.7-3.8 7.3-13 22-4.3 7-3.9 7-15.4 25.2-10.1 17.9-11.2 19.1-4.2 7.8-12 18.8-19 32.2-6.8 11.7-1.2 3.3.4 1.7 12.5.7 31.9.4 96.1.3 96.2-.3 32-.5 12.7-.6.7-.9V859l-2.7-5.8-10.9-18.4-4.4-6.9-1.6-3.6-3.7-6.2-4.1-6.2-2.9-3.4-3-.8-8.1-.4-88.8-.6-7.7-.4-2.6-.9-.8-1.7-.4-3.9-.1-20.6.3-24.7 142.7-.5 1.9 2.2 2.5 4.3 12.4 22 13 21.5 7.1 12.2 1.9 1.7 2.2 4.6 5 8.4 3.9 7.1 13.3 23.1 12.6 19.6 15.3 27.4 1.9 4.2-.2 2.1-6.1.9ZM415.8 581.9l14 .8 36.7.3 41-.3 7.5-.4 2.8-.9 2.2-1.5v-85.4l-.6-86.9-1.2-1.4h-1.7l-2.1 1.4-2.3 2.6L503 426l-9.8 17.7-22.9 37.8-11.3 20.1-29.9 50.4-4.3 8-4.9 7.4-5.1 9.2-.6 2.4.3 1.7Z"/><path fill="#0e4045" d="m121.5 921-66.8.4-17.5-.6-18.6-1.4-1.3-1.5-.2-2.6.9-3.3 5-8.9 6-9.9 3.4-4.5 1.4-3.9 5.3-7.3 10.9-19 5.1-8.5 4.6-8.7 2.3-2.8 3.1-3 19.2.3 16.5-.1 22.9-.9 3.2.6 2 1.3 1 2-.2 2.7-3.2 8-3 5.4-.3 2 1 1.1 2.2.8 9.4.9 46.4.4 79.3-.3 21-.7 1.1-.7 1.5-.3 1.3.3.6.7 17.1.7 51.1.1 68.3-.3.5-48.5H253.6l-136-.3-27.3-.3-8.1-.6.2-2.8 1.7-4.8 2.4-4.8 2.1-2.7 2.9-4.7 1.1-1.4.8-3.2 1.1-1.4 1.5-2.7 1-2.3 2.5-3.7 4.3-7.3 2.3-2.8 8.1-14.2 2.9-4 1.8-5.4 1.9-4.8 6-8.6 2-4.7 6.8-8.5 7.7-11.9 3.8-7.3 4.6-7 2.3-5.2 4.8-8.9 1.1-3.7 1.4-3.3 3.5-2.6 4.3-2.3 32.7.2 257.1.7 18.8.5 5.7.7.8 1.6.5 4.4.3 24.7-.2 29.6-37.3 1.6-52.5-.5h-41l-9.2.3-3.6.6-2.2.7-2.1-.7-8.6-1-16.6-.3-16.4.3-8.1 1-1.6.7-2.9-.7-11.7-.9-30.9-.2h-39.3l-2.4 2.6-1.7 2.3-1.1 3.6-2.6 3.5-5.1 8.8-.5 1.9 147.6.7 122.4.3 20.6.5 5.5.8.8 3.5.5 11.9.2 68.4-.2 62.1-.8 21.5-2.8 1.1-5.5.8-155.2.5Zm-98.3-2.7 76.8.4 156.3.1 154.3-.2 70.8-.6 2.6-1v-81.3l-.3-64.1-.3-13.8-.6-4.6-7.7-.6-24.4-.3-242.3-.6-18.3-.5-3-.4-.9-.6-.5-1.5.1-1.6 11-18.7 2.5-2.9 5.7-.8 19.9-.4 224.9-.6 24.7-.3 8.1-.5.7-2.8.4-6.3.4-18.6-.3-18.7-.4-6.4-.6-2.9-49.6-.9-107.7-.4-108.1.3-50.6.8-1.8 1.2-1.8 2.4-21.5 37.8-12.7 20.1-4.5 7.5-4.5 7.7-3.2 5.8-20.7 35.3-9 15.6-2.9 6.9.3 2.2 341 1 .5 49.5-2.2.5-153.3.3-130.2-.5-17.6-.6-2.5-.4-.4-.6 4.1-8 4.2-7.2.6-1.7-.1-1.3-2-1.5-4.7-.7-19.3-.3H65.2l-3.1 3.7-3.1 4.8-40.1 66.6-.8 3 .4.9 1 .7ZM523 832l-3.9 2.8-1.5.1-1.1-.8-1.1-192.5-1.6-1.2-3.1-.4-3.5.4-5.4 1.8-10.2-.9-16.7-.4-16.7.1-10.8.8-2.8-.6-15.3-.8-30.4-.3-31.7.2-33 1.6-14.7-1.2-6.1-1.5-.9-1-.3-1.8.2-2.6.9-3 3.5-5.8 4.2-5.3 1.8-4.9 1.8-2.5 5.2-8.3 3.1-6 2.7-4 1.4-4.6 1.2-3.2 7.3-8.4 1.5-2.8.4-1.7 1.1-1.7 3-5.6 1.1-1.4.4-1.6 1.9-3.9 6.3-8.2 6.3-10.3 3.4-5 2.1-4.6 11.2-19 2.1-5.8 3-5.9 3.5-5.7 4.5-5 2.3-5.3 5.4-7.5 2.7-5.1 9.6-15.6 5.8-8.7 3.3-6.7 3.5-5.7 6.1-11.8 1-1.5 1.7-1 2.7-6.7 6.7-9.9 1.8-5 6.2-8.5 3.2-5.8 3.8-5.7 7.9-14.5.4-1.1 2.1-2 .9-2.2 3-5.8 4-6.7 2.4-4.4 2-1.3 3.4-.9 13.6-.8 64.4-1.1 4.3-.6.2-.5-2.5-3.2-4.2-8-3.4-5.2-6.2-10.2-4-7.5-1.5-3.1-5.9-8.8-2.6-2.8-.9-4.4-5.6-7.6-2.9-6.5-5.1-8.2-2.8-6.7-4.4-6.2-3.7-6.4-6-8.4-2-4.4-2.4-2.9-2.7-2.6-2-1.1-1.9.6-1.9 1.7-4 6.2-3.1 5.6-3.2 3.7-1.8 3.2-2.5 5.5-3.6 6.3-2.1 2.2-.6.4-.2 1.1-2.1 5.4-3.5 5.2-5.2 9.6-8.4 13-2.8 5.1-3.4 4.6-1.5 4.4-5.1 8-2.6 3.6-1.3 3.8-4.4 6-3.3 7.3-1.4 3.7-.9 1.9-4.2 4.1-1.7 4.2-2.1 2.8-6.6 10.3-8 14-4.9 7.8-2.3 4.2-2.7 9.2-1.8 3.7-2 2.6-3.3 1.4-1.5 3.2-5 6-4.8 9.1-3.8 5.9-3 5.7-3.6 5.9-1.8 3.4-.3 1-.7.4-.7.8-.3 2-.9 3-5 6.1-1.1 2-.7 2.7-1.7 3.6-2.3 3.5-4.4 5-4.9 9.8-4 7.4-6 7.7-1.5 3.4-1.4 4-4.8 5.6-3.3 5.5-2.5 5.4-3.4 6.1-2 2.9-2.1 4.6-6 8.6-3.2 7.2-4.3 6.4-1.1 1-1.7 3.9-5.1 7.6-3.6 7-1.4 4-1.4 1.8-2.7 1.9-1.9 4.7-2 3.3-5.7 8.5-.9 2.6-.3 1.8-1.4 2.3-.3 2.1-.8 2.7-5.2 5.2-1 1.9-.8 2.2-9.5 14.1-1.9 1.7-25.5.5-38.1-.1-2.5-.4-1.3-1.1.3-2.8 1.7-4.7 2.5-4.9 2.5-3.8 2.4-2.8 3.1-8.2 4.2-5.5 1.3-3.4 2.6-3.6 2.3-4.1 3.5-4 .8-1.3.4-2 .9-2.7 5.1-7.5.4-1.1 2.2-1.6 2.4-6 3-4.5 2.1-5.2 1.6-1.4.3-1.4 1-2.5 7.6-11 7.4-12 1.9-4.6 4.2-5.9.9-2.1 1.4-2.9 1.2-1.7.9-2.4 1.3-2.7 4.3-4.5.9-1.9.5-2.2 1.5-2.8 5.2-6.9 1.3-1.9 1.4-4 5.1-7.1 3.4-7 4.7-6.9 5.3-10.7 4.9-6.2 3.5-7.9 3.8-4.6.8-3.2 2.2-2.8.4-1.5.9-2.1 4.3-5.3 2-4.9 1.8-1.9 6-9.2 1.7-5.3 1.8-2.4 4.7-7 2-4.1 1.1-3.6 1.4-.8.7-2.3 2.2-2 .9-4.5 1.3-2.7 7.3-8.4 4.8-8.6 9.5-15.5 11.3-18.8 2.6-6.2 6.4-10 2.4-5 2-2.9 5.2-8.9 5.6-7.1 2.1-3 2.1-5 2.9-4.6 3.9-7.2 5.2-8.4 1.3-1.9 1-4 2.2-3.1.4-2.1.7-2.2 4.6-3.8 6.3-11 10.4-16.9 1.3-3.9 1.4-.9.3-1 6.1-10.3 1.5-6.5 5.4-6.2 3.3-6.1 5.9-7.7 1.8-4.3 5.9-9.2 2.1-2.9 2.4-5.5 4.2-7.4.4-2.2 1.2-3.2 9.2-13.6 3.2-5.5 2.5-7.1 3.2-.7 3.1.1 1.3 1.4 3.5 6.4 2.8 6.3.3 1.1 1.6 1 4.3 6.6 2.8 5 1.4 3.9 3.6 7 11 18.5 8.5 13.8 6.8 9.1 1.6 5.9 5.1 6.5 4.3 10.4 3.4 4.7 3.7 6.6 6.8 10.7.8 2.1 1.1 2.1 6 6.4 4.6 10.4 3.3 4.8 2.8 5 5.2 9.5 3.8 8.2 2 2.3 5.1 7.1 3.1 4.9 3.4 6 3.8 7.3 4 5.8 2 3.2 1.4 4.5 1.4 2.3 5.8 8 3 7.1 2.9 3.5 15.4 26.4 2.9 4.5 3.4 3.8.6 2.1.2 1.8 2 2 4.3 8.3 5.7 9.5 6.5 11.7 4.5 6 1.4 4 5.5 8.6 7.2 12.3 3.6 7.4 2.2 2.5 4.8 6.3 1.5 3.3.8 4.2.7.6 1.5.6 1.7 1.6 1.4 2.2 1.8 4.9 2.7 3.8 6 11.9 8.1 13 6.5 9.5 1.9 5 2.5 3.6 3 5.2 3.9 8 2.1 2.8 5 7.9 1.5 2.7 4.4 9-.2 1.7-.9 1.4-2.2.6-5.8.3-24.8.3-27-.3-4.9-.5-2.4-1-2.2-2.2-2.2-3-1.6-3.3-.7-2.7-.9-1.9-4.5-5.4-5.1-10.2-6.5-11-4.5-6.7-1.5-1.9-3.3-6.7-1.8-1.7-2.9-4-4.7-8.4-4.4-8.7-2.2-6.1-1.7-1-1.1-1.5-2.5-4.9-2.3-3.2-2-4.3-4.2-5.1-3-6.9-5.1-7.5-2.8-5.2-1.3-2.8-6.5-9.5-3.8-7.5-1.4-2.1-2.1-3.8-3-4-3.9-6.6-4.3-9.6-5.3-7.5-4.5-8.9-3.9-5-2.8-4.4-.6 3.1-.1 3.9.3 101.6-.2 95.2-.5 17.7-.3-.4-.5-33.1-.1-78.6.5-91.2.5-15.8.7-3.9 2.6 2.6 4.1 6.4 6.7 11 13.2 22.5 6.8 11 21.7 36.6 21.4 36.9 10.1 17 13 21.1 16.6 28.5 1.6 2.4 30.4.3 32.6-.3 1.6-.8.7-1.2-3.5-7.8-6.9-11.3-6-10.7-6.3-10.2-31.2-53.3-10.1-16.5-24.1-40.6-5.7-9.9-6.1-11.1-8.2-13.9-3.9-5.7-6-11-15-25.1-2.9-4.3-8.7-15.2-29.4-49.3-6.5-11.6-7.6-12.3-44.4-75.1-4.3-6.9-13.4-23.7-12.4-21.2-2.1-2.5-1.6.3-2.2 2.1-5.5 8.6-9 14.8-3.7 7.1-5.8 10-20.4 34.3-6.5 11.8-5.7 9.3-10.3 18-11.1 17.9-6.3 10.5-7.1 12.5-6.6 12.2-3.5 5.8-9.9 15.5-30.4 51.5-25.9 43.5-13.3 22.9-15 25.1-10.5 18-18.5 31.3-9.9 16.2-23 39.1-6.1 9.9-13.9 23.9-6.6 10.7-3.4 6.2-9.3 15-13.8 24.3-2.5 6.1.5.9 1.1.8 31.8.6 24-.3 5.5-.4 2.2-.5 4.7-6.2 13.5-22.6 9.7-17 9-14.3 5.4-10 8.2-13.2 21.4-37.1 18.8-31.3 7.2-12.5 8.4-13.1 12.8-22.5 3.8-7 4.2-7.4 7.3-11.7 5.3-8 6.2-10.3 17.4-30.6 6.5-10.5 11.2-18.5 4.4-8 29.1-49 30.3-51.7 4.3-6.3 2.2-2 3.1 4.1 20.8 34.1 17.6 30.5 14.8 24.8 6.6 11.8 7.5 12.4 1.6 3.3.2 1.6-2 .7-6.3.4-63.8.6-13.1.7-1.9.9-1.8 2-17.3 29.6-15.6 26-29.7 50.3-18.9 31.4-7.1 12.4-6.6 10.9-16.5 29.1-15 24.2-5.7 9.8-4.3 7.8-7 10.8-9 16.2-17.8 29.6-1 3.3.3 2.2 203 1 .5 96 .7 83.7.6 10.8.5 1.5.7.3 1.1-.1 1-.8 5.9-10.9 10.2-17.5 15.8-26.5 10.2-17.7 9.5-15.7 5.6-10 2.7-3.9 1-89.2 25.2-.5 25.5-1 7.9-12.5 14.8-25.7 6-10.1 3.1-6.6-5-.9-14.2-.4-19.3-.3 39.5-.5v2.9l-.4 2.4-2.2 3.1-.8 3.2-8.6 12.9-2.1 5.2-8.7 13.5-2.2 5.3-3.4 4.4-1.3 3.1-1.7 1.5-2.1.8-4.1.5-42.9.9-.8 1.8-.4 6.4-.6 73.8-.6 5.6-1.3 2.3-3.5 4.2-.9 1.6-1.1 4.3-12.8 20.8-1.7 2.5-1.2 3.6-2.2 2.8-1.2 3.9-7 9.7-3.1 5-3.9 7.2-5.3 8.4-1.3 1.7-1.2 4.1-1.5 3-1.7 2.5-1.9 1.6-.7 2.3-1.1.8-1.3 1.6-2.1 6.6Zm86.5 88.8-55.6.7-44.4-2.1-7.5-1-.4-1.5.4-2.1 1-2 1.1-.8 8.8-14.8 2.7-2.2.2.4-1 1.4-9.8 16.4-1.2 2.3.2 1.1 1.8.7 13.2 1 76.7.4 162.5.1 176.2-.5 37.2-.4 11.5-.6.5-1.7-1.3-3.3-20-34.1-14.3-23.7-16.6-29-7.1-11.5-30.3-51-4.4-7.8-1.1-1.1-2-.8-8.4-.9-46-.4-75.8.3-10.9.4-3.3.7-.8 7.1.1 21 1.1 27.4 56.6 1.1 56 .5 16.9 29.3 5.7 9.3 3.1 5.4 1.4 3.6.3 2.4H744l-129.5-.5h131l117.8-.3 15.3-.6 2-.4.4-.7-.7-2.1-5.9-8.7-2.4-5.6-3.5-5-3.5-5.5-9.4-17.4-.6-2.7h-56.4l-48.4-.3-7.4-.5-2.2-1.1-.8-1.8-.6-4.2-.3-22.6.3-23.2.6-3.9 1-1.7 2.5-1.1 9-.5 70.3-.3 55.3.4 9.7 1 2.2.9 1.1 1.1.7 2.6 3 5.4 12 20.1 7.7 13.4 2.7 5.1 2 3.3 2.8 3.4 7.6 13.1 2.9 3.8 1.2 4.2 1.1 1.1 2.2 2.6 8.8 16.2 9.7 16.2 2.7 5.1 10 15.3 5 9.4 5 8.9 5.1 8.2 1.9 4.9.9.9-.1.9-2.6 1.9-17.7.7-49.7.5Zm.5-61-3.8-.4-1-.5.4-2.1 1.4-2.9 11-18.1 7.9-13.9 13.7-21.8 10.4-17.4 7.5-13.4 15.8-27.1L684 725l22.2-38.6 11-17.8 10.3-18.1 4.8-7.7 2.9-3.8h8.2l7 .4 1.8.5 1.2.9 1.6 2.6 2.7 4.9 35.9 61 8.2 12.9 1.7 1 4.7.5 27.4.3 26.3-.3 4.8-.4 1.3-.7-4.5-9.5-6.1-10.2-3.7-7-37.9-63.9-26-44.4-3-4.4-8.7-1-25.2-.4-32.4-.3 37.7-.3 23.3.1 4.9.7 2.3 1.3 14.6 23.4 5.6 11.5L817 632l3 4.1 3.2 6.2 1.5 1.3.7 3 1 1.1 3.7 5.3 7.9 12.8 2.6 2.6 1.1 4 9.8 17.7 1.6 1.9.6.4.3 1 3 5.2 2.9 5.6 4.6 7.8 2.6 5 2.5 5 .2 1.2-.5.9-10.6.7-22.6.4-23-.1-12-.6-1.8-1.3-1.6-4.3-1.4-1.4-.3-1.3-.8-2.2-8.2-12.5-1.9-4.3-2-3-18-29.5-2.1-5.7-.9-1-.9-.6-8-14.6-2.3-1.4-3.2-1-3.7-.4-5.4.6-4.2 1.9-3.1 2.9-1.7 4.1-3 6-3.9 6.4-1.7 5.1-1 2.1-5.1 5.8-2.4 3.7-3.6 6.3-3.7 4.9-2.6 6.9-3.4 5.7-8.2 13.2-4.1 8.7-6.1 8.2-4.8 8.4-12.6 20.5-.8 3.9-2.6 2.7-2.2 4.2-3 3.6-2.7 7-5.1 7.4-2.7 5.1-7.7 12.4-3.6 5.3-4 6.5-5.1 8.6-1.9 3.7-2.6 3.8-2.2 5.3-4.3 5.9-3.5 8.2v2.5Zm-94.6-278.4-6.8.6-6.3-.8 1.3-.5 4.7-.2h7.2l.2-82.5-.2-83.9-.9-.4-1.4 1.5-4.5 8-4.4 7.4-1.5 8-1.1 2.4-1.1 1-1.7.7-1.9 1.8-1.4 2.3-1.6 5-2.6 3.6-5.2 6.4-2.4 4.4-8.8 14.5-1.5 3.7-2.5 3.6-4.5 8.1-3.9 9.7-2.5 2.4-9.5 14.3-1.8 7-1.2 1.8-2.6 1.4-1.1 1.5-4.2 7.4-4.4 6.2-1.3 2.6-2.2 5.5-4.2 6.1-3.1 5-6.4 11.3.3 1.3 1.9 1.1-1.5.2-2-.3-.8-.8 3.8-7.6 11.3-18.7 7.6-13.3 6.4-10.2 8.5-14.7 2.4-3.7 9.2-16.6 24.8-42 22.7-39.6 1.8-1.9 1.4-.1.5 4.8.3 14.7.3 65.5-.3 70.8-.4 11.4Zm99.8 145.8-8 12.3-4.9 6.6-.2-.6 1.7-3.6 5.4-9.1 3.9-4.8.7-.4.2-1 1.2-2.8 3.7-6.3 7.3-11.7 1.7-4.6 6.5-10.1 2.1-3.9 1.5-3.2 3.9-6.4 3.1-6.9 7.7-10.4 5.6-10.5 4.6-9.9 4.9-6.2 9.5-15.3.7-2.4 1.3-3.2 12.6-19.6 6-11.7 12.6-.1-4.3.3-5.7.9-1.5 1.2-1.6 2.3-6.6 11.6-25.6 42.7-12.2 22.1-7.3 11.1-7.2 12.9-10.2 17.5Zm-92.1 155-6.6 11-.4-.1-.1-.8.3-2.6 1-2.6 4.1-5.4 3.6-4.4 2.3-5.1 4.6-7 1.9-3.9 4.2-6.8 5.4-9.8 4.8-7.9 1.6-2 2.8-7.6 4.4-6.6.4-1.2 2.2-1.6 1.4-3.8 2.5-3.7 4.3-7.3 5.1-7.7 2.7-2.7.4-1.7 2-4.9 1.7-2.5 1.5-1.3 3.5-8.2 6.6-9.6 1.1-3.9 1.1-1.5 2.5-4.6 2.5-3 3.4-2.9-10.5 17.5-13.3 23.2-17.1 27.9-9.2 15.9-9.8 17.7Z"/><path fill="none" d="M0 0h1024v1024H0Zm523 832 2.1-3.2 2.1-6.6 1.3-1.6 1.1-.8.7-2.3 1.9-1.6 1.7-2.5 1.5-3 1.2-4.1 1.3-1.7 5.3-8.4 3.9-7.2 3.1-5 7-9.7 1.2-3.9 2.2-2.8 1.2-3.6 1.7-2.5 12.8-20.8 1.1-4.3.9-1.6 3.5-4.2 1.3-2.3.6-5.6.6-73.8.4-6.4.8-1.8 42.9-.9 4.1-.5 2.1-.8 1.7-1.5 1.3-3.1 3.4-4.4 2.2-5.3 8.7-13.5 2.1-5.2 8.6-12.9.8-3.2 2.2-3.1.4-2.4V581l-39.5.5 19.3.3 13.7.4-64.3-1-12-.7.4-19.6.2-93.3-.3-101.6.1-3.9.6-3.1 2.8 4.4 3.9 5 4.5 8.9 5.3 7.5 4.3 9.6 3.9 6.6 3 4 2.1 3.8 1.4 2.1 3.8 7.5 6.5 9.5 1.3 2.8 2.8 5.2 5.1 7.5 3 6.9 4.2 5.1 2 4.3 2.3 3.2 2.5 4.9 1.1 1.5 1.7 1 2.2 6.1 4.4 8.7 4.7 8.4 2.9 4 1.8 1.7 3.3 6.7 1.5 1.9 4.5 6.7 6.5 11 5.1 10.2 4.5 5.4.9 1.9.7 2.7 1.6 3.3 2.2 3 2.2 2.2 2.4 1 4.9.5 27 .3 24.8-.3 5.8-.3 2.2-.6.9-1.4.2-1.7L763 540l-5-7.9-2.1-2.8-3.9-8-3-5.2-2.5-3.6-1.9-5-6.5-9.5-8.1-13-6-11.9-2.7-3.8-1.8-4.9-1.4-2.2-1.7-1.6-1.5-.6-.7-.6-.8-4.2-1.5-3.3-4.8-6.3-2.2-2.5-3.6-7.4-7.2-12.3-5.5-8.6-1.4-4-4.5-6-6.5-11.7-5.7-9.5-4.3-8.3-2-2-.2-1.8-.6-2.1-3.4-3.8-2.9-4.5-15.4-26.4-2.9-3.5-3-7.1-5.8-8-1.4-2.3-1.4-4.5-2-3.2-4-5.8-3.8-7.3-3.4-6-3.1-4.9-5.1-7.1-2-2.3-3.8-8.2-5.2-9.5-2.8-5-3.3-4.8-4.6-10.4-6-6.4-1.1-2.1-.8-2.1-6.8-10.7-3.7-6.6-3.4-4.7-4.3-10.4-5.1-6.5-1.6-5.9-6.8-9.1-8.5-13.8-11-18.5-3.6-7-1.4-3.9-2.8-5-4.3-6.6-1.6-1-.3-1.1-2.8-6.3-3.5-6.4-1.3-1.4-3.1-.1-3.2.7-2.5 7.1-3.2 5.5-9.2 13.6-1.2 3.2-.4 2.2-4.2 7.4-2.4 5.5-2.1 2.9-5.9 9.2-1.8 4.3-5.9 7.7-3.3 6.1-5.4 6.2-1.5 6.5-6.1 10.3-.3 1-1.4.9-1.3 3.9-10.4 16.9-6.3 11-4.6 3.8-.7 2.2-.4 2.1-2.2 3.1-1 4-1.3 1.9-5.2 8.4-3.9 7.2-2.9 4.6-2.1 5-2.1 3-5.6 7.1-5.2 8.9-2 2.9-2.4 5-6.4 10-2.6 6.2-11.3 18.8-9.5 15.5-4.8 8.6-7.3 8.4-1.3 2.7-.9 4.5-2.2 2-.7 2.3-1.4.8-1.1 3.6-2 4.1-4.7 7-1.8 2.4-1.7 5.3-6 9.2-1.8 1.9-2 4.9-4.3 5.3-.9 2.1-.4 1.5-2.2 2.8-.8 3.2-3.8 4.6-3.5 7.9-4.9 6.2-5.3 10.7-4.7 6.9-3.4 7-5.1 7.1-1.4 4-1.3 1.9-5.2 6.9-1.5 2.8-.5 2.2-.9 1.9-4.3 4.5-1.3 2.7-.9 2.4-1.2 1.7-1.4 2.9-.9 2.1-4.2 5.9-1.9 4.6-7.4 12-7.6 11-1 2.5-.3 1.4-1.6 1.4-2.1 5.2-3 4.5-2.4 6-2.2 1.6-.4 1.1-5.1 7.5-.9 2.7-.4 2-.8 1.3-3.5 4-2.3 4.1-2.6 3.6-1.3 3.4-4.2 5.5-3.1 8.2-2.4 2.8-2.5 3.8-2.5 4.9-1.7 4.7-.3 2.8 1.3 1.1 2.5.4 38.1.1 25.5-.5 1.9-1.7 9.5-14.1.8-2.2 1-1.9 5.2-5.2.8-2.7.3-2.1 1.4-2.3.3-1.8.9-2.6 5.7-8.5 2-3.3 1.9-4.7 2.7-1.9 1.4-1.8 1.4-4 3.6-7 5.1-7.6 1.7-3.9 1.1-1 4.3-6.4 3.2-7.2 6-8.6 2.1-4.6 2-2.9 3.4-6.1 2.5-5.4 3.3-5.5 4.8-5.6 1.4-4 1.5-3.4 6-7.7 4-7.4 4.9-9.8 4.4-5 2.3-3.5 1.7-3.6.7-2.7 1.1-2 5-6.1.9-3 .3-2 .7-.8.7-.4.3-1 1.8-3.4 3.6-5.9 3-5.7 3.8-5.9 4.8-9.1 5-6 1.5-3.2 3.3-1.4 2-2.6 1.8-3.7 2.7-9.2 2.3-4.2 4.9-7.8 8-14 6.6-10.3 2.1-2.8 1.7-4.2 4.2-4.1.9-1.9 1.4-3.7 3.3-7.3 4.4-6 1.3-3.8 2.6-3.6 5.1-8 1.5-4.4 3.4-4.6 2.8-5.1 8.4-13 5.2-9.6 3.5-5.2 2.1-5.4.2-1.1.6-.4 2.1-2.2 3.6-6.3 2.5-5.5 1.8-3.2 3.2-3.7 3.1-5.6 4-6.2 1.9-1.7 1.9-.6 2 1.1 2.7 2.6 2.4 2.9 2 4.4 6 8.4 3.7 6.4 4.4 6.2 2.8 6.7 5.1 8.2 2.9 6.5 5.6 7.6.9 4.4 2.6 2.8 5.9 8.8 1.5 3.1 4 7.5 6.2 10.2 3.4 5.2 4.2 8 2.5 3.2-.2.5-4.3.6-64.4 1.1-13.6.8-3.4.9-2 1.3-2.4 4.4-4 6.7-3 5.8-.9 2.2-2.1 2-.4 1.1-7.9 14.5-3.8 5.7-3.2 5.8-6.2 8.5-1.8 5-6.7 9.9-2.7 6.7-1.7 1-1 1.5-6.1 11.8-3.5 5.7-3.3 6.7-5.8 8.7-9.6 15.6-2.7 5.1-5.4 7.5-2.3 5.3-4.5 5-3.5 5.7-3 5.9-2.1 5.8-11.2 19-2.1 4.6-3.4 5-6.3 10.3-6.3 8.2-1.9 3.9-.4 1.6-1.1 1.4-3 5.6-1.1 1.7-.4 1.7-1.5 2.8-7.3 8.4-1.2 3.2-1.4 4.6-2.7 4-3.1 6-5.2 8.3-1.8 2.5-1.8 4.9-4.2 5.3-3.5 5.8-.9 3-.2 2.6.3 1.8.9 1 6.1 1.5 14.7 1.2 33-1.6 31.7-.2 30.4.3 15.3.8 2.8.6 10.8-.8 16.7-.1 16.7.4 10.2.9 5.4-1.8 3.5-.4 3.1.4 1.6 1.2 1.1 192.5 1.1.8 1.5-.1Zm-401.5 89 199-.1 155.2-.5 5.5-.8 2.8-1.1.8-21.5.2-62.1-.2-68.4-.5-11.9-.8-3.5-5.5-.8-20.6-.5-122.4-.3-147.6-.7.5-1.9 5.1-8.8 2.6-3.5 1.1-3.6 1.7-2.3 2.4-2.6h39.3l30.9.2 11.7.9 2.9.7 1.6-.7 8.1-1 16.4-.3 16.6.3 8.6 1 2.1.7 2.2-.7 3.6-.6 9.2-.3h41l52.5.5 37.3-1.6.2-29.6-.3-24.7-.5-4.4-.8-1.6-5.7-.7-18.8-.5-257.1-.7-32.7-.2-4.3 2.3-3.5 2.6-1.4 3.3-1.1 3.7-4.8 8.9-2.3 5.2-4.6 7-3.8 7.3-7.7 11.9-6.8 8.5-2 4.7-6 8.6-1.9 4.8-1.8 5.4-2.9 4-8.1 14.2-2.3 2.8-4.3 7.3L97 779l-1 2.3-1.5 2.7-1.1 1.4-.8 3.2-1.1 1.4-2.9 4.7-2.1 2.7-2.4 4.8-1.7 4.8-.2 2.8 8.1.6 27.3.3 136 .3H424l-.5 48.5-68.3.3-51.1-.1-17.1-.7-.6-.7-1.3-.3-1.5.3-1.1.7-21 .7-79.3.3-46.4-.4-9.4-.9-2.2-.8-1-1.1.3-2 3-5.4 3.2-8 .2-2.7-1-2-2-1.3-3.2-.6-22.9.9-16.5.1-19.2-.3-3.1 3-2.3 2.8-4.6 8.7-5.1 8.5-10.9 19-5.3 7.3-1.4 3.9-3.4 4.5-6 9.9-5 8.9-.9 3.3.2 2.6 1.3 1.5 18.6 1.4 17.5.6Zm488-.2 306.3-.4 49.7-.5 17.7-.7 2.6-1.9.1-.9-.9-.9-1.9-4.9-5.1-8.2-5-8.9-5-9.4-10-15.3-2.7-5.1-9.7-16.2-8.8-16.2-2.2-2.6-1.1-1.1-1.2-4.2-2.9-3.8-7.6-13.1-2.8-3.4-2-3.3-2.7-5.1-7.7-13.4-12-20.1-3-5.4-.7-2.6-1.1-1.1-2.2-.9-9.7-1-55.3-.4-70.3.3-9 .5-2.5 1.1-1 1.7-.6 3.9-.3 23.2.3 22.6.6 4.2.8 1.8 2.2 1.1 7.4.5 48.4.3H855l.6 2.7 9.4 17.4 3.5 5.5 3.5 5 2.4 5.6 5.9 8.7.7 2.1-.4.7-2 .4-15.3.6-117.8.3h-131l-4.5-.2-.6-2.3V855l3.5-8.2 4.3-5.9 2.2-5.3 2.6-3.8 1.9-3.7 5.1-8.6 4-6.5 3.6-5.3 7.7-12.4 2.7-5.1 5.1-7.4 2.7-7 3-3.6 2.2-4.2 2.6-2.7.8-3.9 12.6-20.5 4.8-8.4 6.1-8.2 4.1-8.7 8.2-13.2 3.4-5.7 2.6-6.9 3.7-4.9 3.6-6.3 2.4-3.7 5.1-5.8 1-2.1 1.7-5.1 3.9-6.4 3-6 1.7-4.1 3.1-2.9 4.2-1.9 5.4-.6 3.7.4 3.2 1 2.3 1.4 8 14.6.9.6.9 1 2.1 5.7 18 29.5 2 3 1.9 4.3 8.2 12.5.8 2.2.3 1.3 1.4 1.4 1.6 4.3 1.8 1.3 12 .6 23 .1 22.6-.4 10.6-.7.5-.9-.2-1.2-2.5-5-2.6-5-4.6-7.8-2.9-5.6-3-5.2-.3-1-.6-.4-1.6-1.9-9.8-17.7-1.1-4-2.6-2.6-7.9-12.8-3.7-5.3-1-1.1-.7-3-1.5-1.3-3.2-6.2-3-4.1-8.1-13.8-5.6-11.5-12.8-20.7-1.8-2.7-2.3-1.3-4.9-.7-23.3-.1-37.7.3 32.4.3 25.2.4 8.7 1-11.1-.9-32.6-.4h-32l-10.8.8 2.2-.7 8-.6-12.6.1-6 11.7-12.6 19.6-1.3 3.2-.7 2.4-9.5 15.3-4.9 6.2-4.6 9.9-5.6 10.5-7.7 10.4-3.1 6.9-3.9 6.4-1.5 3.2-2.1 3.9-6.5 10.1-1.7 4.6-7.3 11.7-3.7 6.3-1.2 2.8-.2 1-.7.4-3.9 4.8-5.4 9.1-1.7 3.5.2.7 4.8-6.6-5.2 9.1-3.4 2.8-2.5 3-2.5 4.6-1.1 1.5-1.1 3.9-6.6 9.6-3.5 8.2-1.5 1.3-1.7 2.5-2 4.9-.4 1.7-2.7 2.7-5.1 7.7-4.3 7.3-2.5 3.7-1.4 3.8-2.2 1.6-.4 1.2-4.4 6.6-2.8 7.6-1.6 2-4.8 7.9-5.4 9.8-4.2 6.8-1.9 3.9-4.6 7-2.3 5.1-3.6 4.4-4.1 5.4-1 2.6-.3 2.6.1.8.4.1 5.1-8.7-5.9 10.5-2.8 2.2-8.8 14.8-1.1.8-1 2-.4 2.1.4 1.5 7.5 1 44.4 2.1ZM503.8 581.6l-48.3.1-34.7-.4-2.6-.4 2.1-.2-1.9-1.1-.3-1.3 6.4-11.3 3.1-5 4.2-6.1 2.2-5.5 1.3-2.6 4.4-6.2 4.2-7.4 1.1-1.5 2.6-1.4 1.2-1.8 1.8-7 9.5-14.3 2.5-2.4 3.9-9.7 4.5-8.1 2.5-3.6 1.5-3.7 8.8-14.5 2.4-4.4 5.2-6.4 2.6-3.6 1.6-5 1.4-2.3 1.9-1.8 1.7-.7 1.1-1 1.1-2.4 1.5-8 4.4-7.4 4.5-8 1.4-1.5.9.4.2 83.9-.2 82.5h-7.2l-4.7.2-1.3.5Zm12.3 336.5 237.6.5 179.7-.3 37.9-.4 11.8-.6-11.6.6-37.2.4-176.1.5-162.5-.1Zm66.2-363.9-.1-85.8Zm-62 277.6 1.8-1.9 5.4-9.9-5.5 10.4Zm144.6-248.9.1.2-3.6 7.5Zm33.7 1.4-4.3 7.4 3.1-5.6Zm-82.8 142 5.9-10.6Zm137.4-85.6 1.8 2.5 2.7 5.1-2.7-4.9ZM691 597.4l-1.5 2.3Zm-175.4-16.1.6-2.3Zm-99.6-1.5 4.4-8.7Z"/><path fill="#22939e" d="m23.2 918.3-3.7-.6-1-.7-.4-.9.8-3L59 846.5l3.1-4.8 3.1-3.7 52.5.1 6 .3 3.6.9 1.4 1.4-.4 2.3-4.4 7.7-4.1 8 .4.6 2.5.4 17.6.6 130.2.5 153.3-.3 2.2-.5-.5-49.5-341-1-.3-2.2 2.9-6.9 9-15.6 20.7-35.3 3.2-5.8 4.5-7.7 4.5-7.5 12.7-20.1 21.5-37.8 1.8-2.4 1.8-1.2 50.6-.8 108.1-.3 107.7.4 49.6.9.6 2.9.4 6.4.3 18.7-.4 18.6-.4 6.3-.7 2.8-8.1.5-24.7.3-224.9.6-19.9.4-5.7.8-2.5 2.9-11 18.7-.1 1.6.5 1.5.9.6 3 .4 18.3.5 242.3.6 24.4.3 7.7.6.6 4.6.3 13.8.3 64.1V917l-2.6 1-70.8.6-154.3.2-156.3-.1Zm456.4-3.5.9-3 .5-10.5.4-65.1-.4-79.3-.6-2.4-148.2-.5-118.4-.7-23.8-.4-7.2-.7-.6-1.2.7-2.5 8-14.3 4.5-7.1 3.4-3.9 5.2-.9 18.6-.5 238.7-.8 16.1-.6 2.4-.5.7-.6.8-21-.2-28.5-.7-.6-3-.4-19-.5-133.8-.3H168.2l-2.9 3.4-23.8 41.1-4.5 6.5-16.1 27.1L88 802.5l-1.1 3 .8.9 303.1.9 27.1.3 8.4.6.9 1.5.5 3.8.1 21.9-.3 26-3.4.8-45.9.6H270.5l-120.6-.5-23.9-.4-7.2-.7-1-1.4.1-2.2 3.9-7.9 2.9-5.5v-1.7l-1.5-1-8.8-1-48.2-.5-3.1 3.9-3.1 4.8-2.5 4.5-18.2 30.6L28.8 901 22 913.1l.6 1.1 1.5 1 5.9 1 226.7.3 187.8-.3 28.5-.5 5-.4Zm34.9 3.3-9.3-.8-1.3-.7-.1-1.1 1.2-2.3 4.6-7.5 13.5-23.5 18.9-31.5 9.8-17.7 9.2-15.9 17.1-27.9 13.3-23.2 10.9-18.4 13.8-21.8 5.6-10.1 16.8-29.2 7.2-12.9 7.3-11.1 12.2-22.1 29.8-49.9 4.5-7.4 2.4-.7 6.6-.4 34.6-.1 32.7.4 11 .9 3 4.4 26 44.4 37.9 63.9 3.7 7 6.1 10.2 4.5 9.5-1.3.7-4.8.4-26.3.3-27.4-.3-4.7-.5-1.7-1-8.2-12.9-35.9-61-2.7-5.1-1.8-2.6-3.2-1.2-6.7-.4h-8.1l-2.9 3.8-4.8 7.7-10.3 18.1-11 17.8L684 725l-10.7 17.2-15.8 27.1-7.5 13.4-10.4 17.4-13.7 21.8-7.9 13.9-11 18.1-1.4 2.9-.4 2.1.9.5 3.1.4 18.1.4 116.7.3h138.5l-.3-2.4-1.4-3.6-3.1-5.4-5.7-9.3-16.9-29.3-56-.5-56.6-1.1-1.1-27.4-.1-21 .8-7.1 3.3-.7 10.9-.4 58.7-.3h44.9l21.7.6 4.9.7 2.5 1.2 1.3 1.7 1.1 2.3 2.6 4.5 30.3 51 7.1 11.5 16.6 29 14.3 23.7 20 34.1 1.3 3.3-.5 1.7-11.7.6-37.9.4-179.8.3Zm444.2-2.1 14.2-.7 6.1-.9.2-2.1-1.9-4.2-15.3-27.4-12.6-19.6-13.3-23.1-3.9-7.1-5-8.4-2.2-4.6-1.9-1.7L916 804l-13-21.5-12.4-22-2.5-4.3-1.9-2.2-142.7.5-.3 24.7.1 20.6.4 3.9.8 1.7 2.6.9 7.7.4 88.8.6 8.1.4 3 .8 2.9 3.4 4.1 6.2 3.7 6.2 1.6 3.6 4.4 6.9 10.9 18.4 2.7 5.8v1.3l-.7.9-12.7.6-32 .5-96.2.3-96.1-.3-31.9-.4-12.5-.7-.4-1.7 1.2-3.3 6.8-11.7 19-32.2 12-18.8 4.2-7.8 11.2-19.1 10.1-17.9 15.4-25.2 3.9-7 4.3-7 13-22 3.8-7.3 15-24.7 6.3-11.2 4.3-5.5 3.2-1.5 4.3-.9 4.7-.1 4.3.6 2.3.8 1.8 1.2 4.2 5.4 4.2 6.9 5.3 9.6 9.6 15.4 3.1 5.8 10.6 18 11.7 18.8 1.7 1.2 3.8.7 25.4.3 18.7-.1 9.1-.8 1.7-.8.4-1.4-2-4.3-6.3-11.6-8.8-15.1-1.9-3.9-14.1-23.5-19.7-32-12.3-22.3-6.9-11.5-4.8-7.5-2.4-3.2h-66.3l-12.8.6-3.1.7-1.7 1.1-5.5 10.5-6.1 9.7-8.9 15L670 637l-16 26.5-16 28-10 17-9.5 17-17.1 27.3-23.4 40.7-21 34.5-18.1 31.8-13.4 22.2-9.5 16.3-6.3 12.1-.9 2.8.2 1.3 3.2 1.2 7.6.6 218.6.3Zm-441.2-85.2-.7-96.3-.3-95-203-1-.3-2.2 1-3.3 17.8-29.6 9-16.2 7-10.8 4.3-7.8 5.7-9.8 15-24.2 16.5-29.1 6.6-10.9 7.1-12.4 18.9-31.4 29.7-50.3 15.6-26 17.3-29.6 1.8-2 1.9-.9 13.1-.7 63.8-.6 6.3-.4 2-.7-.2-1.6-1.6-3.3-7.5-12.4-6.6-11.8-14.8-24.8-17.6-30.5-20.8-34.1-3.1-4.1-2.2 2-4.3 6.3-30.3 51.7-29.1 49-4.4 8-11.2 18.5-6.5 10.5-17.4 30.6-6.2 10.3-5.3 8-7.3 11.7-4.2 7.4-3.8 7-12.8 22.5-8.4 13.1-7.2 12.5-18.8 31.3-21.4 37.1-8.2 13.2-5.4 10-9 14.3-9.7 17-13.5 22.6-4.7 6.2-2.2.5-5.5.4-24 .3-31.8-.6-1.1-.8-.5-.9 2.5-6.1 13.8-24.3 9.3-15 3.4-6.2 6.6-10.7 13.9-23.9 6.1-9.9 23-39.1 9.9-16.2L292 454l10.5-18 15-25.1 13.3-22.9 25.9-43.5 30.4-51.5 9.9-15.5 3.5-5.8 6.6-12.2 7.1-12.5 6.3-10.5 11.1-17.9 10.3-18 5.7-9.3 6.5-11.8 20.4-34.3 5.8-10 3.7-7.1 9-14.8 5.5-8.6 2.2-2.1 1.6-.3 2.1 2.5 12.4 21.2 13.4 23.7 4.3 6.9 44.4 75.1 7.6 12.3 6.5 11.6 29.4 49.3 8.7 15.2 2.9 4.3 15 25.1 6 11 3.9 5.7 8.2 13.9 6.1 11.1 5.7 9.9 24.1 40.6 10.1 16.5 31.2 53.3 6.3 10.2 6 10.7 6.9 11.3 3.5 7.8-.7 1.2-1.6.8-32.6.3-30.4-.3-1.6-2.4-16.6-28.5-13-21.1-10.1-17-21.4-36.9-21.7-36.6-6.8-11-13.2-22.5-6.7-11-4.1-6.4-2.6-2.6-.7 3.9-.5 15.8-.5 91.2.1 83.5.7 28.5 11.3.8 70.5 1.3-.4 1.9-1.9 4.1-21.4 37-7.9 12.5-25.5 1-25.2.5-1 89.2-2.7 3.9-5.6 10-9.5 15.7-10.2 17.7-15.8 26.5-10.2 17.5-5.4 10-1.9 1.8-1.6.3Zm5.6-7.4 13.2-22.5 8.9-16.3.9-.6.9-1 1.9-3.8 9.9-16.2 20.2-34.5v-44l.2-31.4.6-13.8 2.1-1.7 4.7-1 21.9-.6 14.9-.1 4.6-.4 3.3-.8 2.4-1.3 1.8-2.2 3.9-7.2 15.6-26.5 5.3-9.6.5-1.6-.1-1.6-1.5-.9-5.5-.5-64-1-6.5-.5-2.6-.7-.8-3.8-.5-14.8-.3-95.4.1-69.6.5-34.6.5-7.8.9-3.3.5-.5.7.2 1.6 1.2 3.5 4 46 77.7 7.7 12.2 21.6 38 10.4 16.9 25.9 43.7 3.1 4 2.9 2.7h27.5l29.1-.5 1.2-1.2v-2.1l-1.4-3.4-10.9-19.7-12.2-20.2-49.5-83.8-4.8-7.8-9.9-17.3-1.8-1.5-9.5-17.5-24.2-40.6-18.3-31.4-13.3-21.3L600 271l-15.7-26.8-8.3-13.9-6.8-10.3-5.8-9.5-10-18.2-8.9-15.3-22.5-37.3-13.4-23.7-4.4-7.3-2-2-1.6-.4-3.5 4.8-6.6 10.6L481 138l-3.7 6.8-4.3 6.3-4.2 8-8.9 14.4-22.4 39.4-3.5 5.7-11 17.1-2.9 5.4-5.7 9.7-9.3 16.7-12.4 20.7-11.5 18.8-9.3 16.2-3.9 5.9-4.1 7.7-10.5 17.2-49.4 83.5-4.6 7.6-11.5 20.4-19.1 31.3-20.4 34.3-5.1 9.3-4.5 6.4-4 7.8-13.9 22.9-28.3 48.4-2 3.8-.9 3.2-.2 2.6 58.7.5 3.4-3.7 3.4-4.6 2.8-5 6.4-10.7 12.7-22.5 9.6-16.1L293 563l3.4-5.8.8-1.5.9-.7.9-1.1 8.3-15.2L321 515l39-65.4 13-23.1 16.5-26.5 8-13.5 13.1-23 25.7-42.5 9.8-16.8 6.6-12 4.5-6 9.2-16.5 12.1-21.2 11.7-19.7 4.8-7.7 3.7-4.7 2.7-1.4 1.4.3 1.4 1.2 22.9 37.9L544 284l29.5 49.4 2.9 5.2.3 1.7-.6 1.1-4.9 1.2-10.7.5-67.9 1.2-4.2.5-1.6 1-7.5 11.8-6.3 11-16.1 27.1-3.4 6.2-3.4 4.9-18.1 31.7-7.7 13-18.2 30-16.5 28-8.6 15.3-13.4 22.7-9.5 15-8 13.5-13.8 24.3-6.2 10.4-12.7 20.6-.5 1.9 1.9 1.3 5.9.8 29.2.7H416l87.8.5 12.3 1 2.1.8 1 1.1.6 27.9.4 131.2.7 26.5ZM415.8 581.9l-1.3-1.2-.3-1.7.6-2.4 5.1-9.2 4.9-7.4 4.3-8 29.9-50.4 11.3-20.1 22.9-37.8L503 426l9.1-15.8 2.3-2.6 2.1-1.4h1.7l1.2 1.4.6 86.9v85.4l-2.2 1.5-2.8.9-7.5.4-41 .3-36.7-.3Zm99.8-.6.7-3.3.4-12.2.3-69.4-.3-65.5-.3-14.7-.5-4.8-1.4.1-1.8 1.9L490 453l-24.8 42-9.2 16.6-2.4 3.7-8.5 14.7-6.4 10.2-7.6 13.3-11.3 18.7-3.8 7.6 1.4.9 3.4.6 49.7.4Z"/></svg>