<svg xmlns="http://www.w3.org/2000/svg" width="1024" height="1024" viewBox="0 0 1024 1024"><path fill="#08dcf1" d="M523.09 823.39c-.73.89-1.73 1.61-2.21 1.61-.5 0-.89-40.01-.9-92.25 0-50.74-.34-92.75-.75-93.35-2.22-3.33-4.48-3.4-103.2-3.4-8.2 0-15.75 0-22.68.01-63.06.03-75.78.03-76.49-2.88-.17-.74.41-1.66 1.15-2.82.32-.5.67-1.05 1-1.64 1.26-2.29 4.04-6.78 6.18-9.98 2.15-3.19 4.35-6.79 4.9-8 1.09-2.4 2.07-4.05 6.18-10.42 1.5-2.33 2.73-4.51 2.73-4.86 0-.51 6.94-12.69 11.05-19.41.51-.83 4.15-6.9 8.1-13.5s8.18-13.35 9.4-15c1.23-1.65 3.48-5.47 5-8.5 1.53-3.03 3.83-6.93 5.11-8.68 1.29-1.75 2.8-4.23 3.36-5.5.56-1.28 2.38-4.57 4.04-7.32 1.67-2.75 3.71-6.35 4.55-8 1.74-3.45 2.85-5.32 6.7-11.3 1.53-2.36 3.23-5.29 3.78-6.5 1.04-2.29 1.75-3.51 5.96-10.2 1.38-2.2 3.04-4.9 3.68-6 .96-1.64 9.51-15.71 14.57-23.96 4.42-7.22 6.31-10.4 7.73-13.04 6-11.15 9.68-17.59 13.08-22.91 2.14-3.35 4.39-7.33 4.99-8.84s1.47-2.75 1.93-2.75 1.13-.94 1.5-2.09c.37-1.16 1.86-3.97 3.32-6.25 5.55-8.71 16.15-26.43 16.15-27.01 0-.84 12.19-21.11 13.77-22.9 1.39-1.58 4.24-1.76 29.63-1.89 15.46-.07 35.3-.41 44.09-.75 10.78-.41 15.3-.56 16.11-2.37.58-1.3-.73-3.44-2.99-7.14l-.12-.2c-4.3-7.05-2.76-4.48-16.96-28.4-6.36-10.73-11.99-20.17-12.5-21-1.84-2.97-10.67-18.53-11.36-20-.38-.83-1.58-2.85-2.67-4.5-1.08-1.65-2.39-3.94-2.9-5.1-1.05-2.36-7.67-13.37-12.56-20.9-1.79-2.75-4.39-7.06-5.78-9.58-4.4-7.97-5.19-8.92-7.41-8.92-1.54 0-3.39 1.78-6.32 6.08-2.29 3.34-4.47 6.83-4.85 7.75s-2.31 4.15-4.29 7.17-5.29 8.65-7.36 12.5c-2.06 3.85-7.53 13.39-12.14 21.2-4.62 7.81-8.39 14.63-8.39 15.17 0 .53-.35 1.11-.77 1.3-1.11.48-8.23 11.47-8.23 12.7 0 .57-1.3 2.96-2.89 5.33-2.78 4.13-8.35 13.68-9.8 16.8-1.13 2.42-16.01 26.97-20.31 33.5-2.17 3.3-4.62 7.35-5.45 9-2.21 4.41-7.44 13.66-8.44 14.91-.47.6-2.54 4.24-4.59 8.09s-5.65 9.92-7.99 13.5c-2.35 3.58-4.44 6.95-4.65 7.5s-2.97 4.91-6.13 9.7c-3.16 4.78-5.75 8.97-5.75 9.31s-2.92 5.58-6.5 11.64-6.5 11.2-6.5 11.42c0 .62-21.3 36.32-24.72 41.43-1.65 2.48-4.08 6.52-5.39 9-1.32 2.47-2.65 4.72-2.96 5-.31.27-2.97 4.77-5.91 10-2.94 5.22-9.09 15.88-13.68 23.67-4.59 7.8-8.34 14.66-8.34 15.25s-.42 1.08-.93 1.08c-.52 0-1.25 1.01-1.64 2.25-.38 1.24-1.93 3.83-3.43 5.75s-4.43 6.62-6.52 10.44c-2.09 3.81-4.89 8.54-6.24 10.5-1.34 1.96-2.84 4.46-3.34 5.56-.49 1.1-1.34 2.67-1.87 3.5-1.58 2.41-9.44 16.27-10.79 19-1.3 2.65-2.1 3.96-6.49 10.66-1.51 2.31-2.75 4.59-2.75 5.07 0 .49-1.53 2.55-3.4 4.59l-3.4 3.71-58.7-.53.17-2.65c.1-1.46 1.42-4.61 2.95-7 1.52-2.39 3.74-6.15 4.93-8.35 4.22-7.79 6.19-11.17 15.9-27.18 3.27-5.4 6.61-11.17 7.42-12.82s2.46-4.35 3.66-6 3.26-5.01 4.58-7.46c1.31-2.46 3.85-6.73 5.64-9.48 1.79-2.76 3.25-5.55 3.25-6.2 0-.66.36-1.34.8-1.53.95-.39 8.2-12.23 8.2-13.38 0-.44.62-1.5 1.38-2.37s3.08-4.73 5.17-8.58c2.08-3.85 4.08-7.22 4.45-7.5s2.39-3.65 4.49-7.5 4.92-8.67 6.27-10.71 3.19-5.07 4.1-6.73c.9-1.66 4.56-7.64 8.14-13.28s6.67-10.72 6.88-11.27c.21-.56 2.57-4.67 5.25-9.15s4.87-8.49 4.87-8.92.62-1.49 1.37-2.36c.76-.87 2.84-4.28 4.64-7.58 3-5.51 9.33-16.24 12.99-22.01 4.15-6.54 13-21.4 13-21.82 0-.58 17.7-30.6 23.41-39.69 2.25-3.59 4.63-7.42 5.29-8.5.66-1.09 3.02-4.98 5.25-8.65 2.23-3.68 4.05-7.16 4.05-7.75 0-.6.34-1.08.75-1.08.42 0 1.85-2.14 3.18-4.75 3.38-6.6 14.35-25.1 20.8-35.08 2.96-4.58 5.91-9.53 6.56-11 .64-1.47 1.43-2.9 1.76-3.17.32-.27 2.13-3.2 4.02-6.5 1.88-3.3 3.88-6.79 4.43-7.75s2.75-5.01 4.89-9c2.13-3.99 4.72-8.32 5.75-9.63 1.02-1.32 1.86-2.8 1.86-3.3s.46-1.45 1.01-2.11c1.51-1.79 10.99-16.52 10.99-17.07 0-.25 1.58-2.86 3.5-5.78s3.5-5.65 3.5-6.07c0-.41 1.75-3.62 3.89-7.12 2.15-3.5 5.82-9.92 8.16-14.27 2.34-4.34 5.41-9.7 6.83-11.9s3.04-4.77 3.6-5.7c.56-.94 2.93-4.84 5.27-8.68 2.34-3.83 4.25-7.45 4.25-8.04 0-.6.36-1.08.79-1.08.44 0 2.03-2.36 3.54-5.25s3.15-5.93 3.65-6.75c.49-.82 4.78-8.17 9.54-16.31 4.76-8.15 9.32-15.07 10.13-15.39 1.62-.62 5.27 3.83 7.96 9.7.38.82 2.87 5.16 5.54 9.64s4.85 8.46 4.85 8.85c0 .4 1.35 2.72 3 5.17 1.65 2.44 3 4.64 3 4.88 0 .43 6.97 12.05 19.48 32.46 3.53 5.77 6.45 10.87 6.47 11.32.03.45 1.12 2.25 2.44 4 1.31 1.75 3.63 5.88 5.15 9.18s3.71 7.34 4.86 8.98c2.54 3.61 4.12 6.21 5.77 9.52.68 1.38 2.5 4.14 4.04 6.14 1.53 2.01 2.79 3.9 2.79 4.2 0 .31 1.3 2.49 2.9 4.86 1.59 2.36 4.02 6.41 5.39 8.99s3.37 5.95 4.45 7.5c1.08 1.54 3.88 6.41 6.22 10.81s4.6 8.23 5.01 8.5c.42.27 1.11 1.62 1.53 3 .43 1.38 2.85 5.71 5.39 9.62 8.78 13.56 20.11 32.16 20.11 33 0 .21 5.2 9.05 11.55 19.64 21.26 35.41 32.09 54.03 32.89 56.56.38 1.2 1.11 2.18 1.63 2.18.51 0 .93.41.93.91s1.58 3.31 3.5 6.23 3.5 5.64 3.5 6.04c0 .39 1.3 2.65 2.88 5.02 1.59 2.36 3.74 5.88 4.78 7.8s2.6 4.62 3.48 6c.87 1.38 7.29 12.17 14.26 24 6.96 11.83 13.1 22.17 13.64 23 .53.83 1.27 2.17 1.62 3 .61 1.4 12.75 21.82 16.54 27.81 3 4.74 4.25 6.84 6.44 10.81 1.18 2.13 3.77 6.34 5.75 9.36 1.99 3.01 3.61 5.88 3.61 6.37s2.03 4.23 4.5 8.31c4.75 7.83 5.49 10.75 2.95 11.72-.85.33-13.93.57-29.06.54l-27.51-.06-2.84-2.68c-1.56-1.47-4.52-5.83-6.56-9.68-2.05-3.85-4.34-7.71-5.1-8.58s-1.38-1.9-1.38-2.3c0-.65-12.26-21.44-16-27.12-1.6-2.43-7.26-11.64-10.37-16.86-1.03-1.73-2.97-5.16-4.3-7.64-1.34-2.48-2.84-5.17-3.33-6-4.58-7.66-14-24.11-14-24.43 0-.39-6.14-10.06-7.7-12.12-1.49-1.97-3.24-4.94-5.82-9.87-1.41-2.71-3.9-6.89-5.52-9.3-1.63-2.41-2.96-4.62-2.96-4.91s-3.26-5.9-7.25-12.47c-3.99-6.58-7.92-13.19-8.75-14.7s-4.42-7.6-8-13.54-7.05-11.78-7.71-12.98c-.67-1.2-2.22-3-3.46-4.01l-.34-.28c-.75-.62-1.38-1.15-1.91-1.05-2.58.44-2.58 15.84-2.58 107.37v8.36c0 103.57.13 112.8 1.65 114.06 1.33 1.1 9.37 1.43 40.55 1.65 34.55.26 38.96.47 39.5 1.89.34.88.16 2.32-.39 3.21s-2.93 5.2-5.29 9.58c-2.36 4.37-5.98 10.45-8.04 13.5s-5.48 8.92-7.59 13.04c-2.56 4.99-3.84 7.92-6.06 9.62-3.12 2.41-8.1 2.4-21.12 2.38h-3.7c-21.76 0-27 .6-28.72 3.31-.42.66-.77 20.99-.79 45.19l-.03 44-4.01 7c-4.7 8.2-5.58 9.68-16.2 27.5-4.42 7.42-8.88 14.72-9.9 16.21s-1.86 3.18-1.86 3.75-.42 1.04-.93 1.04c-.52 0-1.23.94-1.6 2.1-.37 1.15-4.04 7.79-8.17 14.75s-7.93 13.55-8.45 14.65c-1.41 3.02-3.27 6.1-4.76 7.89m-43.5 91.44c-1.54 1.55-17.82 1.67-222.88 1.68-121.66.01-223.67-.13-226.68-.31-5-.29-8.03-1.45-8.03-3.08 0-.81 12.34-21.74 17.31-29.37 2.07-3.17 4.04-6.54 4.4-7.5.35-.96 1.63-3.1 2.83-4.75s3.59-5.6 5.3-8.77 4.25-7.44 5.64-9.48c1.38-2.04 2.52-4.11 2.52-4.59s1.39-2.63 3.1-4.78l3.09-3.91 29.14.27c21.31.19 28.49.05 29.44 2.42.47 1.17-.59 2.96-2.23 5.71-.25.43-.52.87-.79 1.35-4.33 7.38-4.97 9.85-2.99 11.49 1.24 1.04 31.13 1.35 151.75 1.61 84.26.17 151.69-.07 153.6-.57l3.39-.88.27-25.93c.24-23.5.1-26.06-1.44-27.19-1.35-.99-36.84-1.25-169.44-1.25-92.25 0-168.41-.26-169.24-.58-1.77-.68-1.09-2.04 11.76-23.33 9.11-15.09 15.07-25.39 16.85-29.09.66-1.38 1.46-2.72 1.77-3 .32-.28 1.59-2.48 2.83-4.89 1.24-2.42 4.19-7.37 6.55-11 2.36-3.64 5.37-8.63 6.69-11.11 1.32-2.47 2.64-4.72 2.93-5 1.2-1.12 7.97-11.9 7.97-12.67 0-.46 1.57-3.05 3.5-5.76s3.5-5.52 3.5-6.25c0-.72.34-1.32.75-1.33.41 0 2.77-4.08 5.25-9.07 2.48-4.98 5.77-10.6 7.32-12.49l2.83-3.43h156.42c148.28 0 156.43.09 156.52 1.75.62 11.69.19 48.05-.59 49.56-.98 1.9-3.63 1.94-140.09 2.09-127.61.15-139.3.3-141.62 1.82-1.39.91-4.95 5.84-7.92 10.97-9 15.53-9.48 16.6-8.04 18.04 1.01 1.01 31.66 1.37 149.42 1.77l148.16.5.56 2.37c.31 1.3.5 37 .42 79.33-.12 70.38-.27 77.11-1.8 78.63m479.15 1.22c-19.73.65-421.5.86-438.9.23-6.81-.25-10-.77-10.84-1.78-.96-1.15.41-4.32 7.02-16.22 4.52-8.13 8.77-15.45 9.44-16.28.68-.83 1.55-2.17 1.93-3 .78-1.7 1.99-3.7 5.88-9.73 1.5-2.33 2.73-4.44 2.73-4.7s1.3-2.4 2.89-4.77c2.71-4.04 4.13-6.56 12.88-22.8 1.93-3.58 4.26-7.62 5.19-9s3.46-5.59 5.62-9.36c4.52-7.91 4.45-7.8 10.7-17.4 2.6-3.99 4.72-7.49 4.72-7.77s1.21-2.41 2.69-4.74 4.21-7.15 6.08-10.73 4.03-7.21 4.81-8.08S593 768 593 767.58c0-1.18 15.93-27.63 19.03-31.58 1.5-1.92 4.42-6.65 6.48-10.5s4.08-7.45 4.49-8 2.66-4.6 5-9 5.55-9.94 7.13-12.3c1.58-2.37 2.87-4.47 2.87-4.68s3.6-6.47 8-13.9 8-13.79 8-14.13 1.07-2.06 2.37-3.81 4.28-6.78 6.61-11.18 4.61-8.23 5.07-8.52c.45-.29 1.32-1.64 1.93-3 1.37-3.06 3.25-6.33 4.68-8.12.6-.75 2.76-4.48 4.8-8.3 2.04-3.81 6.07-10.56 8.96-15 5.34-8.2 7.59-12.08 9.6-16.56.63-1.4.99-2.48 1.67-3.3 2.21-2.72 7.76-2.71 36.96-2.7h47.25l2.42 3.25c1.34 1.79 3.5 5.13 4.81 7.43 1.3 2.29 4.37 7.47 6.82 11.5 2.44 4.02 5.95 10.24 7.79 13.82s3.9 7.4 4.57 8.5l3.71 6.04c1.36 2.22 3.01 4.92 3.66 6 2.69 4.45 10.93 17.83 12.32 20 .83 1.28 4.11 6.75 7.31 12.15 3.19 5.39 6.23 10.48 6.75 11.31s1.4 2.57 1.97 3.88c.56 1.31 1.85 3.56 2.86 5s3.66 6 5.89 10.12 5.07 9.33 6.31 11.57l.24.42c1.24 2.24 2.09 3.76 1.69 4.8-.86 2.21-7.43 2.21-28 2.21h-1.81c-28.66 0-28.88-.02-30.9-2.25-1.12-1.24-6.39-9.67-11.71-18.75s-10.08-17.17-10.59-18c-.5-.83-1.88-3.43-3.07-5.78-1.18-2.36-2.67-4.84-3.31-5.5-1.38-1.45-11.63-18.61-11.63-19.47 0-.33-1.89-3.45-4.2-6.94-3.52-5.31-4.86-6.52-8.25-7.43-5.19-1.4-13.31-.45-16.54 1.94-2.22 1.65-5.83 7.33-10.6 16.68-2.06 4.03-3.14 5.85-8.38 14.02-5.44 8.5-8.65 14.01-10.47 17.98-1.35 2.95-6.74 12.11-12.93 22.01-1.72 2.75-3.69 5.9-4.37 7-.68 1.09-2.42 4.24-3.87 6.99-1.44 2.75-4.29 7.47-6.32 10.5-4.15 6.16-15.07 24.6-15.07 25.43 0 .29-1.84 3.54-4.08 7.21-2.25 3.66-4.52 7.61-5.05 8.76-1.05 2.31-2.07 4.03-6.14 10.33-1.5 2.33-2.73 4.6-2.73 5.05s-.69 1.69-1.53 2.77c-3.19 4.07-20.15 31.88-25.89 42.45-1.04 1.92-3.36 5.75-5.13 8.5-6.56 10.14-8.95 15.4-7.6 16.75 1.9 1.9 279.15 1.82 281.44-.08 1.44-1.19 1.25-1.98-1.99-8-1.98-3.67-4.59-8.02-5.81-9.67-1.21-1.65-3.48-5.59-5.05-8.75s-3.21-5.75-3.65-5.75c-.43 0-.79-.5-.79-1.11 0-1.97-10.04-17.8-12.28-19.37-1.87-1.31-9.43-1.52-55.37-1.52-47.28 0-53.38-.18-54.8-1.59-1.38-1.38-1.55-4.81-1.32-26.25l.27-24.66 71.33-.26 71.34-.25 1.89 2.25c1.03 1.24 2.19 3.16 2.56 4.26s1.83 3.8 3.24 6 3.6 6.03 4.85 8.5c1.26 2.47 3.17 5.85 4.26 7.5s3.36 5.47 5.05 8.5c1.68 3.03 5.29 8.88 8 13 2.72 4.12 5.45 8.74 6.06 10.25s1.52 2.75 2.02 2.75c.49 0 .9.39.9.87 0 .84 3.57 7.29 7.18 12.98.93 1.46 2.69 4.68 3.91 7.15 4.04 8.19 22.81 39.19 25.86 42.71.58.66 1.05 1.47 1.05 1.79 0 .33 2.14 4.28 4.75 8.79 6.49 11.19 6.4 11.02 9.54 16.86 1.94 3.6 2.47 5.49 1.74 6.22-.61.61-9.1 1.31-20.29 1.68M415.75 581.92c1.12.65 19.34 1.03 50.78 1.05 42.79.03 49.31-.17 51.25-1.53l2.22-1.55v-85.36c0-46.95-.27-86.08-.61-86.95-1.07-2.79-4.13-1.7-7.3 2.62-1.7 2.31-3.09 4.63-3.09 5.17 0 .53-.61 1.68-1.36 2.55-.74.87-2.85 4.5-4.68 8.08-5.25 10.27-12.35 22.49-25.25 43.46-.67 1.08-2.33 3.78-3.69 6s-3.03 4.94-3.71 6.04-1.56 2.67-1.96 3.5c-.39.83-2.66 4.8-5.04 8.83-2.37 4.04-4.31 7.54-4.31 7.8 0 .45-19.83 33.93-23.22 39.2-.95 1.47-2.38 3.79-3.19 5.17s-2.4 4.08-3.54 6c-1.13 1.92-3.07 5.53-4.3 8-1.24 2.47-2.62 4.66-3.06 4.85-.45.2-1.24 1.33-1.77 2.5-.52 1.18-2.04 3.95-3.39 6.15-2.92 4.78-3.13 7.05-.78 8.42"/><path fill="#0e4045" d="M121.5 921.02c-28.05.09-58.1.24-66.78.33-8.68.08-16.56-.16-17.5-.53-.95-.37-5.17-.71-9.39-.75s-8.38-.34-9.25-.68c-2.54-.97-1.88-6.16 1.42-11.05 1.65-2.44 3-4.8 3-5.24s1.35-2.66 3-4.94 3-4.53 3-5 .9-1.66 2-2.66 2-2.62 2-3.6c0-.99 1.17-3.06 2.61-4.6s3.02-3.7 3.51-4.8c1.39-3.1 7.03-12.94 7.74-13.5.35-.28 1.76-2.75 3.14-5.5s3.67-6.58 5.1-8.5 2.88-4.64 3.21-6.03c.34-1.39 2.01-3.86 3.72-5.5l3.1-2.97 19.19.3c10.55.17 23.65-.15 29.1-.69 17.16-1.71 19.88 1.27 13.08 14.32-.52.99-1.05 1.9-1.53 2.72-1.19 2.01-2.08 3.51-1.73 4.63 1.02 3.3 12.75 3.28 59.01 3.22 6.4-.01 13.46-.02 21.24-.02 49.8-.02 78.64-.39 79.03-1.01.79-1.28 4.48-1.25 4.48.04 0 .67 22.93.92 68.25.75l68.25-.26.27-24.25.27-24.25h-170.4c-135.1 0-170.61-.26-171.43-1.25-1.17-1.42 4.05-13.67 6.41-15.05.76-.44 1.38-1.4 1.38-2.13s.68-1.89 1.5-2.57 1.5-2.03 1.5-3 .68-2.32 1.5-3 1.5-1.89 1.5-2.68 1.57-3.5 3.5-6.02 3.5-5.2 3.5-5.94c0-.75.34-1.36.75-1.37.79 0 3.27-3.89 6.68-10.49 2.2-4.26 5.62-9.67 6.63-10.5.34-.28 1.16-2.69 1.82-5.38.74-2.98 2.75-6.69 5.17-9.56 2.17-2.58 3.95-5.49 3.95-6.47s1.27-2.98 2.81-4.44c1.55-1.46 3.68-4.23 4.74-6.15s2.7-4.41 3.65-5.53c2.06-2.41 6.35-9.87 7.89-13.72.61-1.51 1.43-2.75 1.83-2.75.71 0 5.08-8.07 5.08-9.38 0-.36 1.21-2.56 2.69-4.89 1.47-2.33 2.94-5.8 3.26-7.72.47-2.82 1.41-3.94 4.89-5.86l4.3-2.38 32.68.26c17.97.15 88.3.31 156.28.37 103.17.08 123.87.33 125.25 1.47 1.47 1.22 1.65 4.64 1.65 30.75 0 16.16-.11 29.45-.25 29.54-.27.17-35.63 1.7-37.25 1.61-.55-.03-24.17-.23-52.5-.43-39.25-.29-52.05-.09-53.81.84-1.81.96-2.74.96-4.24.02-2.72-1.7-48.05-1.7-49.75 0-.93.93-1.94.93-4.48.01-2.34-.84-14.64-1.17-42.62-1.12l-39.33.05-2.38 2.58c-1.32 1.41-2.39 3.35-2.39 4.3 0 .96-.68 2.3-1.5 2.98s-1.5 1.62-1.5 2.07c0 .46-1.4 2.9-3.11 5.44-1.71 2.53-2.82 4.89-2.47 5.24s66.78.68 147.61.73c129.54.09 147.16.28 148.49 1.61 1.31 1.32 1.5 11.82 1.51 83.83 0 54.87-.34 82.74-1.02 83.57-.57.68-4.29 1.53-8.27 1.89s-73.84.61-155.24.56-170.95-.01-199 .08m-98.25-2.76c12.92.91 455.79.68 458.18-.24l2.57-.97v-81.33c0-61.91-.29-81.61-1.2-82.52-.92-.92-35.26-1.2-148.46-1.2-139.25 0-147.32-.1-148.17-1.75-1.09-2.12-.57-3.8 2.39-7.75 1.24-1.65 3.67-5.8 5.4-9.23s4.12-6.91 5.3-7.74c1.89-1.32 19.06-1.51 142.09-1.52 101.91-.01 140.31-.32 141.3-1.13 1.85-1.54 1.99-53.84.15-55.68-1.61-1.61-312.49-1.76-316.01-.15-2.49 1.13-3.78 3.08-10.28 15.45-2.31 4.4-5.85 10.57-7.86 13.7-2.01 3.14-3.65 6.03-3.65 6.43s-1.51 3.01-3.35 5.8c-9.06 13.74-12.65 19.44-12.65 20.09 0 .39-2.03 3.76-4.5 7.48s-4.5 7.18-4.5 7.69c0 .5-1.43 3.14-3.18 5.86s-4.39 7.2-5.86 9.95-8.17 14.12-14.88 25.26c-7.99 13.26-12.11 21.04-11.9 22.5l.32 2.24 341 1 .53 49.45-2.26.55c-1.25.3-70.22.42-153.27.27-145.88-.26-150.99-.33-150.69-2.11.18-1.01 2.01-4.61 4.07-8 .47-.78.93-1.51 1.35-2.2 2.48-4 4.01-6.48 3.35-8.01-1.07-2.49-7.95-2.48-26-2.46-1.91.01-3.95.01-6.11.01H65.15l-3.08 3.73c-1.69 2.05-3.07 4.19-3.07 4.75s-1.58 3.24-3.5 5.95-3.5 5.32-3.5 5.81-1.08 2.33-2.39 4.08-3.81 5.88-5.55 9.18-6.06 10.5-9.61 16c-3.54 5.5-6.88 11.02-7.43 12.28-.54 1.25-2.8 4.99-5.01 8.32-5.54 8.34-5.37 9.7 1.24 10.16m499.71-86.22c-2.77 2.96-5.34 3.78-6.42 2.03-.32-.52-.57-43.68-.56-95.92s-.25-95.69-.59-96.56c-.77-2.01-7.84-2.1-11.37-.14-1.45.8-3.12 1.04-4 .57-2.07-1.09-48.05-1.59-50.4-.54-1.1.49-3.17.36-5.01-.3-3.98-1.44-85.98-1.47-96.11-.04-8.71 1.23-19.85 1.05-29-.47-6.83-1.14-7.01-1.25-7.31-4.32-.28-2.97 1.79-8.13 4.59-11.38 4.21-4.91 5.22-6.46 5.22-8.07 0-.99 1.16-3.05 2.58-4.58s3.75-5.27 5.17-8.3c1.42-3.04 2.86-5.74 3.19-6.02 1.8-1.48 4.06-6.27 4.06-8.6 0-1.88 1.48-4.12 5-7.59 2.75-2.71 5-5.76 5-6.79s.67-2.55 1.5-3.38c.83-.82 1.5-2.15 1.5-2.95 0-.79.67-2.01 1.5-2.69s1.5-2.05 1.5-3.03c0-1.52 2.3-4.9 8.21-12.03.71-.87 2.19-3.31 3.29-5.43 1.1-2.13 2.47-4.35 3.04-4.94 1.8-1.87 5.46-8.26 5.46-9.54 0-.69 1.29-2.88 2.86-4.89 1.57-2 3.93-6 5.24-8.89s2.73-5.25 3.14-5.25c.42 0 .76-.87.76-1.92 0-2.91 7.91-16.98 10.5-18.67 1.24-.82 2.51-2.71 2.81-4.2s1.93-4.25 3.62-6.14 3.07-3.81 3.07-4.27 1.23-2.74 2.73-5.07c3.03-4.69 2.84-4.38 9.61-15.66 2.67-4.44 5.26-8.32 5.75-8.63.5-.31.91-1.24.91-2.07 0-.82 1.09-2.94 2.43-4.69s2.91-4.31 3.5-5.68c.59-1.38 1.52-3.29 2.07-4.25l2-3.5c.55-.96 1.44-2.76 1.98-4 .53-1.24 1.43-2.25 2-2.25.56 0 1.02-.47 1.02-1.05 0-2.14 4.02-9.55 6.97-12.84 1.66-1.86 3.03-4.34 3.03-5.52s1.39-3.66 3.08-5.52c1.7-1.86 3.5-4.32 4.02-5.47 1.3-2.95 4.77-8.62 7.01-11.46 1.04-1.33 1.89-2.96 1.89-3.62 0-.67 1.35-3.08 3-5.36s3-4.77 3-5.54c0-.78.62-1.64 1.37-1.93.76-.29 1.69-1.8 2.08-3.36s1.73-4.18 2.97-5.83c1.25-1.65 3.05-4.65 4-6.66 3.65-7.75.76-7.28 48.79-7.84 42.11-.49 42.96-.54 40.93-2.37-1.14-1.03-2.82-3.84-3.74-6.25s-1.99-4.38-2.37-4.38c-.39 0-1.93-2.36-3.43-5.25s-4.28-7.45-6.18-10.13c-1.89-2.68-3.73-6.06-4.07-7.5s-2.14-4.5-3.99-6.79-3.36-4.61-3.36-5.14c0-.54-.67-1.24-1.5-1.55-.84-.32-1.5-1.81-1.5-3.37 0-1.6-.76-3.27-1.8-3.91-1.74-1.09-7.2-10.57-7.2-12.51 0-.53-1.3-2.63-2.88-4.66-1.59-2.03-3.2-5.04-3.58-6.68-.39-1.64-1.02-3.22-1.4-3.5-1.04-.75-8.14-11.72-8.14-12.58 0-.4-1.58-2.65-3.5-5-1.92-2.34-3.5-4.89-3.5-5.65 0-1.88-6.43-8.79-8.13-8.75-2.32.06-5.26 3.24-7.81 8.47-2.6 5.3-3.51 6.65-6.31 9.29-.96.91-1.77 2.34-1.79 3.18-.03.84-1.15 3.33-2.5 5.53-1.34 2.2-2.97 5.01-3.61 6.25-.65 1.24-1.55 2.25-2.01 2.25s-.84.66-.84 1.47c0 1.94-3.75 9.08-5.57 10.58-.78.66-1.43 1.84-1.43 2.62s-1.69 3.96-3.75 7.05-4.18 6.33-4.71 7.2-2.22 3.45-3.75 5.74c-1.54 2.29-2.79 4.59-2.79 5.1s-.9 1.74-2 2.74-2 2.69-2 3.76-1.35 3.66-3 5.74-3 4.23-3 4.77-.67 1.55-1.5 2.23-1.5 2.03-1.5 2.99-1.35 3.26-3.01 5.12c-1.66 1.87-3.3 4.51-3.65 5.89s-1.25 3.39-1.99 4.47c-.74 1.09-1.35 2.76-1.35 3.72s-1.35 2.75-3 3.97-3 3.02-3 3.99c0 .98-1.3 3.26-2.88 5.07-1.59 1.8-4.57 6.43-6.62 10.28-2.06 3.85-4.26 7.67-4.88 8.5-.63.83-2.02 3.3-3.09 5.5-1.08 2.2-3.28 5.73-4.9 7.84-1.75 2.29-3.3 5.91-3.85 9-1.06 5.96-4.49 11.64-7.03 11.65-.96.01-1.75.68-1.75 1.49 0 .82-1.58 3.11-3.5 5.09s-3.5 4.27-3.5 5.1c0 .82-1.69 3.97-3.75 6.99-4.03 5.91-4.03 5.91-6.8 11.67-1.02 2.1-2.66 4.76-3.65 5.9s-1.8 2.68-1.8 3.42-.45 1.35-1 1.35-1 1.26-1 2.8c0 1.86-1.16 3.95-3.47 6.25-1.91 1.9-3.48 4.1-3.5 4.88-.06 2.71-4.06 9.77-7.05 12.43-1.64 1.46-2.98 3.32-2.98 4.13s-1.8 4.42-4 8.01-4 6.93-4 7.42c0 .48-1.52 2.4-3.37 4.25s-3.71 4.94-4.13 6.85c-.41 1.91-1.05 3.71-1.41 3.98-1.9 1.44-8.1 9.9-8.13 11.1-.03.77-1.15 3.2-2.49 5.4-1.35 2.2-2.88 4.97-3.4 6.15-.52 1.19-1.42 2.45-2.01 2.81-.58.36-1.06 1.37-1.06 2.25 0 .87-1.58 3.51-3.5 5.86-1.92 2.34-3.5 4.67-3.5 5.17 0 1.79-6.08 12.72-7.52 13.53-.81.46-1.48 1.45-1.48 2.21s-.58 1.97-1.29 2.7c-1.9 1.93-8.71 13.4-8.71 14.65 0 2.29-2.39 6.16-4.15 6.72-1.02.32-1.85 1.42-1.85 2.45 0 1.02-.62 2.47-1.37 3.23-.75.75-1.65 2.24-2.01 3.32-.35 1.07-1.98 3.47-3.63 5.34-1.64 1.86-2.99 4.42-2.99 5.69 0 1.26-.45 2.58-1 2.92s-1 1.83-1 3.31c0 1.88-1.06 3.53-3.5 5.48-1.93 1.54-3.5 3.5-3.5 4.36s-1.28 3.2-2.85 5.21c-1.57 2-3.93 5.55-5.25 7.89s-3.19 4.51-4.15 4.82c-1.36.44-45.27.77-63.53.48-1.97-.03-3.52-.66-3.86-1.56-.73-1.9 3.94-12.58 7.08-16.21.58-.66 1.65-1.91 2.38-2.78.72-.86 1.57-3.1 1.87-4.99.31-1.89 1.83-4.68 3.41-6.22 1.56-1.53 2.86-3.52 2.87-4.42.02-.89.71-2.19 1.53-2.87s1.5-1.66 1.5-2.16c0-1.23 4.17-7.13 5.75-8.14.69-.44 1.25-1.93 1.25-3.3 0-1.41 1.32-3.91 3-5.7 1.64-1.76 2.99-3.78 3-4.48 0-.71.68-1.54 1.5-1.86.82-.31 1.5-1.26 1.5-2.1 0-1.45 3.68-8.21 5.04-9.26.36-.28.95-1.74 1.33-3.25.37-1.51 1.11-2.75 1.65-2.75s.98-.9.98-2 1.51-3.68 3.36-5.75c1.84-2.06 4.18-5.55 5.19-7.75s3.33-5.98 5.14-8.39c1.82-2.42 3.31-5.14 3.31-6.04 0-.91 1.33-3.2 2.96-5.11 1.63-1.9 2.98-4.19 3-5.09.02-.89.69-2.16 1.48-2.82.79-.65 1.72-2.52 2.08-4.15s1.96-3.94 3.57-5.12c1.6-1.19 2.91-2.99 2.91-4 0-2.28 2.96-7.13 7.25-11.85.96-1.06 1.75-2.73 1.75-3.71 0-.97 1.35-3.25 3-5.06s3-3.71 3-4.23c0-1.56 6.45-12.65 8.1-13.93.36-.27 1.66-2.98 2.9-6s3.54-6.72 5.1-8.21 3.15-3.97 3.53-5.5c.81-3.27 3.29-7.45 5.1-8.59.7-.44 1.27-1.62 1.27-2.63 0-1 .67-2.39 1.5-3.07s1.5-2.01 1.5-2.94 1.33-2.96 2.95-4.51c1.62-1.56 3.24-4.12 3.58-5.69.35-1.57 1.04-2.86 1.55-2.86s.92-.52.92-1.15 1.58-3.07 3.5-5.42c1.92-2.34 3.5-5.35 3.5-6.67 0-1.33 1.13-3.48 2.52-4.78 2.41-2.26 7.48-11.7 7.48-13.92 0-.58.45-1.06 1-1.06s1-.69 1-1.53.67-1.79 1.5-2.11c.83-.31 1.5-1.76 1.51-3.22 0-3.1 2.43-7.06 6.68-10.89 1.68-1.51 3.38-3.87 3.79-5.25.42-1.38 1.94-4.07 3.39-6 1.44-1.92 3.7-5.52 5-8 1.3-2.47 3.36-5.85 4.57-7.5 1.22-1.65 2.53-3.86 2.91-4.91.39-1.05 2.72-4.94 5.18-8.64 2.46-3.69 4.47-7.47 4.47-8.39s2.02-4.57 4.5-8.11 4.5-7.09 4.5-7.89c0-.79.48-1.74 1.06-2.1.59-.36 1.5-1.62 2.04-2.81 2.18-4.78 8.21-13.76 10.77-16.05 1.17-1.05 2.13-2.41 2.13-3.02 0-1.29 3.91-8.84 4.96-9.58.39-.27 2.19-3.51 3.99-7.19 1.8-3.69 4.12-7.47 5.16-8.41s1.89-2.71 1.89-3.93.67-2.79 1.5-3.47 1.5-2.34 1.5-3.67c0-1.66.96-2.96 3.03-4.13 1.66-.93 3.3-2.78 3.64-4.1s2.58-5.26 4.98-8.76c2.39-3.5 4.35-6.73 4.35-7.17 0-.45 1.58-3.03 3.5-5.74s3.5-5.71 3.5-6.68c0-.96.45-1.75 1-1.75s1-.64 1-1.42c0-.79 1.58-3.49 3.5-6.01 2.32-3.04 3.5-5.67 3.5-7.8 0-2.23.81-3.9 2.66-5.49 2.68-2.31 4.03-4.29 6.65-9.78.79-1.65 2.62-4.09 4.06-5.42 1.45-1.34 2.63-3.22 2.63-4.2 0-.97.46-2.04 1.02-2.39.55-.34 1.63-2.06 2.38-3.81s2.32-4.17 3.48-5.39c1.17-1.21 2.12-2.51 2.12-2.89 0-1.17 4.44-9.83 5.75-11.22.69-.73 1.25-2.46 1.25-3.84 0-1.49 1.74-4.63 4.25-7.68 2.34-2.84 5.13-6.96 6.2-9.16s2.5-4.68 3.17-5.5 1.36-2.85 1.55-4.5c.29-2.67.74-3.03 4.09-3.31 2.89-.24 3.91.11 4.43 1.5.38 1 1.95 3.88 3.49 6.42 1.55 2.54 2.82 5.35 2.82 6.25s.46 1.64 1.03 1.64 1.32.79 1.67 1.75 1.91 3.39 3.47 5.39c1.55 2.01 2.83 4.26 2.84 5 0 .75.61 2.48 1.34 3.86.74 1.38 2.4 4.52 3.68 7 1.29 2.48 4.28 7.51 6.65 11.2 2.38 3.68 4.32 6.95 4.32 7.26s1.47 2.69 3.27 5.3c1.79 2.61 4.15 6.45 5.25 8.54 1.09 2.09 3.22 4.99 4.73 6.44 1.75 1.67 2.75 3.68 2.75 5.5 0 1.91 1.15 4.05 3.5 6.46 1.92 1.99 3.5 4.41 3.5 5.39 0 .99.45 2.07 1 2.41s1 1.46 1 2.49.57 2.46 1.26 3.19c1.87 1.96 4.92 6.79 7.14 11.32 1.08 2.2 3.23 5.64 4.78 7.64 1.55 2.01 2.82 4.34 2.82 5.18s1.75 3.02 3.89 4.85c2.6 2.23 4.31 4.81 5.2 7.83 1.1 3.78 3.91 9 5.91 11 .28.27 1.55 2.52 2.84 5 1.28 2.48 3.61 6.75 5.19 9.5 1.57 2.75 2.88 5.63 2.91 6.39.03.77 1.32 2.6 2.87 4.08 1.54 1.47 3.84 4.67 5.11 7.11 1.26 2.43 2.64 4.65 3.05 4.92.42.27 1.97 2.98 3.44 6 3.25 6.68 4.3 8.44 7.84 13.14 1.51 2.01 2.75 4.53 2.75 5.6 0 1.08.89 3.04 1.98 4.36 3.34 4.04 3.51 4.29 5.8 8.02 1.22 1.99 2.22 4.31 2.22 5.16 0 .86.34 1.7.75 1.89.98.43 5.25 6.53 5.25 7.49 0 .4 1.97 3.68 4.37 7.29 2.41 3.6 4.72 7.67 5.14 9.05.41 1.38 2.05 4.14 3.62 6.14 1.58 2.01 2.87 4.04 2.87 4.51 0 .48.9 1.43 2 2.12 1.13.7 2 2.33 2 3.74 0 1.37.34 2.49.76 2.49.81 0 1.02.36 5.7 9.63 1.63 3.23 4.22 7.51 5.75 9.51 1.53 2.01 2.79 4.23 2.79 4.93 0 1.38 7 12.21 8.25 12.76.41.19.75 1.13.75 2.1s.88 2.78 1.97 4.03c1.08 1.25 2.92 4.13 4.09 6.4 2.56 4.99 3.65 6.86 7.21 12.37 1.5 2.33 2.73 4.83 2.73 5.56 0 .74 1.39 2.66 3.09 4.27 3.54 3.37 6.91 9.41 6.91 12.4 0 1.12.38 2.04.85 2.04 1.85 0 4.92 3.68 5.58 6.68.38 1.75 1.34 3.72 2.13 4.37.79.66 1.44 1.58 1.44 2.06 0 .47 1.35 3.05 3 5.74 1.65 2.68 3 5.43 3 6.12 0 .68 1.3 2.88 2.89 4.89 1.58 2 3.92 5.66 5.18 8.14 1.27 2.48 3.37 5.6 4.68 6.95s2.63 3.7 2.94 5.23c.3 1.53 1.17 3.29 1.93 3.92s1.38 1.52 1.38 1.97c0 .46 1.35 2.83 3 5.27 1.65 2.45 3 5.11 3 5.92s1.35 2.99 3.01 4.85c1.66 1.87 3.28 4.4 3.61 5.64s.95 2.25 1.38 2.25 1.08 1.2 1.45 2.67 1.55 3.78 2.61 5.14c2.22 2.81 2.48 5.25.74 6.99-.88.88-9.54 1.2-32.75 1.19-28.88 0-31.78-.16-34.32-1.83-2.8-1.85-6.71-8.28-6.76-11.12-.01-.85-1.38-2.87-3.03-4.49s-3.28-4.09-3.62-5.5c-.34-1.4-2.08-4.8-3.87-7.55s-4.7-7.7-6.46-11c-1.77-3.3-3.8-6.34-4.52-6.75-.72-.42-2.08-2.77-3.01-5.23-.94-2.46-2.55-4.73-3.59-5.06-1.75-.56-13.87-23.54-13.87-26.31 0-.63-.46-1.15-1.02-1.15-.57 0-1.49-1.01-2.05-2.25-1.54-3.4-3.57-6.79-4.81-8.03-.62-.62-1.12-1.74-1.12-2.5 0-.75-1.35-2.72-3-4.37s-3-3.7-3-4.56c0-1.79-3.1-7.17-7.18-12.43-1.55-2.01-2.82-4.33-2.82-5.15 0-.83-1.99-4.16-4.43-7.4-2.43-3.24-4.73-7.1-5.1-8.56-.37-1.47-1.3-3.19-2.07-3.83s-1.4-1.58-1.4-2.08c0-.9-3.88-6.84-5.12-7.84-1.13-.91-6.88-12.26-6.88-13.57 0-.71-.57-1.88-1.27-2.61-2.54-2.63-8.73-12.7-8.73-14.18 0-.84-.49-1.83-1.1-2.2-.6-.37-2.35-2.65-3.87-5.06l-2.78-4.38-.62 3.1c-.34 1.71-.4 3.47-.13 3.91.28.44.42 46.18.32 101.64-.18 103.25-.16 112.86-.73 112.89-.06.01-.12-.09-.19-.2-.05-.07-.1-.14-.15-.19-.42-.42-.64-50.68-.5-111.7.21-95.32.45-110.95 1.68-110.95.78 0 3.79 4.05 6.69 9 2.89 4.95 5.9 9.91 6.69 11.02s3.8 6.29 6.67 11.5c2.88 5.21 5.81 10.15 6.51 10.98s3.75 5.77 6.77 11c6.5 11.23 11.39 19.49 15.93 26.89 1.82 2.96 4.43 7.33 5.81 9.71s5.48 9.4 9.12 15.61 9.17 15.79 12.29 21.29 7.66 13.15 10.08 17c2.43 3.85 5.62 9.02 7.1 11.5 1.47 2.47 4.15 6.79 5.94 9.58 1.8 2.79 4.46 7.29 5.92 10 4.32 7.98 8.93 16 10.67 18.55l1.62 2.37 30.34.31c16.69.16 31.37.04 32.63-.27 1.26-.32 2.29-1.26 2.29-2.09 0-1.6-5.98-12.59-10.38-19.05-1.44-2.13-2.62-4.25-2.62-4.71 0-.47-1.53-3.18-3.41-6.02-1.87-2.84-4.7-7.42-6.28-10.17-4.06-7.1-6.35-10.95-10-16.84-1.75-2.84-4.17-6.96-5.36-9.16s-4.93-8.63-8.31-14.28-6.76-11.5-7.53-13c-.76-1.5-3.34-5.71-5.75-9.35-2.4-3.65-4.36-6.87-4.36-7.16s-5.06-8.92-11.25-19.18-11.95-19.92-12.81-21.47-3.45-5.99-5.75-9.86c-2.31-3.88-4.19-7.35-4.19-7.72s-.85-1.87-1.88-3.33c-1.77-2.48-2.97-4.53-8.22-13.9-1.15-2.06-2.9-4.65-3.88-5.75-.99-1.1-2.13-3.12-2.54-4.5-.42-1.38-1.98-4.3-3.49-6.5-3.55-5.2-14.99-24.37-14.99-25.13 0-.32-1.29-2.22-2.87-4.23-1.57-2-3.21-4.76-3.62-6.14-.42-1.38-2.73-5.45-5.14-9.05-2.4-3.61-4.37-6.88-4.37-7.28 0-.39-3.26-5.92-7.25-12.28-3.99-6.35-8.96-14.77-11.05-18.7s-4.45-7.86-5.25-8.75c-.8-.88-1.45-1.93-1.45-2.33 0-.84-12.57-22.2-14.1-23.95-.95-1.09-17.79-29.59-26.69-45.16-.94-1.65-4.63-7.84-8.21-13.77-3.58-5.92-7.85-13.17-9.5-16.11s-3.58-6.04-4.29-6.88c-1.21-1.44-6.68-11.11-13.44-23.74-1.62-3.03-3.52-6.18-4.22-7s-2.99-4.81-5.09-8.85-4.42-7.58-5.17-7.87c-1.78-.68-5.21 3.42-9.28 11.05-1.8 3.39-4.57 7.95-6.14 10.12-1.58 2.17-2.87 4.28-2.87 4.69 0 .42-1.67 3.59-3.71 7.06-2.04 3.46-4.63 7.99-5.75 10.05-4.36 8.02-9.98 17.39-12.14 20.25-1.24 1.66-2.75 4.13-3.34 5.5-.6 1.38-2.84 5.2-5 8.5s-3.95 6.59-3.99 7.32c-.04.72-1.14 2.75-2.45 4.5s-3.9 5.94-5.75 9.32c-6.96 12.68-13.33 23.34-21.41 35.86-1.77 2.75-4.58 7.48-6.24 10.5s-4.85 8.65-7.1 12.5c-2.24 3.85-5.24 9.35-6.66 12.23-1.43 2.88-2.97 5.46-3.43 5.75-.95.59-17.79 28.26-23.03 37.85-4.14 7.57-8.11 14.29-12.52 21.17-1.77 2.75-3.9 6.35-4.74 8-.85 1.65-3.04 5.34-4.89 8.2-6.11 9.48-15.96 25.99-21.05 35.3-1.65 3.02-4.65 8.26-6.65 11.63-2.01 3.37-5 8.47-6.65 11.32s-4.62 7.75-6.6 10.87-5.77 9.51-8.42 14.18c-4.71 8.33-8.59 15.01-10.44 18-3.07 4.97-16.02 26.82-18.54 31.29-1.65 2.93-3.95 6.65-5.12 8.26-1.17 1.62-3.32 5.2-4.78 7.95s-3.53 6.35-4.6 8-3.11 5.03-4.52 7.5c-2.38 4.14-6.42 11.02-13.89 23.6-1.6 2.69-4.34 7.15-6.09 9.9s-4.25 7.03-5.56 9.5-2.9 5.17-3.54 6c-.63.83-2.81 4.59-4.83 8.38-2.02 3.78-4.33 7.52-5.12 8.32-.8.79-1.45 1.9-1.45 2.45 0 .56-1.53 3.34-3.4 6.18-5.27 8.01-14.6 23.66-14.6 24.48 0 .4-1.5 3.01-3.32 5.78-3.69 5.6-7.68 13.46-7.68 15.12 0 .59.71 1.35 1.58 1.68.87.34 15.19.61 31.81.61 22.7 0 30.61-.31 31.75-1.25 1.6-1.32 7.3-9.85 10.52-15.75 1.05-1.92 3.05-5.3 4.45-7.5 1.39-2.2 2.85-4.67 3.23-5.5s1.74-3.3 3.02-5.5 4.27-7.38 6.63-11.5 5.36-8.77 6.65-10.33c1.3-1.55 2.36-3.32 2.36-3.93 0-1.15 9.82-17.97 13.57-23.24 1.17-1.65 2.38-3.7 2.68-4.56s4.64-8.4 9.65-16.77c5-8.36 9.1-15.46 9.1-15.79 0-.32 1.84-3.42 4.09-6.9 2.24-3.47 4.83-7.71 5.75-9.42.91-1.71 4.92-8.42 8.91-14.91S348 474 348 473.57s1.29-2.42 2.87-4.43c1.58-2 4.05-5.89 5.5-8.64 3.22-6.12 7.9-14.3 12.88-22.48 2.06-3.39 3.75-6.54 3.75-7s1.91-3.79 4.25-7.4c2.34-3.62 5.6-8.88 7.25-11.69 1.65-2.82 4.06-6.43 5.34-8.03 1.29-1.6 4.06-6.22 6.16-10.27 2.09-4.05 4.94-9.16 6.33-11.36 2.45-3.88 5.92-9.96 11.02-19.27 1.35-2.48 4.3-7.2 6.55-10.5s4.1-6.42 4.1-6.94c0-.51.85-1.86 1.89-3 1.03-1.13 3.36-4.98 5.16-8.56s3.82-7.17 4.49-8c.66-.83 2.43-3.75 3.93-6.5 1.51-2.75 3.85-6.8 5.2-9 5.08-8.23 16.38-27.23 19.93-33.5 2.02-3.58 4.67-8.08 5.89-10s5.15-8.67 8.73-15c13.86-24.46 20.54-35.01 22.15-34.98.62.02 4.73 6.18 9.13 13.7s8.99 15.16 10.21 16.96c1.21 1.81 3.28 5.21 4.59 7.55 1.32 2.35 5.01 8.77 8.22 14.27 3.2 5.5 7.43 12.78 9.4 16.17 9.79 16.88 11.77 20.2 14.8 24.81 1.81 2.73 3.28 5.36 3.28 5.83s1.49 3.18 3.31 6.02c7.24 11.3 9.77 16.03 9.27 17.32-.42 1.1-7.96 1.35-41.4 1.35-25.09 0-42 .39-43.78 1.02-2.92 1.02-3.48 1.78-10.6 14.48-2.15 3.85-4.78 8.35-5.83 10-1.06 1.65-3.11 5.25-4.57 8s-3.61 6.35-4.78 7.99c-3.01 4.25-8.46 13.31-10.82 18.01-1.1 2.2-3.49 6.25-5.31 9-3.33 5.03-6.61 10.61-10.59 18-1.19 2.2-7.39 12.7-13.78 23.34-6.39 10.63-12.29 20.53-13.12 21.99-.83 1.45-3.41 5.66-5.75 9.35s-4.25 7.1-4.25 7.57-1.28 2.63-2.85 4.8-4.56 7.09-6.64 10.93c-2.09 3.84-6.66 11.8-10.15 17.69-3.5 5.89-6.36 11.03-6.36 11.42 0 .4-1.03 2.11-2.29 3.82-2.16 2.9-9.38 14.52-12.7 20.43-.83 1.46-3.41 5.85-5.75 9.74-2.34 3.9-4.26 7.41-4.26 7.81s-1.58 2.79-3.5 5.31-3.5 4.98-3.5 5.46-2.02 4.21-4.5 8.29c-2.48 4.07-4.5 7.64-4.5 7.93s-1.3 2.45-2.89 4.82c-1.59 2.36-3.95 6.33-5.23 8.8s-4.28 7.35-6.66 10.84c-2.58 3.77-4.21 7.22-4.03 8.5l.31 2.16 203 1 .5 96c.5 95.05.52 96 2.5 96.29 1.55.22 2.55-.91 4.43-5 1.34-2.91 2.97-5.96 3.62-6.79.66-.83 2.66-4.2 4.45-7.5s4.35-7.8 5.69-10 4.93-8.28 7.98-13.5 6.58-11.08 7.84-13c1.27-1.92 3.65-6.07 5.3-9.21s3.87-6.97 4.93-8.5c1.07-1.53 3.02-4.82 4.35-7.29s3.65-6.26 5.16-8.4c1.51-2.15 2.75-4.37 2.75-4.95 0-.57 1.24-2.83 2.75-5.01l2.75-3.97.5-44.58.5-44.59 25.17-.5c13.84-.28 25.35-.72 25.57-1 1.79-2.21 5.13-7.56 7.82-12.54 1.77-3.28 5.18-9.15 7.58-13.04 2.4-3.9 4.36-7.37 4.36-7.7 0-.34 1.29-2.55 2.86-4.92 3.87-5.8 9.14-15.45 9.14-16.72 0-.67-6.87-1.14-19.25-1.33l-19.25-.3 19.75-.22L666 581v2.88c0 1.58-.67 3.44-1.5 4.12s-1.5 2.03-1.5 3-.67 2.32-1.5 3-1.5 1.77-1.5 2.41-1.33 2.72-2.96 4.63c-1.63 1.9-2.99 3.91-3.03 4.46-.14 1.84-3.48 8.03-6.35 11.74-3.1 4.02-6.66 10.57-6.66 12.25 0 .59-.9 1.84-2 2.78s-2 2.38-2 3.2c0 .81-1.08 2.19-2.41 3.06-2.02 1.32-6.1 1.58-25.04 1.57-12.45 0-23.3.25-24.1.56-1.24.47-1.45 6.88-1.45 43.81 0 43.21 0 43.26-2.23 46.15-1.22 1.58-2.8 3.47-3.5 4.2s-1.27 2.3-1.27 3.5c-.01 1.2-1.13 3.53-2.49 5.18s-3.81 5.76-5.44 9.14-4.11 7.38-5.52 8.9c-1.4 1.51-2.55 3.53-2.55 4.48 0 .96-.67 2.3-1.5 2.98s-1.5 2.11-1.5 3.17-1.22 3.14-2.71 4.63c-1.49 1.48-3.79 4.73-5.1 7.2-1.32 2.47-2.69 4.72-3.04 5-.36.28-2.15 3.51-3.99 7.18s-4.2 7.45-5.25 8.4-1.91 2.53-1.91 3.52c0 2.18-3.85 8.9-5.1 8.9-.49 0-.9.69-.9 1.53s-.68 1.79-1.51 2.11c-.82.32-1.78 2.35-2.13 4.51-.36 2.24-1.81 5.19-3.4 6.89m86.54 88.78c-27.5.09-51.15.4-52.55.7s-2.8.3-3.1 0c-.3-.31-11.86-.9-25.68-1.32-15.43-.47-25.55-1.18-26.2-1.83-1.13-1.13.61-6.37 2.12-6.37.42 0 2.11-2.81 3.74-6.25 1.64-3.44 3.94-7.26 5.11-8.5 2.5-2.64 4.09-3.07 1.84-.5-.85.96-3.2 4.98-5.22 8.94-2.03 3.95-4.07 7.33-4.53 7.5-.47.17-1 1.21-1.19 2.31-.32 1.9.42 2.04 15.16 2.77 8.53.43 116.17.66 239.2.5 170.89-.21 223.98-.55 224.89-1.46s.73-2.05-.79-5c-2.77-5.36-16.56-28.94-19.96-34.14-3.77-5.76-4.51-6.97-7.16-11.67-1.23-2.2-4.47-7.6-7.19-12-2.71-4.4-6.1-10.25-7.52-13-1.43-2.75-3.45-6.35-4.5-8-1.06-1.65-3.11-5.25-4.57-8-1.47-2.75-2.98-5.22-3.37-5.5-.38-.28-2.08-2.97-3.77-6-2.85-5.09-28.08-47.61-30.27-51-.53-.83-1.7-2.85-2.6-4.5-.75-1.38-1.09-2.47-1.74-3.33-2.41-3.21-9.1-3.21-57.55-3.18-5.21.01-10.91.01-17.13.01-60.25 0-71.91.22-72.89 1.4-.84 1.02-1.03 8.68-.69 28.1.26 14.68.76 26.99 1.12 27.35s25.84.87 56.61 1.15l55.96.5 2.81 5c1.54 2.75 5.01 8.75 7.71 13.33 2.69 4.58 5.57 9.53 6.4 11 .82 1.47 3.41 5.65 5.74 9.29s4.35 7.69 4.5 9l.26 2.38H744.01c-81.67 0-115.62-.06-129.5-.49l131.01-.02c133.37-.01 135.48-.04 135.48-1.95 0-1.06-1.11-3.13-2.46-4.59-2.31-2.5-6.54-10.16-6.54-11.85 0-.42-1.58-2.69-3.5-5.03-1.92-2.35-3.5-4.83-3.5-5.5s-1.95-4.24-4.34-7.92c-2.38-3.69-4.64-7.93-5.01-9.43l-.69-2.72h-56.32c-53.55 0-56.41-.09-58-1.85-1.48-1.63-1.68-5.02-1.71-28.67-.03-25.16.09-26.94 1.89-28.75 1.87-1.86 4.19-1.92 73.58-1.92h8.19c58.36-.01 66.41-.01 68.29 3.4.38.7.51 1.54.76 2.55.36 1.51 1.68 3.97 2.93 5.47 1.24 1.5 3.43 5.19 4.85 8.19 1.42 3.01 3.03 5.74 3.58 6.08s2.16 2.95 3.58 5.81c2.92 5.86 3.83 7.43 7.69 13.42 1.5 2.33 2.73 4.62 2.73 5.1 0 .47.89 1.95 1.98 3.27s2.34 2.85 2.78 3.4 2.07 3.44 3.62 6.42 3.34 6 3.97 6.72c3.12 3.5 3.65 4.43 3.65 6.35 0 1.14.73 2.35 1.61 2.69.89.34 3.21 4.04 5.16 8.22s4.57 8.95 5.82 10.6c1.25 1.66 2.77 4.13 3.38 5.5 1.2 2.69 2.08 4.19 6.3 10.73 1.5 2.33 2.73 4.62 2.73 5.1s2.25 3.84 5 7.48c2.75 3.63 5 7.12 5 7.76 0 .63 2.25 4.88 5 9.43s5 8.56 5 8.9 1.35 2.48 3 4.76 3 4.95 3 5.93c0 .99.45 2.07 1 2.41 1.76 1.09 1.08 2.52-1.75 3.68-2.64 1.08-88.38 1.57-266.25 1.51-31.62-.01-80 .05-107.5.13m.49-61.01c-3.77-.23-4.7-.52-4.77-.92-.17-.89.65-3.14 1.82-5 9.07-14.37 10.95-17.47 10.95-18.07.01-1.09 13.99-24.14 21.63-35.69 1.72-2.59 4.07-6.57 5.23-8.84s3.47-6.14 5.13-8.6c1.66-2.47 3.02-4.81 3.02-5.21s2.03-4.06 4.5-8.14 4.5-7.58 4.5-7.79 1.58-2.77 3.5-5.69 3.5-5.69 3.5-6.14 1.95-3.84 4.34-7.52c3.72-5.75 6.4-10.08 10.64-17.2 12.97-21.81 19.02-32.26 19.02-32.83 0-.39 1.46-2.97 3.25-5.73 1.79-2.75 4.35-7.02 5.69-9.48 1.34-2.45 3.71-6.22 5.25-8.36 1.55-2.15 2.81-4.33 2.81-4.86 0-.52 1.24-2.82 2.75-5.09 1.51-2.28 3.65-5.95 4.75-8.15s3.28-5.69 4.83-7.75l2.84-3.75h8.26c6.73 0 8.57.34 9.92 1.83.91 1 1.65 2.14 1.65 2.52s1.22 2.59 2.72 4.92c1.49 2.33 3.57 5.81 4.62 7.73s5.11 8.86 9.03 15.4c3.92 6.55 8.48 14.3 10.13 17.24 7.12 12.66 18.43 31.35 20.33 33.61 1.35 1.6 4.25 1.75 33.82 1.75 26.82 0 32.35-.24 32.35-1.38 0-1.55-8.46-17.27-10.61-19.7-.76-.87-1.39-2.04-1.39-2.61s-1.03-2.56-2.3-4.42c-1.26-1.86-3.38-5.42-4.71-7.89-3.31-6.2-15.2-26.27-16.28-27.5-.48-.55-2.08-3.15-3.54-5.78-1.47-2.62-7.51-12.85-13.42-22.72S805 613.84 805 613.59c0-.26-3.04-5.48-6.75-11.59s-7.5-12.57-8.42-14.36-2.3-3.79-3.08-4.44c-1.01-.83-10.83-1.25-33.84-1.45l-32.41-.28 33.13-.23c1.61-.02 3.15-.03 4.62-.04 23.69-.17 28.29-.21 30.45 2.07.66.68 1.09 1.58 1.76 2.75.57 1 2.62 4.36 4.54 7.48s3.96 6.42 4.52 7.34c.56.91 2.25 3.56 3.75 5.89s2.73 4.89 2.73 5.7 1.3 3.4 2.89 5.77c1.59 2.36 3.93 6.33 5.2 8.8s2.55 4.72 2.86 5c1.41 1.28 4.84 6.77 5.48 8.77.39 1.23 1.12 2.23 1.64 2.23.51 0 .93.88.93 1.95s.63 2.31 1.4 2.75c.76.44 2.42 2.83 3.68 5.3 1.25 2.47 3.55 6.14 5.1 8.14 1.55 2.01 2.82 4.1 2.82 4.65s.67 1.26 1.5 1.57c.83.32 1.5 1.47 1.5 2.56 0 1.1 1.1 3.61 2.45 5.6 1.34 1.98 3.85 6.5 5.58 10.04 1.72 3.54 3.55 6.44 4.05 6.44.51 0 .92.62.92 1.38s.67 1.94 1.5 2.62 1.5 1.84 1.5 2.57 1.28 3.26 2.85 5.63c1.56 2.36 3.65 5.88 4.64 7.8s2.18 4.17 2.66 5c2.76 4.78 3.16 6.09 2.16 7.09-1.17 1.17-64.62 1.58-68.22.44-1.34-.43-2.4-1.81-2.76-3.61-.32-1.61-.97-2.92-1.45-2.92-.49 0-.88-.83-.88-1.84 0-1.02-1.17-3.16-2.59-4.75-1.43-1.6-3.22-4.34-3.99-6.09-.76-1.75-1.85-3.47-2.4-3.81-.56-.35-1.02-1.3-1.02-2.13 0-.82-1.3-3.16-2.9-5.19-1.59-2.03-3.22-4.77-3.62-6.1-.39-1.32-2.69-5.08-5.1-8.36-2.41-3.27-4.38-6.52-4.38-7.22 0-.69-.7-1.84-1.55-2.55-1.6-1.33-5.45-9.03-5.45-10.91 0-.58-.42-1.05-.93-1.05-.52 0-1.25-.98-1.63-2.18s-1.98-3.97-3.56-6.15c-1.59-2.18-2.88-4.53-2.88-5.21 0-2.31-4.82-4.46-10.01-4.46-7.82 0-12.99 3.4-14.43 9.5-.4 1.65-1.73 4.35-2.97 6-2.96 3.96-5.59 9.38-5.59 11.55 0 .96-1.46 3.05-3.25 4.66-1.79 1.6-4.14 4.68-5.23 6.85-2.12 4.23-5.24 9.05-7.27 11.23-.69.75-1.25 2.25-1.25 3.34s-2.14 5.27-4.75 9.29c-7.79 12-10.67 16.98-10.82 18.76-.08.93-.78 2.33-1.54 3.13-.76.79-2.06 2.45-2.89 3.68s-2.29 3.27-3.25 4.53-1.75 2.72-1.75 3.24-1.37 2.83-3.03 5.13c-1.67 2.3-4.66 7.19-6.64 10.85-1.98 3.67-4.21 7.29-4.96 8.04-.76.75-1.37 2.41-1.37 3.68 0 1.28-.67 2.59-1.5 2.9-.83.32-1.5 1.06-1.5 1.65 0 1.19-4.09 7.3-5.22 7.81-.39.18-1 1.84-1.35 3.68-.34 1.85-1.93 4.82-3.53 6.61-1.59 1.79-2.9 3.63-2.9 4.09s-1.23 2.74-2.73 5.07-3.19 4.99-3.75 5.91c-.56.93-2.33 3.86-3.93 6.5-1.61 2.65-3.24 5.04-3.64 5.32-.39.28-2.17 3.2-3.95 6.5s-4.08 7.19-5.12 8.65c-1.03 1.46-1.88 3.1-1.88 3.63 0 .54-.65 1.51-1.44 2.17-.79.65-1.71 2.45-2.05 4-.34 1.54-1.94 4.29-3.56 6.11-1.62 1.81-2.95 3.91-2.95 4.66 0 .74-.72 2.46-1.61 3.81-1.01 1.53-1.37 3.4-.98 4.97Zm-94.57-278.42c-2.21.85-11.68.73-13.08-.16-.63-.4 2.07-.73 6-.73h7.16l.24-82.5c.13-45.38.01-83.12-.26-83.87-.67-1.81-3.18 1.56-6.77 9.06-1.49 3.13-3.16 5.97-3.71 6.31s-1 1.6-1.01 2.81c-.01 3.84-2.04 9.69-3.36 9.69-2.05 0-5.63 4.42-5.63 6.94 0 1.28-1.6 4.17-3.55 6.44-5.64 6.54-5.86 6.86-7.65 10.83-.93 2.07-3.29 5.86-5.25 8.42-1.95 2.56-3.55 5.28-3.55 6.05 0 1.28-2.69 6.17-4.04 7.32-1.15.99-7.96 15.19-7.96 16.61 0 .8-.58 1.67-1.28 1.95-.71.27-2.39 2.5-3.73 4.96-1.35 2.47-2.8 4.48-3.22 4.48s-.77.61-.77 1.35c0 .73-.9 2.15-2 3.15s-2 2.84-2 4.11c0 3.24-2.07 7.39-3.69 7.39-.75 0-1.82 1.01-2.38 2.25-1.69 3.74-6.57 11.37-8.67 13.57-.69.73-1.26 1.87-1.26 2.54 0 1.95-3.81 8.92-6.36 11.65-1.29 1.38-2.7 3.63-3.12 5-.43 1.37-2.07 4.27-3.65 6.44-3.31 4.55-3.58 6.22-1.12 6.86 1.08.28.69.5-1 .57-1.52.07-2.75-.41-2.75-1.07 0-1.25 6.4-12.51 10.98-19.31 1.48-2.2 3.36-5.35 4.17-7 2.32-4.74 13.12-22.95 13.95-23.51.41-.28 1.96-2.98 3.45-6s3.78-6.92 5.08-8.67 2.37-3.42 2.37-3.71 1.41-2.9 3.13-5.82c1.73-2.91 4.48-7.77 6.12-10.79 2.37-4.36 11.59-20.02 24.76-42 7.58-12.66 14.03-23.95 17.14-30 4.72-9.19 7.22-12.51 8.71-11.58.84.51 1.14 23.1 1.14 85.03 0 75.98-.16 84.4-1.58 84.94m99.74 145.81a2571 2571 0 0 0-8 12.25c-5.1 7.87-6.82 9.12-3.39 2.48 2.97-5.75 8.48-13.93 9.38-13.93.47 0 .85-.64.85-1.43 0-.78.56-2.02 1.25-2.75s2.33-3.57 3.66-6.32 3.69-6.64 5.25-8.64c1.56-2.01 2.84-4.42 2.84-5.36s1.35-3.42 3-5.5 3-4.23 3-4.77.63-1.51 1.4-2.15 1.71-2.38 2.08-3.86c.37-1.49 1.04-2.93 1.48-3.21 1.17-.74 7.04-11.83 7.04-13.29 0-.67 1.3-2.45 2.88-3.95 1.59-1.49 3.75-4.42 4.82-6.49 1.06-2.08 3.59-6.8 5.61-10.49 2.03-3.69 3.69-7.31 3.69-8.06 0-.74 1.33-2.71 2.96-4.38 1.63-1.66 4.12-5.33 5.53-8.15 1.42-2.82 3.69-6.45 5.04-8.06 1.36-1.61 2.47-3.91 2.47-5.12 0-1.2 1.98-4.74 4.39-7.85 2.42-3.12 4.7-6.68 5.07-7.92s.99-2.25 1.38-2.25 1.78-2.14 3.09-4.75 3.19-6.33 4.17-8.25l1.79-3.5 7.3-.08c6.87-.08 6.93-.06 1.04.3-6.08.37-6.34.5-8.81 4.4-1.4 2.22-2.81 4.79-3.15 5.71-.33.92-1.88 3.55-3.44 5.85s-2.83 4.41-2.83 4.7-1.3 2.45-2.89 4.82c-1.59 2.36-3.93 6.33-5.19 8.8-1.27 2.47-3.28 5.85-4.47 7.5s-3.24 5.01-4.56 7.46c-1.31 2.46-3.85 6.73-5.64 9.48-1.79 2.76-3.25 5.35-3.25 5.75 0 .41-2.03 4.07-4.5 8.15s-4.5 7.74-4.5 8.14-1.27 2.37-2.83 4.38c-2.57 3.3-5.43 8.13-11.63 19.64-1.19 2.2-3.31 5.81-4.71 8.02-1.41 2.21-3.9 6.48-5.53 9.5a422 422 0 0 1-6.64 11.65c-2.01 3.39-3.66 6.41-3.66 6.7s-1.28 2.46-2.84 4.83m-92.04 155c-1.59 2.36-3.84 6.09-5 8.29-1.62 3.04-2.12 3.47-2.12 1.81 0-3.56 1.6-6.72 5.41-10.64 1.97-2.03 3.59-3.98 3.59-4.32 0-1.28 4.38-9.34 5.08-9.34.4 0 1.21-1.24 1.81-2.75 1.12-2.86 1.82-4.08 6.11-10.75 1.42-2.2 3.83-6.61 5.35-9.81s3.72-6.76 4.89-7.93 2.18-2.86 2.24-3.76c.19-2.51 3.64-9.4 5.16-10.3.75-.44 1.36-1.4 1.36-2.14s.67-1.61 1.5-1.92c.83-.32 1.5-1.29 1.5-2.17 0-.87 1.58-3.65 3.5-6.17s3.5-5.2 3.5-5.94c0-.75.34-1.36.75-1.36.42 0 1.81-1.99 3.1-4.43 1.3-2.44 2.98-4.68 3.75-4.97.77-.3 1.4-1.49 1.4-2.66 0-2.05 3.59-8.08 5.21-8.77.44-.19.79-.95.79-1.7 0-2.06 4.73-10.62 7.53-13.63 1.36-1.46 2.47-3.55 2.47-4.63s.67-2.53 1.5-3.21 1.5-1.83 1.5-2.55 1.58-2.98 3.5-5.02c4.01-4.25 4.61-3.79 1.14.89-1.29 1.75-3.41 5.21-4.71 7.68s-2.9 5.17-3.54 6c-1.05 1.33-5.15 8.47-13.3 23.16-4.22 7.61-11.25 19.06-14.27 23.24-1.55 2.15-2.82 4.26-2.82 4.7s-1.29 2.73-2.87 5.1c-1.58 2.36-4.44 7.22-6.36 10.8-1.93 3.58-4.91 8.88-6.63 11.79-1.73 2.92-3.14 5.58-3.14 5.93s-1.5 2.92-3.34 5.71c-4.05 6.14-12.66 20.46-12.66 21.05 0 .23-1.3 2.35-2.88 4.72"/><path fill="none" d="M0 0h1024v1024H0Zm522.96 832.04c1.59-1.7 3.04-4.65 3.4-6.89.35-2.16 1.31-4.19 2.13-4.51.83-.32 1.51-1.27 1.51-2.11s.41-1.53.9-1.53c1.25 0 5.1-6.72 5.1-8.9 0-.99.86-2.57 1.91-3.52s3.41-4.73 5.25-8.4 3.63-6.9 3.99-7.18c.35-.28 1.72-2.53 3.04-5 1.31-2.47 3.61-5.72 5.1-7.2 1.49-1.49 2.71-3.57 2.71-4.63s.67-2.49 1.5-3.17 1.5-2.02 1.5-2.98c0-.95 1.15-2.97 2.55-4.48 1.41-1.52 3.89-5.52 5.52-8.9s4.08-7.49 5.44-9.14 2.48-3.98 2.49-5.18c0-1.2.57-2.77 1.27-3.5s2.28-2.62 3.5-4.2c2.23-2.89 2.23-2.94 2.23-46.15 0-36.93.21-43.34 1.45-43.81.8-.31 11.65-.56 24.1-.56 18.94.01 23.02-.25 25.04-1.57 1.33-.87 2.41-2.25 2.41-3.06 0-.82.9-2.26 2-3.2s2-2.19 2-2.78c0-1.68 3.56-8.23 6.66-12.25 2.87-3.71 6.21-9.9 6.35-11.74.04-.55 1.4-2.56 3.03-4.46 1.63-1.91 2.96-3.99 2.96-4.63s.67-1.73 1.5-2.41 1.5-2.03 1.5-3 .67-2.32 1.5-3 1.5-2.54 1.5-4.12V581l-19.75.23-19.75.22 19.25.3c5.88.09 10.52.24 13.77.45-7.04-.21-20.33-.42-35.37-.52-24.39-.16-39.24-.59-40.99-1.2.5-.92.49-13.8.66-112.83.1-55.46-.04-101.2-.32-101.64-.27-.44-.21-2.2.13-3.91l.62-3.1 2.78 4.38c1.52 2.41 3.27 4.69 3.87 5.06.61.37 1.1 1.36 1.1 2.2 0 1.48 6.19 11.55 8.73 14.18.7.73 1.27 1.9 1.27 2.61 0 1.31 5.75 12.66 6.88 13.57 1.24 1 5.12 6.94 5.12 7.84 0 .5.63 1.44 1.4 2.08s1.7 2.36 2.07 3.83c.37 1.46 2.67 5.32 5.1 8.56 2.44 3.24 4.43 6.57 4.43 7.4 0 .82 1.27 3.14 2.82 5.15 4.08 5.26 7.18 10.64 7.18 12.43 0 .86 1.35 2.91 3 4.56s3 3.62 3 4.37c0 .76.5 1.88 1.12 2.5 1.24 1.24 3.27 4.63 4.81 8.03.56 1.24 1.48 2.25 2.05 2.25.56 0 1.02.52 1.02 1.15 0 2.77 12.12 25.75 13.87 26.31 1.04.33 2.65 2.6 3.59 5.06.93 2.46 2.29 4.81 3.01 5.23.72.41 2.75 3.45 4.52 6.75 1.76 3.3 4.67 8.25 6.46 11s3.53 6.15 3.87 7.55c.34 1.41 1.97 3.88 3.62 5.5s3.02 3.64 3.03 4.49c.05 2.84 3.96 9.27 6.76 11.12 2.54 1.67 5.44 1.83 34.32 1.83 23.21.01 31.87-.31 32.75-1.19 1.74-1.74 1.48-4.18-.74-6.99-1.06-1.36-2.24-3.67-2.61-5.14S763.43 540 763 540s-1.05-1.01-1.38-2.25-1.95-3.77-3.61-5.64c-1.66-1.86-3.01-4.04-3.01-4.85s-1.35-3.47-3-5.92c-1.65-2.44-3-4.81-3-5.27 0-.45-.62-1.34-1.38-1.97s-1.63-2.39-1.93-3.92c-.31-1.53-1.63-3.88-2.94-5.23s-3.41-4.47-4.68-6.95c-1.26-2.48-3.6-6.14-5.18-8.14-1.59-2.01-2.89-4.21-2.89-4.89 0-.69-1.35-3.44-3-6.12-1.65-2.69-3-5.27-3-5.74 0-.48-.65-1.4-1.44-2.06-.79-.65-1.75-2.62-2.13-4.37-.66-3-3.73-6.68-5.58-6.68-.47 0-.85-.92-.85-2.04 0-2.99-3.37-9.03-6.91-12.4-1.7-1.61-3.09-3.53-3.09-4.27 0-.73-1.23-3.23-2.73-5.56-3.56-5.51-4.65-7.38-7.21-12.37-1.17-2.27-3.01-5.15-4.09-6.4-1.09-1.25-1.97-3.06-1.97-4.03s-.34-1.91-.75-2.1c-1.25-.55-8.25-11.38-8.25-12.76 0-.7-1.26-2.92-2.79-4.93-1.53-2-4.12-6.28-5.75-9.51-4.68-9.27-4.89-9.63-5.7-9.63-.42 0-.76-1.12-.76-2.49 0-1.41-.87-3.04-2-3.74-1.1-.69-2-1.64-2-2.12 0-.47-1.29-2.5-2.87-4.51-1.57-2-3.21-4.76-3.62-6.14-.42-1.38-2.73-5.45-5.14-9.05-2.4-3.61-4.37-6.89-4.37-7.29 0-.96-4.27-7.06-5.25-7.49-.41-.19-.75-1.03-.75-1.89 0-.85-1-3.17-2.22-5.16-2.29-3.73-2.46-3.98-5.8-8.02-1.09-1.32-1.98-3.28-1.98-4.36 0-1.07-1.24-3.59-2.75-5.6-3.54-4.7-4.59-6.46-7.84-13.14-1.47-3.02-3.02-5.73-3.44-6-.41-.27-1.79-2.49-3.05-4.92-1.27-2.44-3.57-5.64-5.11-7.11-1.55-1.48-2.84-3.31-2.87-4.08-.03-.76-1.34-3.64-2.91-6.39-1.58-2.75-3.91-7.02-5.19-9.5-1.29-2.48-2.56-4.73-2.84-5-2-2-4.81-7.22-5.91-11-.89-3.02-2.6-5.6-5.2-7.83-2.14-1.83-3.89-4.01-3.89-4.85s-1.27-3.17-2.82-5.18c-1.55-2-3.7-5.44-4.78-7.64-2.22-4.53-5.27-9.36-7.14-11.32-.69-.73-1.26-2.16-1.26-3.19s-.45-2.15-1-2.49-1-1.42-1-2.41c0-.98-1.58-3.4-3.5-5.39-2.35-2.41-3.5-4.55-3.5-6.46 0-1.82-1-3.83-2.75-5.5-1.51-1.45-3.64-4.35-4.73-6.44-1.1-2.09-3.46-5.93-5.25-8.54-1.8-2.61-3.27-4.99-3.27-5.3s-1.94-3.58-4.32-7.26c-2.37-3.69-5.36-8.72-6.65-11.2a607 607 0 0 0-3.68-7c-.73-1.38-1.34-3.11-1.34-3.86-.01-.74-1.29-2.99-2.84-5-1.56-2-3.12-4.43-3.47-5.39s-1.1-1.75-1.67-1.75-1.03-.74-1.03-1.64-1.27-3.71-2.82-6.25c-1.54-2.54-3.11-5.42-3.49-6.42-.52-1.39-1.54-1.74-4.43-1.5-3.35.28-3.8.64-4.09 3.31-.19 1.65-.88 3.68-1.55 4.5s-2.1 3.3-3.17 5.5-3.86 6.32-6.2 9.16c-2.51 3.05-4.25 6.19-4.25 7.68 0 1.38-.56 3.11-1.25 3.84-1.31 1.39-5.75 10.05-5.75 11.22 0 .38-.95 1.68-2.12 2.89-1.16 1.22-2.73 3.64-3.48 5.39s-1.83 3.47-2.38 3.81c-.56.35-1.02 1.42-1.02 2.39 0 .98-1.18 2.86-2.63 4.2-1.44 1.33-3.27 3.77-4.06 5.42-2.62 5.49-3.97 7.47-6.65 9.78-1.85 1.59-2.66 3.26-2.66 5.49 0 2.13-1.18 4.76-3.5 7.8-1.92 2.52-3.5 5.22-3.5 6.01 0 .78-.45 1.42-1 1.42s-1 .79-1 1.75c0 .97-1.58 3.97-3.5 6.68s-3.5 5.29-3.5 5.74c0 .44-1.96 3.67-4.35 7.17-2.4 3.5-4.64 7.44-4.98 8.76s-1.98 3.17-3.64 4.1c-2.07 1.17-3.03 2.47-3.03 4.13 0 1.33-.67 2.99-1.5 3.67s-1.5 2.25-1.5 3.47-.85 2.99-1.89 3.93-3.36 4.72-5.16 8.41c-1.8 3.68-3.6 6.92-3.99 7.19-1.05.74-4.96 8.29-4.96 9.58 0 .61-.96 1.97-2.13 3.02-2.56 2.29-8.59 11.27-10.77 16.05-.54 1.19-1.45 2.45-2.04 2.81-.58.36-1.06 1.31-1.06 2.1 0 .8-2.02 4.35-4.5 7.89s-4.5 7.19-4.5 8.11-2.01 4.7-4.47 8.39c-2.46 3.7-4.79 7.59-5.18 8.64-.38 1.05-1.69 3.26-2.91 4.91-1.21 1.65-3.27 5.03-4.57 7.5-1.3 2.48-3.56 6.08-5 8-1.45 1.93-2.97 4.62-3.39 6-.41 1.38-2.11 3.74-3.79 5.25-4.25 3.83-6.68 7.79-6.68 10.89-.01 1.46-.68 2.91-1.51 3.22-.83.32-1.5 1.27-1.5 2.11s-.45 1.53-1 1.53-1 .48-1 1.06c0 2.22-5.07 11.66-7.48 13.92-1.39 1.3-2.52 3.45-2.52 4.78 0 1.32-1.58 4.33-3.5 6.67-1.92 2.35-3.5 4.79-3.5 5.42s-.41 1.15-.92 1.15-1.2 1.29-1.55 2.86c-.34 1.57-1.96 4.13-3.58 5.69-1.62 1.55-2.95 3.58-2.95 4.51s-.67 2.26-1.5 2.94-1.5 2.07-1.5 3.07c0 1.01-.57 2.19-1.27 2.63-1.81 1.14-4.29 5.32-5.1 8.59-.38 1.53-1.97 4.01-3.53 5.5s-3.86 5.19-5.1 8.21-2.54 5.73-2.9 6c-1.65 1.28-8.1 12.37-8.1 13.93 0 .52-1.35 2.42-3 4.23s-3 4.09-3 5.06c0 .98-.79 2.65-1.75 3.71-4.29 4.72-7.25 9.57-7.25 11.85 0 1.01-1.31 2.81-2.91 4-1.61 1.18-3.21 3.49-3.57 5.12s-1.29 3.5-2.08 4.15c-.79.66-1.46 1.93-1.48 2.82-.02.9-1.37 3.19-3 5.09-1.63 1.91-2.96 4.2-2.96 5.11 0 .9-1.49 3.62-3.31 6.04-1.81 2.41-4.13 6.19-5.14 8.39s-3.35 5.69-5.19 7.75c-1.85 2.07-3.36 4.65-3.36 5.75s-.44 2-.98 2-1.28 1.24-1.65 2.75c-.38 1.51-.97 2.97-1.33 3.25-1.36 1.05-5.04 7.81-5.04 9.26 0 .84-.68 1.79-1.5 2.1-.82.32-1.5 1.15-1.5 1.86-.01.7-1.36 2.72-3 4.48-1.68 1.79-3 4.29-3 5.7 0 1.37-.56 2.86-1.25 3.3-1.58 1.01-5.75 6.91-5.75 8.14 0 .5-.68 1.48-1.5 2.16s-1.51 1.98-1.53 2.87c-.01.9-1.31 2.89-2.87 4.42-1.58 1.54-3.1 4.33-3.41 6.22-.3 1.89-1.15 4.13-1.87 4.99-.73.87-1.8 2.12-2.38 2.78-3.14 3.63-7.81 14.31-7.08 16.21.34.9 1.89 1.53 3.86 1.56 18.26.29 62.17-.04 63.53-.48.96-.31 2.83-2.48 4.15-4.82s3.68-5.89 5.25-7.89c1.57-2.01 2.85-4.35 2.85-5.21s1.57-2.82 3.5-4.36c2.44-1.95 3.5-3.6 3.5-5.48 0-1.48.45-2.97 1-3.31s1-1.66 1-2.92c0-1.27 1.35-3.83 2.99-5.69 1.65-1.87 3.28-4.27 3.63-5.34.36-1.08 1.26-2.57 2.01-3.32.75-.76 1.37-2.21 1.37-3.23 0-1.03.83-2.13 1.85-2.45 1.76-.56 4.15-4.43 4.15-6.72 0-1.25 6.81-12.72 8.71-14.65.71-.73 1.29-1.94 1.29-2.7s.67-1.75 1.48-2.21c1.44-.81 7.52-11.74 7.52-13.53 0-.5 1.58-2.83 3.5-5.17 1.92-2.35 3.5-4.99 3.5-5.86 0-.88.48-1.89 1.06-2.25.59-.36 1.49-1.62 2.01-2.81.52-1.18 2.05-3.95 3.4-6.15 1.34-2.2 2.46-4.63 2.49-5.4.03-1.2 6.23-9.66 8.13-11.1.36-.27 1-2.07 1.41-3.98.42-1.91 2.28-5 4.13-6.85s3.37-3.77 3.37-4.25c0-.49 1.8-3.83 4-7.42s4-7.2 4-8.01 1.34-2.67 2.98-4.13c2.99-2.66 6.99-9.72 7.05-12.43.02-.78 1.59-2.98 3.5-4.88 2.31-2.3 3.47-4.39 3.47-6.25 0-1.54.45-2.8 1-2.8s1-.61 1-1.35.81-2.28 1.8-3.42 2.63-3.8 3.65-5.9c2.77-5.76 2.77-5.76 6.8-11.67 2.06-3.02 3.75-6.17 3.75-6.99 0-.83 1.58-3.12 3.5-5.1s3.5-4.27 3.5-5.09c0-.81.79-1.48 1.75-1.49 2.54-.01 5.97-5.69 7.03-11.65.55-3.09 2.1-6.71 3.85-9 1.62-2.11 3.82-5.64 4.9-7.84 1.07-2.2 2.46-4.67 3.09-5.5.62-.83 2.82-4.65 4.88-8.5 2.05-3.85 5.03-8.48 6.62-10.28 1.58-1.81 2.88-4.09 2.88-5.07 0-.97 1.35-2.77 3-3.99s3-3.01 3-3.97.61-2.63 1.35-3.72c.74-1.08 1.64-3.09 1.99-4.47s1.99-4.02 3.65-5.89c1.66-1.86 3.01-4.16 3.01-5.12s.67-2.31 1.5-2.99 1.5-1.69 1.5-2.23 1.35-2.69 3-4.77 3-4.67 3-5.74.9-2.76 2-3.76 2-2.23 2-2.74 1.25-2.81 2.79-5.1c1.53-2.29 3.22-4.87 3.75-5.74s2.65-4.11 4.71-7.2 3.75-6.27 3.75-7.05.65-1.96 1.43-2.62c1.82-1.5 5.57-8.64 5.57-10.58 0-.81.38-1.47.84-1.47s1.36-1.01 2.01-2.25c.64-1.24 2.27-4.05 3.61-6.25 1.35-2.2 2.47-4.69 2.5-5.53.02-.84.83-2.27 1.79-3.18 2.8-2.64 3.71-3.99 6.31-9.29 2.55-5.23 5.49-8.41 7.81-8.47 1.7-.04 8.13 6.87 8.13 8.75 0 .76 1.58 3.31 3.5 5.65 1.92 2.35 3.5 4.6 3.5 5 0 .86 7.1 11.83 8.14 12.58.38.28 1.01 1.86 1.4 3.5.38 1.64 1.99 4.65 3.58 6.68 1.58 2.03 2.88 4.13 2.88 4.66 0 1.94 5.46 11.42 7.2 12.51 1.04.64 1.8 2.31 1.8 3.91 0 1.56.66 3.05 1.5 3.37.83.31 1.5 1.01 1.5 1.55 0 .53 1.51 2.85 3.36 5.14s3.65 5.35 3.99 6.79 2.18 4.82 4.07 7.5c1.9 2.68 4.68 7.24 6.18 10.13s3.04 5.25 3.43 5.25c.38 0 1.45 1.97 2.37 4.38s2.6 5.22 3.74 6.25c2.03 1.83 1.18 1.88-40.93 2.37-48.03.56-45.14.09-48.79 7.84-.95 2.01-2.75 5.01-4 6.66-1.24 1.65-2.58 4.27-2.97 5.83s-1.32 3.07-2.08 3.36c-.75.29-1.37 1.15-1.37 1.93 0 .77-1.35 3.26-3 5.54s-3 4.69-3 5.36c0 .66-.85 2.29-1.89 3.62-2.24 2.84-5.71 8.51-7.01 11.46-.52 1.15-2.32 3.61-4.02 5.47-1.69 1.86-3.08 4.34-3.08 5.52s-1.37 3.66-3.03 5.52c-2.95 3.29-6.97 10.7-6.97 12.84 0 .58-.46 1.05-1.02 1.05-.57 0-1.47 1.01-2 2.25-.54 1.24-1.43 3.04-1.98 4l-2 3.5c-.55.96-1.48 2.87-2.07 4.25-.59 1.37-2.16 3.93-3.5 5.68s-2.43 3.87-2.43 4.69c0 .83-.41 1.76-.91 2.07-.49.31-3.08 4.19-5.75 8.63-6.77 11.28-6.58 10.97-9.61 15.66-1.5 2.33-2.73 4.61-2.73 5.07s-1.38 2.38-3.07 4.27-3.32 4.65-3.62 6.14-1.57 3.38-2.81 4.2c-2.59 1.69-10.5 15.76-10.5 18.67 0 1.05-.34 1.92-.76 1.92-.41 0-1.83 2.36-3.14 5.25s-3.67 6.89-5.24 8.89c-1.57 2.01-2.86 4.2-2.86 4.89 0 1.28-3.66 7.67-5.46 9.54-.57.59-1.94 2.81-3.04 4.94-1.1 2.12-2.58 4.56-3.29 5.43-5.91 7.13-8.21 10.51-8.21 12.03 0 .98-.67 2.35-1.5 3.03s-1.5 1.9-1.5 2.69c0 .8-.67 2.13-1.5 2.95-.83.83-1.5 2.35-1.5 3.38s-2.25 4.08-5 6.79c-3.52 3.47-5 5.71-5 7.59 0 2.33-2.26 7.12-4.06 8.6-.33.28-1.77 2.98-3.19 6.02-1.42 3.03-3.75 6.77-5.17 8.3s-2.58 3.59-2.58 4.58c0 1.61-1.01 3.16-5.22 8.07-2.8 3.25-4.87 8.41-4.59 11.38.3 3.07.48 3.18 7.31 4.32 9.15 1.52 20.29 1.7 29 .47 10.13-1.43 92.13-1.4 96.11.04 1.84.66 3.91.79 5.01.3 2.35-1.05 48.33-.55 50.4.54.88.47 2.55.23 4-.57 3.53-1.96 10.6-1.87 11.37.14.34.87.6 44.32.59 96.56s.24 95.4.56 95.92c1.08 1.75 3.65.93 6.42-2.03M121.5 921.02c28.05-.09 117.6-.13 199-.08s151.26-.2 155.24-.56 7.7-1.21 8.27-1.89c.68-.83 1.02-28.7 1.02-83.57-.01-72.01-.2-82.51-1.51-83.83-1.33-1.33-18.95-1.52-148.49-1.61-80.83-.05-147.26-.38-147.61-.73s.76-2.71 2.47-5.24c1.71-2.54 3.11-4.98 3.11-5.44 0-.45.68-1.39 1.5-2.07s1.5-2.02 1.5-2.98c0-.95 1.07-2.89 2.39-4.3l2.38-2.58 39.33-.05c27.98-.05 40.28.28 42.62 1.12 2.54.92 3.55.92 4.48-.01 1.7-1.7 47.03-1.7 49.75 0 1.5.94 2.43.94 4.24-.02 1.76-.93 14.56-1.13 53.81-.84 28.33.2 51.95.4 52.5.43 1.62.09 36.98-1.44 37.25-1.61.14-.09.25-13.38.25-29.54 0-26.11-.18-29.53-1.65-30.75-1.38-1.14-22.08-1.39-125.25-1.47-67.98-.06-138.31-.22-156.28-.37l-32.68-.26-4.3 2.38c-3.48 1.92-4.42 3.04-4.89 5.86-.32 1.92-1.79 5.39-3.26 7.72-1.48 2.33-2.69 4.53-2.69 4.89 0 1.31-4.37 9.38-5.08 9.38-.4 0-1.22 1.24-1.83 2.75-1.54 3.85-5.83 11.31-7.89 13.72-.95 1.12-2.59 3.61-3.65 5.53s-3.19 4.69-4.74 6.15c-1.54 1.46-2.81 3.46-2.81 4.44s-1.78 3.89-3.95 6.47c-2.42 2.87-4.43 6.58-5.17 9.56-.66 2.69-1.48 5.1-1.82 5.38-1.01.83-4.43 6.24-6.63 10.5-3.41 6.6-5.89 10.49-6.68 10.49-.41.01-.75.62-.75 1.37 0 .74-1.57 3.42-3.5 5.94s-3.5 5.23-3.5 6.02-.68 2-1.5 2.68-1.5 2.03-1.5 3-.68 2.32-1.5 3-1.5 1.84-1.5 2.57-.62 1.69-1.38 2.13c-2.36 1.38-7.58 13.63-6.41 15.05.82.99 36.33 1.25 171.43 1.25h170.4l-.27 24.25-.27 24.25-68.25.26c-45.32.17-68.25-.08-68.25-.75 0-1.29-3.69-1.32-4.48-.04-.39.62-29.23.99-79.03 1.01-7.78 0-14.84.01-21.24.02-46.26.06-57.99.08-59.01-3.22-.35-1.12.54-2.62 1.73-4.63.48-.82 1.01-1.73 1.53-2.72 6.8-13.05 4.08-16.03-13.08-14.32-5.45.54-18.55.86-29.1.69l-19.19-.3-3.1 2.97c-1.71 1.64-3.38 4.11-3.72 5.5-.33 1.39-1.78 4.11-3.21 6.03s-3.72 5.75-5.1 8.5-2.79 5.22-3.14 5.5c-.71.56-6.35 10.4-7.74 13.5-.49 1.1-2.07 3.26-3.51 4.8S33 885.91 33 886.9c0 .98-.9 2.6-2 3.6s-2 2.19-2 2.66-1.35 2.72-3 5-3 4.5-3 4.94-1.35 2.8-3 5.24c-3.3 4.89-3.96 10.08-1.42 11.05.87.34 5.03.64 9.25.68s8.44.38 9.39.75c.94.37 8.82.61 17.5.53 8.68-.09 38.73-.24 66.78-.33m488-.2c27.5-.08 75.88-.14 107.5-.13 177.87.06 263.61-.43 266.25-1.51 2.83-1.16 3.51-2.59 1.75-3.68-.55-.34-1-1.42-1-2.41 0-.98-1.35-3.65-3-5.93s-3-4.42-3-4.76-2.25-4.35-5-8.9-5-8.8-5-9.43c0-.64-2.25-4.13-5-7.76-2.75-3.64-5-7-5-7.48s-1.23-2.77-2.73-5.1c-4.22-6.54-5.1-8.04-6.3-10.73-.61-1.37-2.13-3.84-3.38-5.5-1.25-1.65-3.87-6.42-5.82-10.6s-4.27-7.88-5.16-8.22c-.88-.34-1.61-1.55-1.61-2.69 0-1.92-.53-2.85-3.65-6.35-.63-.72-2.42-3.74-3.97-6.72s-3.18-5.87-3.62-6.42-1.69-2.08-2.78-3.4-1.98-2.8-1.98-3.27c0-.48-1.23-2.77-2.73-5.1-3.86-5.99-4.77-7.56-7.69-13.42-1.42-2.86-3.03-5.47-3.58-5.81s-2.16-3.07-3.58-6.08c-1.42-3-3.61-6.69-4.85-8.19-1.25-1.5-2.57-3.96-2.93-5.47-.25-1.01-.38-1.85-.76-2.55-1.88-3.41-9.93-3.41-68.29-3.4h-8.19c-69.39 0-71.71.06-73.58 1.92-1.8 1.81-1.92 3.59-1.89 28.75.03 23.65.23 27.04 1.71 28.67 1.59 1.76 4.45 1.85 58 1.85h56.32l.69 2.72c.37 1.5 2.63 5.74 5.01 9.43 2.39 3.68 4.34 7.25 4.34 7.92s1.58 3.15 3.5 5.5c1.92 2.34 3.5 4.61 3.5 5.03 0 1.69 4.23 9.35 6.54 11.85 1.35 1.46 2.46 3.53 2.46 4.59 0 1.91-2.11 1.94-135.48 1.95l-131.01.02c-1.83-.06-3.32-.13-4.52-.2l-.58-2.31c-.39-1.57-.03-3.44.98-4.97.89-1.35 1.61-3.07 1.61-3.81 0-.75 1.33-2.85 2.95-4.66 1.62-1.82 3.22-4.57 3.56-6.11.34-1.55 1.26-3.35 2.05-4 .79-.66 1.44-1.63 1.44-2.17 0-.53.85-2.17 1.88-3.63 1.04-1.46 3.34-5.35 5.12-8.65s3.56-6.22 3.95-6.5c.4-.28 2.03-2.67 3.64-5.32 1.6-2.64 3.37-5.57 3.93-6.5.56-.92 2.25-3.58 3.75-5.91s2.73-4.61 2.73-5.07 1.31-2.3 2.9-4.09c1.6-1.79 3.19-4.76 3.53-6.61.35-1.84.96-3.5 1.35-3.68 1.13-.51 5.22-6.62 5.22-7.81 0-.59.67-1.33 1.5-1.65.83-.31 1.5-1.62 1.5-2.9 0-1.27.61-2.93 1.37-3.68.75-.75 2.98-4.37 4.96-8.04 1.98-3.66 4.97-8.55 6.64-10.85 1.66-2.3 3.03-4.61 3.03-5.13s.79-1.98 1.75-3.24 2.42-3.3 3.25-4.53 2.13-2.89 2.89-3.68c.76-.8 1.46-2.2 1.54-3.13.15-1.78 3.03-6.76 10.82-18.76 2.61-4.02 4.75-8.2 4.75-9.29s.56-2.59 1.25-3.34c2.03-2.18 5.15-7 7.27-11.23 1.09-2.17 3.44-5.25 5.23-6.85 1.79-1.61 3.25-3.7 3.25-4.66 0-2.17 2.63-7.59 5.59-11.55 1.24-1.65 2.57-4.35 2.97-6 1.44-6.1 6.61-9.5 14.43-9.5 5.19 0 10.01 2.15 10.01 4.46 0 .68 1.29 3.03 2.88 5.21 1.58 2.18 3.18 4.95 3.56 6.15s1.11 2.18 1.63 2.18c.51 0 .93.47.93 1.05 0 1.88 3.85 9.58 5.45 10.91.85.71 1.55 1.86 1.55 2.55 0 .7 1.97 3.95 4.38 7.22 2.41 3.28 4.71 7.04 5.1 8.36.4 1.33 2.03 4.07 3.62 6.1 1.6 2.03 2.9 4.37 2.9 5.19 0 .83.46 1.78 1.02 2.13.55.34 1.64 2.06 2.4 3.81.77 1.75 2.56 4.49 3.99 6.09 1.42 1.59 2.59 3.73 2.59 4.75 0 1.01.39 1.84.88 1.84.48 0 1.13 1.31 1.45 2.92.36 1.8 1.42 3.18 2.76 3.61 3.6 1.14 67.05.73 68.22-.44 1-1 .6-2.31-2.16-7.09-.48-.83-1.67-3.08-2.66-5s-3.08-5.44-4.64-7.8c-1.57-2.37-2.85-4.9-2.85-5.63s-.67-1.89-1.5-2.57-1.5-1.86-1.5-2.62-.41-1.38-.92-1.38c-.5 0-2.33-2.9-4.05-6.44-1.73-3.54-4.24-8.06-5.58-10.04-1.35-1.99-2.45-4.5-2.45-5.6 0-1.09-.67-2.24-1.5-2.56-.83-.31-1.5-1.02-1.5-1.57s-1.27-2.64-2.82-4.65c-1.55-2-3.85-5.67-5.1-8.14-1.26-2.47-2.92-4.86-3.68-5.3-.77-.44-1.4-1.68-1.4-2.75s-.42-1.95-.93-1.95c-.52 0-1.25-1-1.64-2.23-.64-2-4.07-7.49-5.48-8.77-.31-.28-1.59-2.53-2.86-5s-3.61-6.44-5.2-8.8c-1.59-2.37-2.89-4.96-2.89-5.77s-1.23-3.37-2.73-5.7-3.19-4.98-3.75-5.89c-.56-.92-2.6-4.22-4.52-7.34s-3.97-6.48-4.54-7.48c-.67-1.17-1.1-2.07-1.76-2.75-2.16-2.28-6.76-2.24-30.45-2.07-1.47.01-3.01.02-4.62.04l-33.13.23 32.41.28c23.01.2 32.83.62 33.84 1.45l.03.03c-1.06-.8-13.82-1.19-43.63-1.34-30.89-.15-40.27-.02-42.87.81 1.14-.66 2.73-.79 5.95-.98 5.89-.36 5.83-.38-1.04-.3l-7.3.08-1.79 3.5c-.98 1.92-2.86 5.64-4.17 8.25s-2.7 4.75-3.09 4.75-1.01 1.01-1.38 2.25-2.65 4.8-5.07 7.92c-2.41 3.11-4.39 6.65-4.39 7.85 0 1.21-1.11 3.51-2.47 5.12-1.35 1.61-3.62 5.24-5.04 8.06-1.41 2.82-3.9 6.49-5.53 8.15-1.63 1.67-2.96 3.64-2.96 4.38 0 .75-1.66 4.37-3.69 8.06-2.02 3.69-4.55 8.41-5.61 10.49-1.07 2.07-3.23 5-4.82 6.49-1.58 1.5-2.88 3.28-2.88 3.95 0 1.46-5.87 12.55-7.04 13.29-.44.28-1.11 1.72-1.48 3.21-.37 1.48-1.31 3.22-2.08 3.86s-1.4 1.61-1.4 2.15-1.35 2.69-3 4.77-3 4.56-3 5.5-1.28 3.35-2.84 5.36c-1.56 2-3.92 5.89-5.25 8.64s-2.97 5.59-3.66 6.32-1.25 1.97-1.25 2.75c0 .79-.38 1.43-.85 1.43-.9 0-6.41 8.18-9.38 13.93-3.42 6.61-1.73 5.4 3.33-2.38-2.49 3.98-4.47 7.3-4.76 8.08-.1.26-.24.58-.43.95-.1-.35-1.26.58-3.41 2.85-1.92 2.04-3.5 4.3-3.5 5.02s-.67 1.87-1.5 2.55-1.5 2.13-1.5 3.21-1.11 3.17-2.47 4.63c-2.8 3.01-7.53 11.57-7.53 13.63 0 .75-.35 1.51-.79 1.7-1.62.69-5.21 6.72-5.21 8.77 0 1.17-.63 2.36-1.4 2.66-.77.29-2.45 2.53-3.75 4.97-1.29 2.44-2.68 4.43-3.1 4.43-.41 0-.75.61-.75 1.36 0 .74-1.58 3.42-3.5 5.94s-3.5 5.3-3.5 6.17c0 .88-.67 1.85-1.5 2.17-.83.31-1.5 1.18-1.5 1.92s-.61 1.7-1.36 2.14c-1.52.9-4.97 7.79-5.16 10.3-.06.9-1.07 2.59-2.24 3.76s-3.37 4.73-4.89 7.93-3.93 7.61-5.35 9.81c-4.29 6.67-4.99 7.89-6.11 10.75-.6 1.51-1.41 2.75-1.81 2.75-.7 0-5.08 8.06-5.08 9.34 0 .34-1.62 2.29-3.59 4.32-3.81 3.92-5.41 7.08-5.41 10.64 0 1.66.5 1.23 2.12-1.81.83-1.58 2.22-3.93 3.53-6.02-1.34 2.18-2.81 4.74-3.71 6.53-.71 1.4-1.51 2.87-2.2 4.03-.35.01-1.44.79-2.8 2.22-1.17 1.24-3.47 5.06-5.11 8.5-1.63 3.44-3.32 6.25-3.74 6.25-1.51 0-3.25 5.24-2.12 6.37.65.65 10.77 1.36 26.2 1.83 13.82.42 25.38 1.01 25.68 1.32.3.3 1.7.3 3.1 0s25.05-.61 52.55-.7M503.77 581.63c-24.06.24-76.97.09-83.02-.37-.95-.08-1.84-.21-2.57-.38q.27.015.57 0c1.69-.07 2.08-.29 1-.57-2.46-.64-2.19-2.31 1.12-6.86 1.58-2.17 3.22-5.07 3.65-6.44.42-1.37 1.83-3.62 3.12-5 2.55-2.73 6.36-9.7 6.36-11.65 0-.67.57-1.81 1.26-2.54 2.1-2.2 6.98-9.83 8.67-13.57.56-1.24 1.63-2.25 2.38-2.25 1.62 0 3.69-4.15 3.69-7.39 0-1.27.9-3.11 2-4.11s2-2.42 2-3.15c0-.74.35-1.35.77-1.35s1.87-2.01 3.22-4.48c1.34-2.46 3.02-4.69 3.73-4.96.7-.28 1.28-1.15 1.28-1.95 0-1.42 6.81-15.62 7.96-16.61 1.35-1.15 4.04-6.04 4.04-7.32 0-.77 1.6-3.49 3.55-6.05 1.96-2.56 4.32-6.35 5.25-8.42 1.79-3.97 2.01-4.29 7.65-10.83 1.95-2.27 3.55-5.16 3.55-6.44 0-2.52 3.58-6.94 5.63-6.94 1.32 0 3.35-5.85 3.36-9.69.01-1.21.46-2.47 1.01-2.81s2.22-3.18 3.71-6.31c3.59-7.5 6.1-10.87 6.77-9.06.27.75.39 38.49.26 83.87l-.24 82.5h-7.16c-3.93 0-6.63.33-6 .73.25.16.76.3 1.43.4m12.33 336.5c15.01.29 118.22.49 237.6.45 174.37-.06 228.35-.36 229.38-1.26-1.03.9-54.2 1.25-224.88 1.45-123.03.16-230.67-.07-239.2-.5-1.03-.05-2-.1-2.9-.14m66.22-363.97c-.14-18.64-.16-47.2-.07-85.71-.08 34.27-.05 65.15.07 85.71m-62.04 277.61c1.17-.75 2.5-2.48 3.67-5.02 1.32-2.88 2.94-5.91 3.6-6.74-.66.83-2.28 3.87-3.62 6.78-1.55 3.37-2.5 4.73-3.65 4.98m144.6-248.84q.12.075.12.15c0 .69-1.56 3.86-3.61 7.55 1.93-3.55 3.33-6.58 3.49-7.7m33.72 1.41c-.97 1.44-2.37 3.81-3.63 6.16-.21.4-.43.81-.66 1.22.4-1 1.76-3.46 3.11-5.6.45-.71.83-1.3 1.18-1.78M615.75 726.3c1.28-2 2.25-3.68 2.25-3.93 0-.29 1.65-3.31 3.66-6.7-2.01 3.39-3.66 6.45-3.66 6.79s-.85 1.84-1.9 3.33c-.11.16-.23.33-.35.51m137.5-85.57c.97.9 1.75 1.98 1.75 2.44 0 .48 1.22 2.77 2.72 5.1-1.5-2.33-2.72-4.54-2.72-4.92s-.74-1.52-1.65-2.52zm-62.2-43.37c-.47.75-.87 1.37-1.17 1.79-.12.18-.24.36-.36.53.39-.62.84-1.3 1.31-2 .07-.11.15-.21.22-.32m-175.48-16.03c-.01.01-.04.02-.07.02.29-.18.53-.77.72-2.33-.18 1.59-.39 2.22-.65 2.31M416 579.78v-.02c0-.66 1.92-4.34 4.4-8.62-2.45 4.24-4.35 7.88-4.4 8.64"/><path fill="#22939e" d="M23.25 918.26c-6.61-.46-6.78-1.82-1.24-10.16 2.21-3.33 4.47-7.07 5.01-8.32.55-1.26 3.89-6.78 7.43-12.28 3.55-5.5 7.87-12.7 9.61-16s4.24-7.43 5.55-9.18 2.39-3.59 2.39-4.08 1.58-3.1 3.5-5.81 3.5-5.39 3.5-5.95 1.38-2.7 3.07-4.75l3.08-3.73h31.32c37.41 0 35.62-.83 27.41 12.66-2.06 3.39-3.89 6.99-4.07 8-.3 1.78 4.81 1.85 150.69 2.11 83.05.15 152.02.03 153.27-.27l2.26-.55-.26-24.72-.27-24.73L255 810l-170.5-.5-.32-2.24c-.21-1.46 3.91-9.24 11.9-22.5 6.71-11.14 13.41-22.51 14.88-25.26s4.11-7.23 5.86-9.95 3.18-5.36 3.18-5.86c0-.51 2.03-3.97 4.5-7.69s4.5-7.09 4.5-7.48c0-.65 3.59-6.35 12.65-20.09 1.84-2.79 3.35-5.4 3.35-5.8s1.64-3.29 3.65-6.43c2.01-3.13 5.55-9.3 7.86-13.7 6.5-12.37 7.79-14.32 10.28-15.45 3.52-1.61 314.4-1.46 316.01.15 1.84 1.84 1.7 54.14-.15 55.68-.99.81-39.39 1.12-141.3 1.13-123.03.01-140.2.2-142.09 1.52-1.18.83-3.57 4.31-5.3 7.74s-4.16 7.58-5.4 9.23c-2.96 3.95-3.48 5.63-2.39 7.75.85 1.65 8.92 1.75 148.17 1.75 113.2 0 147.54.28 148.46 1.2.91.91 1.2 20.61 1.2 82.52v81.33l-2.57.97c-2.39.92-445.26 1.15-458.18.24m456.34-3.43c1.53-1.52 1.68-8.25 1.8-78.63.08-42.33-.11-78.03-.42-79.33l-.56-2.37-148.16-.5c-117.76-.4-148.41-.76-149.42-1.77-1.44-1.44-.96-2.51 8.04-18.04 2.97-5.13 6.53-10.06 7.92-10.97 2.32-1.52 14.01-1.67 141.62-1.82 136.46-.15 139.11-.19 140.09-2.09.78-1.51 1.21-37.87.59-49.56-.09-1.66-8.24-1.75-156.52-1.75H168.15l-2.83 3.43c-1.55 1.89-4.84 7.51-7.32 12.49-2.48 4.99-4.84 9.07-5.25 9.07-.41.01-.75.61-.75 1.33 0 .73-1.57 3.54-3.5 6.25s-3.5 5.3-3.5 5.76c0 .77-6.77 11.55-7.97 12.67-.29.28-1.61 2.53-2.93 5-1.32 2.48-4.33 7.47-6.69 11.11-2.36 3.63-5.31 8.58-6.55 11-1.24 2.41-2.51 4.61-2.83 4.89-.31.28-1.11 1.62-1.77 3-1.78 3.7-7.74 14-16.85 29.09-12.85 21.29-13.53 22.65-11.76 23.33.83.32 76.99.58 169.24.58 132.6 0 168.09.26 169.44 1.25 1.54 1.13 1.68 3.69 1.44 27.19l-.27 25.93-3.39.88c-1.91.5-69.34.74-153.6.57-120.62-.26-150.51-.57-151.75-1.61-1.98-1.64-1.34-4.11 2.99-11.49 5.67-9.69 7.1-9.18-26.42-9.48l-29.14-.27-3.09 3.91c-1.71 2.15-3.1 4.3-3.1 4.78s-1.14 2.55-2.52 4.59c-1.39 2.04-3.93 6.31-5.64 9.48s-4.1 7.12-5.3 8.77-2.48 3.79-2.83 4.75c-.36.96-2.33 4.33-4.4 7.5C34.34 891.38 22 912.31 22 913.12c0 1.63 3.03 2.79 8.03 3.08 3.01.18 105.02.32 226.68.31 205.06-.01 221.34-.13 222.88-1.68m34.91 3.25c-10.29-.54-10.98-.71-10.66-2.58.19-1.1.72-2.14 1.19-2.31.46-.17 2.5-3.55 4.53-7.5 2.02-3.96 4.23-7.86 4.9-8.69.66-.83 2.23-3.53 3.48-6s3.58-6.44 5.17-8.8c1.59-2.37 2.89-4.49 2.89-4.72 0-.59 8.61-14.91 12.66-21.05 1.84-2.79 3.34-5.36 3.34-5.71s1.41-3.01 3.14-5.93c1.72-2.91 4.7-8.21 6.63-11.79 1.92-3.58 4.78-8.44 6.36-10.8 1.58-2.37 2.87-4.66 2.87-5.1s1.27-2.55 2.82-4.7c3.02-4.18 10.05-15.63 14.27-23.24 8.15-14.69 12.25-21.83 13.3-23.16.64-.83 2.24-3.53 3.54-6s3.34-5.85 4.54-7.5 2.49-3.84 2.87-4.87c.63-1.71 9.31-15.48 13.76-21.84 1.05-1.49 1.9-2.99 1.9-3.33s1.65-3.4 3.66-6.79c2.02-3.39 5-8.64 6.64-11.65 1.63-3.02 4.12-7.29 5.53-9.5 1.4-2.21 3.52-5.82 4.71-8.02 6.2-11.51 9.06-16.34 11.63-19.64 1.56-2.01 2.83-3.98 2.83-4.38s2.03-4.06 4.5-8.14 4.5-7.74 4.5-8.15c0-.4 1.46-2.99 3.25-5.75 1.79-2.75 4.33-7.02 5.64-9.48 1.32-2.45 3.37-5.81 4.56-7.46s3.2-5.03 4.47-7.5c1.26-2.47 3.6-6.44 5.19-8.8 1.59-2.37 2.89-4.55 2.89-4.85s.85-1.74 1.88-3.2c1.04-1.46 3.33-5.35 5.09-8.65s3.82-6.63 4.56-7.41c1.14-1.18 8.37-1.37 43.62-1.2 29.93.15 42.66.54 43.64 1.35.75.63 2.12 2.61 3.04 4.4s4.71 8.25 8.42 14.36 6.75 11.33 6.75 11.59c0 .25 4.84 8.54 10.75 18.41s11.95 20.1 13.42 22.72c1.46 2.63 3.06 5.23 3.54 5.78 1.08 1.23 12.97 21.3 16.28 27.5 1.33 2.47 3.45 6.03 4.71 7.89 1.27 1.86 2.3 3.85 2.3 4.42s.63 1.74 1.39 2.61c2.15 2.43 10.61 18.15 10.61 19.7 0 1.14-5.53 1.38-32.35 1.38-29.57 0-32.47-.15-33.82-1.75-1.9-2.26-13.21-20.95-20.33-33.61-1.65-2.94-6.21-10.69-10.13-17.24-3.92-6.54-7.98-13.48-9.03-15.4s-3.13-5.4-4.62-7.73c-1.5-2.33-2.72-4.62-2.72-5.1 0-.47-.82-1.6-1.83-2.52-1.38-1.25-3.79-1.65-9.91-1.65h-8.09l-2.84 3.75c-1.55 2.06-3.73 5.55-4.83 7.75s-3.24 5.87-4.75 8.15c-1.51 2.27-2.75 4.57-2.75 5.09 0 .53-1.26 2.71-2.81 4.86-1.54 2.14-3.91 5.91-5.25 8.36-1.34 2.46-3.9 6.73-5.69 9.48-1.79 2.76-3.25 5.34-3.25 5.73 0 .57-6.05 11.02-19.02 32.83-4.24 7.12-6.92 11.45-10.64 17.2-2.39 3.68-4.34 7.07-4.34 7.52s-1.58 3.22-3.5 6.14-3.5 5.48-3.5 5.69-2.03 3.71-4.5 7.79-4.5 7.74-4.5 8.14-1.36 2.74-3.02 5.21c-1.66 2.46-3.97 6.33-5.13 8.6s-3.51 6.25-5.23 8.84c-7.64 11.55-21.62 34.6-21.63 35.69 0 .6-1.88 3.7-10.95 18.07-1.17 1.86-1.99 4.11-1.82 5 .28 1.47 12.26 1.61 138.79 1.61H882.5l-.26-2.38c-.15-1.31-2.17-5.36-4.5-9s-4.92-7.82-5.74-9.29c-.83-1.47-3.71-6.42-6.4-11-2.7-4.58-6.17-10.58-7.71-13.33l-2.81-5-55.96-.5c-30.77-.28-56.25-.79-56.61-1.15s-.86-12.67-1.12-27.35c-.34-19.42-.15-27.08.69-28.1.98-1.18 12.64-1.4 72.89-1.4 79.59 0 72.56-.6 76.42 6.5.9 1.65 2.07 3.67 2.6 4.5 2.19 3.39 27.42 45.91 30.27 51 1.69 3.03 3.39 5.72 3.77 6 .39.28 1.9 2.75 3.37 5.5 1.46 2.75 3.51 6.35 4.57 8 1.05 1.65 3.07 5.25 4.5 8 1.42 2.75 4.81 8.6 7.52 13 2.72 4.4 5.96 9.8 7.19 12 2.65 4.7 3.39 5.91 7.16 11.67 3.4 5.2 17.19 28.78 19.96 34.14 1.52 2.95 1.7 4.09.79 5s-54.81 1.21-229.39 1.27c-125.51.05-233.15-.18-239.2-.5m444.24-2.03c11.19-.37 19.68-1.07 20.29-1.68.73-.73.2-2.62-1.74-6.22-3.14-5.84-3.05-5.67-9.54-16.86-2.61-4.51-4.75-8.46-4.75-8.79 0-.32-.47-1.13-1.05-1.79-3.05-3.52-21.82-34.52-25.86-42.71-1.22-2.47-2.98-5.69-3.91-7.15-3.61-5.69-7.18-12.14-7.18-12.98 0-.48-.41-.87-.9-.87-.5 0-1.41-1.24-2.02-2.75s-3.34-6.13-6.06-10.25c-2.71-4.12-6.32-9.97-8-13-1.69-3.03-3.96-6.85-5.05-8.5s-3-5.03-4.26-7.5c-1.25-2.47-3.44-6.3-4.85-8.5s-2.87-4.9-3.24-6-1.53-3.02-2.56-4.26l-1.89-2.25-71.34.25-71.33.26-.27 24.66c-.23 21.44-.06 24.87 1.32 26.25 1.42 1.41 7.52 1.59 54.8 1.59 45.94 0 53.5.21 55.37 1.52 2.24 1.57 12.28 17.4 12.28 19.37 0 .61.36 1.11.79 1.11.44 0 2.08 2.59 3.65 5.75s3.84 7.1 5.05 8.75c1.22 1.65 3.83 6 5.81 9.67 3.24 6.02 3.43 6.81 1.99 8-2.29 1.9-279.54 1.98-281.44.08-1.35-1.35 1.04-6.61 7.6-16.75 1.77-2.75 4.09-6.58 5.13-8.5 5.74-10.57 22.7-38.38 25.89-42.45.84-1.08 1.53-2.32 1.53-2.77s1.23-2.72 2.73-5.05c4.07-6.3 5.09-8.02 6.14-10.33.53-1.15 2.8-5.1 5.05-8.76 2.24-3.67 4.08-6.92 4.08-7.21 0-.83 10.92-19.27 15.07-25.43 2.03-3.03 4.88-7.75 6.32-10.5 1.45-2.75 3.19-5.9 3.87-6.99.68-1.1 2.65-4.25 4.37-7 6.19-9.9 11.58-19.06 12.93-22.01 1.82-3.97 5.03-9.48 10.47-17.98 5.24-8.17 6.32-9.99 8.38-14.02 4.77-9.35 8.38-15.03 10.6-16.68 3.23-2.39 11.35-3.34 16.54-1.94 3.39.91 4.73 2.12 8.25 7.43 2.31 3.49 4.2 6.61 4.2 6.94 0 .86 10.25 18.02 11.63 19.47.64.66 2.13 3.14 3.31 5.5 1.19 2.35 2.57 4.95 3.07 5.78.51.83 5.27 8.92 10.59 18s10.59 17.51 11.71 18.75c2.02 2.23 2.24 2.25 30.9 2.25 32.63 0 32.09.15 27.88-7.43-1.24-2.24-4.08-7.45-6.31-11.57s-4.88-8.68-5.89-10.12-2.3-3.69-2.86-5c-.57-1.31-1.45-3.05-1.97-3.88s-3.56-5.92-6.75-11.31c-3.2-5.4-6.48-10.87-7.31-12.15-1.39-2.17-9.63-15.55-12.32-20a2426 2426 0 0 0-7.37-12.04c-.67-1.1-2.73-4.92-4.57-8.5s-5.35-9.8-7.79-13.82c-2.45-4.03-5.52-9.21-6.82-11.5-1.31-2.3-3.47-5.64-4.81-7.43L783.9 583h-40.8c-44.77 0-42.24-.34-45.08 6-2.01 4.48-4.26 8.36-9.6 16.56-2.89 4.44-6.92 11.19-8.96 15-2.04 3.82-4.2 7.55-4.8 8.3-1.43 1.79-3.31 5.06-4.68 8.12-.61 1.36-1.48 2.71-1.93 3-.46.29-2.74 4.12-5.07 8.52s-5.31 9.43-6.61 11.18-2.37 3.47-2.37 3.81-3.6 6.7-8 14.13-8 13.69-8 13.9-1.29 2.31-2.87 4.68c-1.58 2.36-4.79 7.9-7.13 12.3s-4.59 8.45-5 9-2.43 4.15-4.49 8-4.98 8.58-6.48 10.5c-3.1 3.95-19.03 30.4-19.03 31.58 0 .42-.64 1.47-1.42 2.34s-2.94 4.5-4.81 8.08-4.6 8.4-6.08 10.73-2.69 4.46-2.69 4.74-2.12 3.78-4.72 7.77c-6.25 9.6-6.18 9.49-10.7 17.4-2.16 3.77-4.69 7.98-5.62 9.36s-3.26 5.42-5.19 9c-8.75 16.24-10.17 18.76-12.88 22.8-1.59 2.37-2.89 4.51-2.89 4.77s-1.23 2.37-2.73 4.7c-3.89 6.03-5.1 8.03-5.88 9.73-.38.83-1.25 2.17-1.93 3-.67.83-4.92 8.15-9.44 16.28-6.61 11.9-7.98 15.07-7.02 16.22.84 1.01 4.03 1.53 10.84 1.78 17.4.63 419.17.42 438.9-.23m-441.27-85.3c-.26-.69-.59-44-.72-96.25l-.25-95L415 639l-101.5-.5-.31-2.16c-.18-1.28 1.45-4.73 4.03-8.5 2.38-3.49 5.38-8.37 6.66-10.84s3.64-6.44 5.23-8.8c1.59-2.37 2.89-4.53 2.89-4.82s2.02-3.86 4.5-7.93c2.48-4.08 4.5-7.81 4.5-8.29s1.58-2.94 3.5-5.46 3.5-4.91 3.5-5.31 1.92-3.91 4.26-7.81c2.34-3.89 4.92-8.28 5.75-9.74 3.32-5.91 10.54-17.53 12.7-20.43 1.26-1.71 2.29-3.42 2.29-3.82 0-.39 2.86-5.53 6.36-11.42 3.49-5.89 8.06-13.85 10.15-17.69 2.08-3.84 5.07-8.76 6.64-10.93s2.85-4.33 2.85-4.8 1.91-3.88 4.25-7.57 4.92-7.9 5.75-9.35c.83-1.46 6.73-11.36 13.12-21.99 6.39-10.64 12.59-21.14 13.78-23.34 3.98-7.39 7.26-12.97 10.59-18 1.82-2.75 4.21-6.8 5.31-9 2.36-4.7 7.81-13.76 10.82-18.01 1.17-1.64 3.32-5.24 4.78-7.99s3.51-6.35 4.57-8c1.05-1.65 3.68-6.15 5.83-10 7.12-12.7 7.68-13.46 10.6-14.48 1.78-.63 18.69-1.02 43.78-1.02 33.44 0 40.98-.25 41.4-1.35.5-1.29-2.03-6.02-9.27-17.32-1.82-2.84-3.31-5.55-3.31-6.02s-1.47-3.1-3.28-5.83c-3.03-4.61-5.01-7.93-14.8-24.81-1.97-3.39-6.2-10.67-9.4-16.17-3.21-5.5-6.9-11.92-8.22-14.27-1.31-2.34-3.38-5.74-4.59-7.55-1.22-1.8-5.81-9.44-10.21-16.96s-8.51-13.68-9.13-13.7c-1.61-.03-8.29 10.52-22.15 34.98-3.58 6.33-7.51 13.08-8.73 15s-3.87 6.42-5.89 10c-3.55 6.27-14.85 25.27-19.93 33.5-1.35 2.2-3.69 6.25-5.2 9-1.5 2.75-3.27 5.67-3.93 6.5-.67.83-2.69 4.42-4.49 8s-4.13 7.43-5.16 8.56c-1.04 1.14-1.89 2.49-1.89 3 0 .52-1.85 3.64-4.1 6.94s-5.2 8.02-6.55 10.5c-5.1 9.31-8.57 15.39-11.02 19.27-1.39 2.2-4.24 7.31-6.33 11.36-2.1 4.05-4.87 8.67-6.16 10.27-1.28 1.6-3.69 5.21-5.34 8.03-1.65 2.81-4.91 8.07-7.25 11.69-2.34 3.61-4.25 6.94-4.25 7.4s-1.69 3.61-3.75 7c-4.98 8.18-9.66 16.36-12.88 22.48-1.45 2.75-3.92 6.64-5.5 8.64-1.58 2.01-2.87 4-2.87 4.43s-3.26 6.09-7.25 12.58-8 13.2-8.91 14.91c-.92 1.71-3.51 5.95-5.75 9.42-2.25 3.48-4.09 6.58-4.09 6.9 0 .33-4.1 7.43-9.1 15.79-5.01 8.37-9.35 15.91-9.65 16.77s-1.51 2.91-2.68 4.56c-3.75 5.27-13.57 22.09-13.57 23.24 0 .61-1.06 2.38-2.36 3.93-1.29 1.56-4.29 6.21-6.65 10.33s-5.35 9.3-6.63 11.5-2.64 4.67-3.02 5.5-1.84 3.3-3.23 5.5c-1.4 2.2-3.4 5.58-4.45 7.5-3.22 5.9-8.92 14.43-10.52 15.75-1.14.94-9.05 1.25-31.75 1.25-16.62 0-30.94-.27-31.81-.61-.87-.33-1.58-1.09-1.58-1.68 0-1.66 3.99-9.52 7.68-15.12 1.82-2.77 3.32-5.38 3.32-5.78 0-.82 9.33-16.47 14.6-24.48 1.87-2.84 3.4-5.62 3.4-6.18 0-.55.65-1.66 1.45-2.45.79-.8 3.1-4.54 5.12-8.32 2.02-3.79 4.2-7.55 4.83-8.38.64-.83 2.23-3.53 3.54-6s3.81-6.75 5.56-9.5 4.49-7.21 6.09-9.9c7.47-12.58 11.51-19.46 13.89-23.6 1.41-2.47 3.45-5.85 4.52-7.5s3.14-5.25 4.6-8 3.61-6.33 4.78-7.95c1.17-1.61 3.47-5.33 5.12-8.26 2.52-4.47 15.47-26.32 18.54-31.29 1.85-2.99 5.73-9.67 10.44-18 2.65-4.67 6.44-11.06 8.42-14.18s4.95-8.02 6.6-10.87 4.64-7.95 6.65-11.32c2-3.37 5-8.61 6.65-11.63 5.09-9.31 14.94-25.82 21.05-35.3 1.85-2.86 4.04-6.55 4.89-8.2.84-1.65 2.97-5.25 4.74-8 4.41-6.88 8.38-13.6 12.52-21.17 5.24-9.59 22.08-37.26 23.03-37.85.46-.29 2-2.87 3.43-5.75 1.42-2.88 4.42-8.38 6.66-12.23 2.25-3.85 5.44-9.48 7.1-12.5s4.47-7.75 6.24-10.5c8.08-12.52 14.45-23.18 21.41-35.86 1.85-3.38 4.44-7.57 5.75-9.32s2.41-3.78 2.45-4.5c.04-.73 1.83-4.02 3.99-7.32s4.4-7.12 5-8.5c.59-1.37 2.1-3.84 3.34-5.5 2.16-2.86 7.78-12.23 12.14-20.25 1.12-2.06 3.71-6.59 5.75-10.05 2.04-3.47 3.71-6.64 3.71-7.06 0-.41 1.29-2.52 2.87-4.69 1.57-2.17 4.34-6.73 6.14-10.12 4.07-7.63 7.5-11.73 9.28-11.05.75.29 3.07 3.83 5.17 7.87s4.39 8.03 5.09 8.85 2.6 3.97 4.22 7c6.76 12.63 12.23 22.3 13.44 23.74.71.84 2.64 3.94 4.29 6.88s5.92 10.19 9.5 16.11c3.58 5.93 7.27 12.12 8.21 13.77 8.9 15.57 25.74 44.07 26.69 45.16 1.53 1.75 14.1 23.11 14.1 23.95 0 .4.65 1.45 1.45 2.33.8.89 3.16 4.82 5.25 8.75s7.06 12.35 11.05 18.7c3.99 6.36 7.25 11.89 7.25 12.28 0 .4 1.97 3.67 4.37 7.28 2.41 3.6 4.72 7.67 5.14 9.05.41 1.38 2.05 4.14 3.62 6.14 1.58 2.01 2.87 3.91 2.87 4.23 0 .76 11.44 19.93 14.99 25.13 1.51 2.2 3.07 5.12 3.49 6.5.41 1.38 1.55 3.4 2.54 4.5.98 1.1 2.73 3.69 3.88 5.75 5.25 9.37 6.45 11.42 8.22 13.9 1.03 1.46 1.88 2.96 1.88 3.33s1.88 3.84 4.19 7.72c2.3 3.87 4.89 8.31 5.75 9.86s6.62 11.21 12.81 21.47S703 441.42 703 441.71s1.96 3.51 4.36 7.16c2.41 3.64 4.99 7.85 5.75 9.35.77 1.5 4.15 7.35 7.53 13s7.12 12.08 8.31 14.28 3.61 6.32 5.36 9.16c3.65 5.89 5.94 9.74 10 16.84 1.58 2.75 4.41 7.33 6.28 10.17 1.88 2.84 3.41 5.55 3.41 6.02 0 .46 1.18 2.58 2.62 4.71 4.4 6.46 10.38 17.45 10.38 19.05 0 .83-1.03 1.77-2.29 2.09-1.26.31-15.94.43-32.63.27l-30.34-.31-1.62-2.37c-1.74-2.55-6.35-10.57-10.67-18.55-1.46-2.71-4.12-7.21-5.92-10-1.79-2.79-4.47-7.11-5.94-9.58-1.48-2.48-4.67-7.65-7.1-11.5-2.42-3.85-6.96-11.5-10.08-17s-8.65-15.08-12.29-21.29-7.74-13.23-9.12-15.61-3.99-6.75-5.81-9.71c-4.54-7.4-9.43-15.66-15.93-26.89-3.02-5.23-6.07-10.17-6.77-11s-3.63-5.77-6.51-10.98c-2.87-5.21-5.88-10.39-6.67-11.5s-3.8-6.07-6.69-11.02c-2.9-4.95-5.91-9-6.69-9-1.23 0-1.47 15.63-1.68 110.95-.17 74 .08 111.28.76 111.96.64.64 15.7 1.11 41.14 1.27 22.07.15 40.38.52 40.69.82.66.67-4.02 9.81-8.57 16.71-1.8 2.73-3.27 5.22-3.27 5.54s-1.96 3.77-4.36 7.67c-2.4 3.89-5.81 9.76-7.58 13.04-2.69 4.98-6.03 10.33-7.82 12.54-.22.28-11.73.72-25.57 1l-25.17.5-.5 44.59-.5 44.58-2.75 3.97c-1.51 2.18-2.75 4.44-2.75 5.01 0 .58-1.24 2.8-2.75 4.95-1.51 2.14-3.83 5.93-5.16 8.4s-3.28 5.76-4.35 7.29c-1.06 1.53-3.28 5.36-4.93 8.5s-4.03 7.29-5.3 9.21c-1.26 1.92-4.79 7.78-7.84 13s-6.64 11.3-7.98 13.5-3.9 6.7-5.69 10-3.79 6.67-4.45 7.5c-.65.83-2.27 3.86-3.6 6.75-2.37 5.13-5.36 6.98-6.48 4m5.62-7.36c1.49-1.79 3.35-4.87 4.76-7.89.52-1.1 4.32-7.69 8.45-14.65s7.8-13.6 8.17-14.75c.37-1.16 1.08-2.1 1.6-2.1.51 0 .93-.47.93-1.04s.84-2.26 1.86-3.75 5.48-8.79 9.9-16.21c10.62-17.82 11.5-19.3 16.2-27.5l4.01-7 .03-44c.02-24.2.37-44.53.79-45.19 1.72-2.71 6.96-3.31 28.72-3.31 26.1 0 24.4.66 30.88-12 2.11-4.12 5.53-9.99 7.59-13.04s5.68-9.13 8.04-13.5c2.36-4.38 4.74-8.69 5.29-9.58s.73-2.33.39-3.21c-.54-1.42-4.95-1.63-39.5-1.89-31.18-.22-39.22-.55-40.55-1.65-1.52-1.26-1.65-10.49-1.65-114.06 0-121.25-.12-118.43 4.83-114.4 1.24 1.01 2.79 2.81 3.46 4.01.66 1.2 4.13 7.04 7.71 12.98s7.17 12.03 8 13.54 4.76 8.12 8.75 14.7c3.99 6.57 7.25 12.18 7.25 12.47s1.33 2.5 2.96 4.91c1.62 2.41 4.11 6.59 5.52 9.3 2.58 4.93 4.33 7.9 5.82 9.87 1.56 2.06 7.7 11.73 7.7 12.12 0 .32 9.42 16.77 14 24.43.49.83 1.99 3.52 3.33 6 1.33 2.48 3.27 5.91 4.3 7.64 3.11 5.22 8.77 14.43 10.37 16.86 3.74 5.68 16 26.47 16 27.12 0 .4.62 1.43 1.38 2.3s3.05 4.73 5.1 8.58c2.04 3.85 5 8.21 6.56 9.68l2.84 2.68 27.51.06c15.13.03 28.21-.21 29.06-.54 2.54-.97 1.8-3.89-2.95-11.72-2.47-4.08-4.5-7.82-4.5-8.31s-1.62-3.36-3.61-6.37c-1.98-3.02-4.57-7.23-5.75-9.36-2.19-3.97-3.44-6.07-6.44-10.81-3.79-5.99-15.93-26.41-16.54-27.81-.35-.83-1.09-2.17-1.62-3-.54-.83-6.68-11.17-13.64-23-6.97-11.83-13.39-22.62-14.26-24-.88-1.38-2.44-4.08-3.48-6s-3.19-5.44-4.78-7.8c-1.58-2.37-2.88-4.63-2.88-5.02 0-.4-1.58-3.12-3.5-6.04s-3.5-5.73-3.5-6.23-.42-.91-.93-.91c-.52 0-1.25-.98-1.63-2.18-.8-2.53-11.63-21.15-32.89-56.56-6.35-10.59-11.55-19.43-11.55-19.64 0-.84-11.33-19.44-20.11-33-2.54-3.91-4.96-8.24-5.39-9.62-.42-1.38-1.11-2.73-1.53-3-.41-.27-2.67-4.1-5.01-8.5s-5.14-9.27-6.22-10.81c-1.08-1.55-3.08-4.92-4.45-7.5s-3.8-6.63-5.39-8.99c-1.6-2.37-2.9-4.55-2.9-4.86 0-.3-1.26-2.19-2.79-4.2-1.54-2-3.36-4.76-4.04-6.14-1.65-3.31-3.23-5.91-5.77-9.52-1.15-1.64-3.34-5.68-4.86-8.98s-3.84-7.43-5.15-9.18c-1.32-1.75-2.41-3.55-2.44-4-.02-.45-2.94-5.55-6.47-11.32-12.51-20.41-19.48-32.03-19.48-32.46 0-.24-1.35-2.44-3-4.88-1.65-2.45-3-4.77-3-5.17 0-.39-2.18-4.37-4.85-8.85s-5.16-8.82-5.54-9.64c-2.69-5.87-6.34-10.32-7.96-9.7-.81.32-5.37 7.24-10.13 15.39-4.76 8.14-9.05 15.49-9.54 16.31-.5.82-2.14 3.86-3.65 6.75s-3.1 5.25-3.54 5.25c-.43 0-.79.48-.79 1.08 0 .59-1.91 4.21-4.25 8.04-2.34 3.84-4.71 7.74-5.27 8.68-.56.93-2.18 3.5-3.6 5.7s-4.49 7.56-6.83 11.9c-2.34 4.35-6.01 10.77-8.16 14.27-2.14 3.5-3.89 6.71-3.89 7.12 0 .42-1.58 3.15-3.5 6.07s-3.5 5.53-3.5 5.78c0 .55-9.48 15.28-10.99 17.07-.55.66-1.01 1.61-1.01 2.11s-.84 1.98-1.86 3.3c-1.03 1.31-3.62 5.64-5.75 9.63-2.14 3.99-4.34 8.04-4.89 9s-2.55 4.45-4.43 7.75c-1.89 3.3-3.7 6.23-4.02 6.5-.33.27-1.12 1.7-1.76 3.17-.65 1.47-3.6 6.42-6.56 11-6.45 9.98-17.42 28.48-20.8 35.08-1.33 2.61-2.76 4.75-3.18 4.75-.41 0-.75.48-.75 1.08 0 .59-1.82 4.07-4.05 7.75-2.23 3.67-4.59 7.56-5.25 8.65-.66 1.08-3.04 4.91-5.29 8.5-5.71 9.09-23.41 39.11-23.41 39.69 0 .42-8.85 15.28-13 21.82-3.66 5.77-9.99 16.5-12.99 22.01-1.8 3.3-3.88 6.71-4.64 7.58-.75.87-1.37 1.93-1.37 2.36s-2.19 4.44-4.87 8.92-5.04 8.59-5.25 9.15c-.21.55-3.3 5.63-6.88 11.27s-7.24 11.62-8.14 13.28c-.91 1.66-2.75 4.69-4.1 6.73s-4.17 6.86-6.27 10.71-4.12 7.22-4.49 7.5-2.37 3.65-4.45 7.5c-2.09 3.85-4.41 7.71-5.17 8.58s-1.38 1.93-1.38 2.37c0 1.15-7.25 12.99-8.2 13.38-.44.19-.8.87-.8 1.53 0 .65-1.46 3.44-3.25 6.2-1.79 2.75-4.33 7.02-5.64 9.48-1.32 2.45-3.38 5.81-4.58 7.46s-2.85 4.35-3.66 6-4.15 7.42-7.42 12.82c-9.71 16.01-11.68 19.39-15.9 27.18-1.19 2.2-3.41 5.96-4.93 8.35-1.53 2.39-2.85 5.54-2.95 7l-.17 2.65 29.35.27 29.35.26 3.4-3.71c1.87-2.04 3.4-4.1 3.4-4.59 0-.48 1.24-2.76 2.75-5.07 4.39-6.7 5.19-8.01 6.49-10.66 1.35-2.73 9.21-16.59 10.79-19 .53-.83 1.38-2.4 1.87-3.5.5-1.1 2-3.6 3.34-5.56 1.35-1.96 4.15-6.69 6.24-10.5 2.09-3.82 5.02-8.52 6.52-10.44s3.05-4.51 3.43-5.75c.39-1.24 1.12-2.25 1.64-2.25.51 0 .93-.49.93-1.08s3.75-7.45 8.34-15.25c4.59-7.79 10.74-18.45 13.68-23.67 2.94-5.23 5.6-9.73 5.91-10 .31-.28 1.64-2.53 2.96-5 1.31-2.48 3.74-6.52 5.39-9 3.42-5.11 24.72-40.81 24.72-41.43 0-.22 2.92-5.36 6.5-11.42s6.5-11.3 6.5-11.64 2.59-4.53 5.75-9.31c3.16-4.79 5.92-9.15 6.13-9.7s2.3-3.92 4.65-7.5c2.34-3.58 5.94-9.65 7.99-13.5s4.12-7.49 4.59-8.09c1-1.25 6.23-10.5 8.44-14.91.83-1.65 3.28-5.7 5.45-9 4.3-6.53 19.18-31.08 20.31-33.5 1.45-3.12 7.02-12.67 9.8-16.8 1.59-2.37 2.89-4.76 2.89-5.33 0-1.23 7.12-12.22 8.23-12.7.42-.19.77-.77.77-1.3 0-.54 3.77-7.36 8.39-15.17 4.61-7.81 10.08-17.35 12.14-21.2 2.07-3.85 5.38-9.48 7.36-12.5s3.91-6.25 4.29-7.17 2.56-4.41 4.85-7.75c2.93-4.3 4.78-6.08 6.32-6.08 2.22 0 3.01.95 7.41 8.92 1.39 2.52 3.99 6.83 5.78 9.58 4.89 7.53 11.51 18.54 12.56 20.9.51 1.16 1.82 3.45 2.9 5.1 1.09 1.65 2.29 3.67 2.67 4.5.69 1.47 9.52 17.03 11.36 20 .51.83 6.14 10.27 12.5 21 14.2 23.92 12.66 21.35 16.96 28.4 5.54 9.07 5.64 9-13 9.71-8.79.34-28.63.68-44.09.75-25.39.13-28.24.31-29.63 1.89-1.58 1.79-13.77 22.06-13.77 22.9 0 .58-10.6 18.3-16.15 27.01-1.46 2.28-2.95 5.09-3.32 6.25-.37 1.15-1.04 2.09-1.5 2.09s-1.33 1.24-1.93 2.75-2.85 5.49-4.99 8.84c-3.4 5.32-7.08 11.76-13.08 22.91-1.42 2.64-3.31 5.82-7.73 13.04-5.06 8.25-13.61 22.32-14.57 23.96-.64 1.1-2.3 3.8-3.68 6-4.21 6.69-4.92 7.91-5.96 10.2-.55 1.21-2.25 4.14-3.78 6.5-3.85 5.98-4.96 7.85-6.7 11.3-.84 1.65-2.88 5.25-4.55 8-1.66 2.75-3.48 6.04-4.04 7.32-.56 1.27-2.07 3.75-3.36 5.5-1.28 1.75-3.58 5.65-5.11 8.68-1.52 3.03-3.77 6.85-5 8.5-1.22 1.65-5.45 8.4-9.4 15s-7.59 12.67-8.1 13.5c-4.11 6.72-11.05 18.9-11.05 19.41 0 .35-1.23 2.53-2.73 4.86-4.11 6.37-5.09 8.02-6.18 10.42-.55 1.21-2.75 4.81-4.9 8-2.14 3.2-4.92 7.69-6.18 9.98-4.37 7.97-12.83 7.33 97.02 7.33 98.72 0 100.98.07 103.2 3.4.41.6.75 42.61.75 93.35.01 52.24.4 92.25.9 92.25.48 0 1.48-.72 2.21-1.61M415.75 581.92c-2.35-1.37-2.14-3.64.78-8.42 1.35-2.2 2.87-4.97 3.39-6.15.53-1.17 1.32-2.3 1.77-2.5.44-.19 1.82-2.38 3.06-4.85 1.23-2.47 3.17-6.08 4.3-8 1.14-1.92 2.73-4.62 3.54-6s2.24-3.7 3.19-5.17c3.39-5.27 23.22-38.75 23.22-39.2 0-.26 1.94-3.76 4.31-7.8 2.38-4.03 4.65-8 5.04-8.83.4-.83 1.28-2.4 1.96-3.5s2.35-3.82 3.71-6.04 3.02-4.92 3.69-6c12.9-20.97 20-33.19 25.25-43.46 1.83-3.58 3.94-7.21 4.68-8.08.75-.87 1.36-2.02 1.36-2.55 0-.54 1.39-2.86 3.09-5.17 3.17-4.32 6.23-5.41 7.3-2.62.34.87.61 40 .61 86.95v85.36l-2.22 1.55c-1.94 1.36-8.46 1.56-51.25 1.53-31.44-.02-49.66-.4-50.78-1.05m99.82-.59c1.22-.46 1.43-12.71 1.43-84.88 0-61.93-.3-84.52-1.14-85.03-1.49-.93-3.99 2.39-8.71 11.58-3.11 6.05-9.56 17.34-17.14 30-13.17 21.98-22.39 37.64-24.76 42-1.64 3.02-4.39 7.88-6.12 10.79-1.72 2.92-3.13 5.53-3.13 5.82s-1.07 1.96-2.37 3.71-3.59 5.65-5.08 8.67-3.04 5.72-3.45 6c-.83.56-11.63 18.77-13.95 23.51-.81 1.65-2.69 4.8-4.17 7-4.49 6.67-10.98 18.05-10.98 19.26 0 .63 2.09 1.29 4.75 1.5 7.8.6 93.27.67 94.82.07"/></svg>