<svg xmlns="http://www.w3.org/2000/svg" width="200" height="200" viewBox="0 0 150 150"><g id="surface1"><path d="M 64.847656 15.882812 C 94.488281 15.882812 118.558594 39.957031 118.558594 69.597656 C 118.558594 99.234375 94.652344 123.308594 64.847656 123.308594 C 35.042969 123.308594 11.136719 99.234375 11.136719 69.597656 C 11.136719 39.957031 35.207031 15.882812 64.847656 15.882812 Z M 64.847656 15.882812" fill-rule="evenodd" fill="#8d9092"/><path d="M69.269531 95.632812L134.933594 29.96875C121.34375 11.789062 99.5625 0 75 0 33.570312 0 0 33.570312 0 75 0 82.367188 1.144531 89.574219 3.113281 96.453125 13.101562 98.582031 23.582031 99.5625 34.226562 99.5625 46.34375 99.5625 57.96875 98.253906 69.269531 95.632812zM150 75C150 66.8125 148.691406 58.953125 146.234375 51.582031 125.765625 73.035156 99.070312 88.589844 69.269531 95.632812L29.96875 134.933594C42.578125 144.433594 58.132812 150 75.164062 150 116.429688 150 150 116.429688 150 75zM150 75" fill="#ed1c24"/><path d="M31.277344 61.898438C31.441406 61.898438 31.605469 61.898438 31.769531 61.734375 32.097656 61.734375 32.421875 61.570312 32.75 61.410156 32.914062 61.410156 32.914062 61.410156 33.078125 61.246094 33.40625 61.082031 33.734375 60.917969 34.0625 60.753906 34.0625 60.753906 34.0625 60.753906 34.226562 60.753906 39.628906 58.132812 41.429688 52.074219 41.921875 48.636719 42.578125 44.214844 39.300781 38.320312 32.585938 38.320312L17.6875 38.320312 11.789062 71.070312 18.832031 71.070312 20.46875 62.226562 28.65625 62.226562C28.820312 62.226562 28.820312 62.226562 28.984375 62.226562 29.476562 62.226562 29.804688 62.226562 30.292969 62.226562 30.785156 62.0625 30.949219 62.0625 31.277344 61.898438zM21.453125 57.152344L23.910156 43.722656 29.476562 43.722656C34.878906 43.722656 35.207031 46.996094 34.714844 49.453125 34.386719 51.910156 32.585938 56.988281 26.855469 56.988281L21.453125 56.988281zM91.539062 39.628906C91.539062 39.628906 91.375 39.628906 91.539062 39.628906 91.375 39.464844 91.210938 39.464844 90.882812 39.300781 90.71875 39.300781 90.558594 39.136719 90.394531 39.136719 90.230469 39.136719 90.066406 38.972656 89.738281 38.972656 89.574219 38.972656 89.410156 38.808594 89.246094 38.808594 89.082031 38.808594 88.753906 38.644531 88.589844 38.644531 88.429688 38.644531 88.265625 38.644531 88.101562 38.644531 87.773438 38.644531 87.28125 38.644531 86.953125 38.644531 86.953125 38.644531 86.953125 38.644531 86.789062 38.644531L72.050781 38.644531 67.792969 61.570312 65.992188 71.070312 73.035156 71.070312 74.671875 62.226562 82.859375 62.226562C83.515625 62.226562 84.007812 62.226562 84.496094 62.0625 84.660156 62.0625 84.824219 62.0625 84.988281 62.0625 85.316406 62.0625 85.644531 61.898438 85.972656 61.898438 86.136719 61.898438 86.300781 61.734375 86.460938 61.734375 86.789062 61.570312 87.117188 61.570312 87.28125 61.410156 87.445312 61.410156 87.609375 61.246094 87.773438 61.246094 88.101562 61.082031 88.265625 61.082031 88.589844 60.917969 88.753906 60.753906 88.917969 60.753906 89.082031 60.589844 89.246094 60.425781 89.574219 60.261719 89.738281 60.097656 89.902344 59.933594 90.066406 59.933594 90.230469 59.769531 90.394531 59.605469 90.71875 59.441406 90.882812 59.28125 91.046875 59.117188 91.210938 59.117188 91.210938 58.953125 91.375 58.789062 91.539062 58.625 91.703125 58.296875 91.867188 58.132812 91.867188 58.132812 92.03125 57.96875 94.488281 55.023438 95.46875 51.253906 95.960938 48.800781 96.78125 45.523438 95.140625 41.59375 91.539062 39.628906zM75.820312 57.152344L78.273438 43.722656 83.84375 43.722656C89.246094 43.722656 89.574219 46.996094 89.082031 49.453125 88.753906 51.746094 87.28125 56.003906 82.859375 56.824219 82.367188 56.988281 81.878906 56.988281 81.222656 56.988281L75.820312 56.988281zM61.082031 38.644531C58.132812 38.644531 54.367188 38.644531 52.402344 38.644531L54.039062 29.804688 46.996094 29.804688 40.9375 62.390625 47.980469 62.390625 51.417969 43.722656C52.730469 43.722656 54.367188 43.722656 56.003906 43.722656 58.953125 43.722656 61.082031 44.378906 60.589844 47.160156 60.097656 49.945312 57.640625 62.226562 57.640625 62.226562L64.847656 62.226562C64.847656 62.226562 67.632812 48.472656 68.121094 44.707031 68.613281 40.773438 65.011719 38.644531 61.082031 38.644531zM61.082031 38.644531" fill="#f3f3f3"/></g></svg>