<?xml version="1.0" encoding="UTF-8"?> <svg xmlns="http://www.w3.org/2000/svg" width="185" height="56" viewBox="0 0 185 56" fill="none"> <g clip-path="url(#clip0_498_10236)">  <path d="M43.2919 32.1259L43.7521 31.0812C44.0593 30.3751 44.6123 30.1908 45.3183 30.7125C46.6701 31.6958 48.8809 32.4332 51.8301 32.4332C54.3493 32.4332 55.424 31.7885 55.424 31.0198C55.424 30.1595 54.5336 29.9137 53.059 29.7293L49.7109 29.3003C45.687 28.7785 43.6594 27.3338 43.6594 24.8155C43.6594 22.1127 45.8713 19.9619 51.0001 19.9619C53.8566 19.9619 55.6999 20.3921 56.8974 20.8524C58.2179 21.3742 58.4022 21.8043 58.4022 22.8803V24.2624C58.4022 25.1227 58.095 25.43 57.2348 25.43H56.283C55.4228 25.43 55.1156 25.1227 55.1156 24.2624V23.8009C54.5626 23.6166 53.1807 23.3406 51.5531 23.3406C48.7278 23.3406 47.3448 23.8624 47.3448 24.7227C47.3448 25.3674 48.1737 25.7361 49.6785 25.9517L52.9651 26.3819C56.989 26.9037 59.1082 28.1026 59.1082 30.9896C59.1082 33.9382 56.3131 35.813 51.3374 35.813C47.6821 35.813 44.7341 34.6454 43.5666 33.5706C43.1377 33.1706 43.0763 32.6477 43.2919 32.1259Z" fill="black"></path> <path d="M79.5421 35.5661H77.853C77.0241 35.5661 76.747 35.4432 76.3482 34.8286L73.1543 30.1282C72.6941 29.4835 72.3555 29.3293 71.4038 29.3293H68.2099V34.3985C68.2099 35.2588 67.9027 35.5661 67.0425 35.5661H65.8136C64.9534 35.5661 64.6462 35.2588 64.6462 34.3985V19.1318H63.5101C62.6499 19.1318 62.3427 18.8245 62.3427 17.9642V16.9508C62.3427 16.0905 62.6499 15.7832 63.5101 15.7832H67.0425C67.9027 15.7832 68.2099 16.0905 68.2099 16.9508V25.8903H71.0664C72.0182 25.8903 72.3567 25.7372 72.8169 25.0914L75.4891 20.9753C75.9192 20.3306 76.1951 20.2077 77.0252 20.2077H78.7143C79.636 20.2077 79.8203 20.9452 79.2974 21.7127L76.318 26.2289C76.0108 26.659 75.6422 27.1193 75.2735 27.488C75.6422 27.7953 76.1638 28.3171 76.3795 28.6243L80.1263 34.0924C80.648 34.8298 80.4637 35.5661 79.5421 35.5661Z" fill="black"></path> <path d="M85.3571 38.3929V37.3795C85.3571 36.5192 85.6643 36.2119 86.5245 36.2119H87.9991C88.8895 36.2119 89.3196 36.0275 89.6581 35.3214L89.8424 34.9226L82.809 21.6211C82.3789 20.8223 82.7162 20.2077 83.6379 20.2077H85.2354C86.0643 20.2077 86.4329 20.3608 86.7401 20.9452L89.6882 26.9964C90.3641 28.3785 91.1316 29.9763 91.746 31.3584C92.3604 30.0064 93.0664 28.4713 93.7423 27.1193L96.7519 20.9452C97.0278 20.3619 97.4277 20.2077 98.2566 20.2077H99.8541C100.776 20.2077 101.113 20.8223 100.683 21.6211L92.6665 36.8276C91.7448 38.5784 90.6702 39.5616 88.2739 39.5616H86.5234C85.6643 39.5604 85.3571 39.2532 85.3571 38.3929Z" fill="black"></path> <path d="M120.312 27.8255V28.1942C120.312 29.0545 120.005 29.3617 119.145 29.3617H106.551C106.982 30.9896 108.609 32.5561 112.08 32.5561C115.182 32.5561 116.596 31.5427 117.24 31.0812C117.946 30.5595 118.438 30.7427 118.806 31.45L119.328 32.4633C119.604 32.9851 119.451 33.3851 118.99 33.784C118.314 34.3672 116.01 35.8119 112.079 35.8119C106.796 35.8119 103.111 32.7091 103.111 27.8556C103.111 23.0937 106.643 19.9608 111.71 19.9608C116.78 19.9608 120.312 23.0635 120.312 27.8255ZM106.551 26.3819H116.903C116.504 24.7842 114.875 23.2792 111.711 23.2792C108.548 23.2792 106.95 24.7842 106.551 26.3819Z" fill="black"></path> <path d="M142.71 27.3025V34.3985C142.71 35.2588 142.403 35.5661 141.543 35.5661H140.314C139.454 35.5661 139.146 35.2588 139.146 34.3985V27.3941C139.146 24.9059 137.672 23.554 135.184 23.554C133.249 23.554 130.945 24.7517 129.808 26.0109V34.3973C129.808 35.2577 129.501 35.5649 128.641 35.5649H127.412C126.552 35.5649 126.244 35.2577 126.244 34.3973V23.554H125.108C124.248 23.554 123.941 23.2467 123.941 22.3864V21.373C123.941 20.5127 124.248 20.2054 125.108 20.2054H128.088C128.948 20.2054 129.255 20.5127 129.255 21.373V22.2333C130.914 20.8814 133.156 19.9596 135.583 19.9596C140.191 19.9608 142.71 22.6948 142.71 27.3025Z" fill="black"></path> <path d="M163.917 21.3742V35.7516C163.917 38.9459 160.477 41.0353 156.085 41.0353C151.938 41.0353 149.973 39.8062 149.082 38.9772C148.651 38.5784 148.59 38.0555 148.804 37.5337L149.265 36.489C149.603 35.7214 150.155 35.5672 150.831 36.1203C151.906 36.9806 152.95 37.6867 156.052 37.718C158.816 37.718 160.352 36.7047 160.352 35.4756V34.0008C159.246 34.7069 157.895 35.1684 155.96 35.1684C150.984 35.1684 147.543 32.25 147.543 27.5808C147.543 22.9116 150.983 19.9619 155.96 19.9619C158.109 19.9619 159.522 20.5765 160.475 21.3139C160.721 20.7921 161.212 20.2077 161.827 20.2077H162.749C163.61 20.2066 163.917 20.5138 163.917 21.3742ZM160.355 30.0377V25.1227C159.494 24.078 158.235 23.4334 155.962 23.4334C153.228 23.4334 151.232 24.9998 151.232 27.5808C151.232 30.1618 153.228 31.6969 155.962 31.6969C158.204 31.6958 159.464 31.0511 160.355 30.0377Z" fill="black"></path> <path d="M4.33616 39.3239C1.67975 40.821 -0.228514 39.5734 -0.228515 37.3544C-0.228515 34.9922 -0.228515 27.9044 -0.228515 27.9044C-0.228515 27.9044 -0.228515 20.8165 -0.228515 18.4543C-0.228516 16.2353 1.67856 14.9877 4.33616 16.4848C8.47349 18.8158 20.8843 25.8113 20.8843 25.8113C22.5345 26.7411 22.5345 29.0664 20.8843 29.9963C20.8843 29.9974 8.4735 36.9929 4.33616 39.3239Z" fill="#00C1FF"></path> <path d="M17.9973 39.3239C15.3409 40.821 13.4326 39.5734 13.4326 37.3544C13.4326 34.9922 13.4326 27.9044 13.4326 27.9044C13.4326 27.9044 13.4326 20.8165 13.4326 18.4543C13.4326 16.2353 15.3397 14.9877 17.9973 16.4848C22.0435 18.765 34.182 25.6068 34.182 25.6068C35.9944 26.6279 35.9944 29.1808 34.182 30.2019C34.1808 30.2019 22.0435 37.0437 17.9973 39.3239Z" fill="#6FE4FF"></path> <mask id="mask0_498_10236" style="mask-type:alpha" maskUnits="userSpaceOnUse" x="13" y="15" width="23" height="25"> <path d="M17.9963 39.3239C15.3399 40.821 13.4316 39.5734 13.4316 37.3544C13.4316 34.9922 13.4316 27.9044 13.4316 27.9044C13.4316 27.9044 13.4316 20.8165 13.4316 18.4543C13.4316 16.2353 15.3387 14.9877 17.9963 16.4848C22.0425 18.765 34.181 25.6068 34.181 25.6068C35.9934 26.6279 35.9934 29.1808 34.181 30.2019C34.1799 30.2019 22.0425 37.0437 17.9963 39.3239Z" fill="#6FE4FF"></path> </mask> <g mask="url(#mask0_498_10236)"> <g filter="url(#filter0_f_498_10236)"> <path d="M4.33616 39.3239C1.67975 40.821 -0.228514 39.5734 -0.228515 37.3544C-0.228515 34.9922 -0.228515 27.9044 -0.228515 27.9044C-0.228515 27.9044 -0.228515 20.8165 -0.228515 18.4543C-0.228516 16.2353 1.67856 14.9877 4.33616 16.4848C8.47349 18.8158 20.8843 25.8113 20.8843 25.8113C22.5345 26.7411 22.5345 29.0664 20.8843 29.9963C20.8843 29.9974 8.4735 36.9929 4.33616 39.3239Z" fill="#009EE4"></path> </g> </g> </g> <defs> <filter id="filter0_f_498_10236" x="-2.08332" y="13.9758" width="26.0602" height="27.8571" filterUnits="userSpaceOnUse" color-interpolation-filters="sRGB"> <feFlood flood-opacity="0" result="BackgroundImageFix"></feFlood> <feBlend mode="normal" in="SourceGraphic" in2="BackgroundImageFix" result="shape"></feBlend> <feGaussianBlur stdDeviation="0.927402" result="effect1_foregroundBlur_498_10236"></feGaussianBlur> </filter> <clipPath id="clip0_498_10236"> <rect width="185" height="56" fill="white"></rect> </clipPath> </defs> </svg> 