<?xml version="1.0" encoding="UTF-8"?> <svg xmlns="http://www.w3.org/2000/svg" width="104" height="30" viewBox="0 0 104 30" fill="none"> <path d="M12.375 19.8295H14.9318L16.4318 14.3409H16.5398L18.0398 19.8295H20.6023L22.9716 11.1023H20.5284L19.1989 16.9318H19.125L17.6932 11.1023H15.2898L13.8807 16.9659H13.8011L12.4489 11.1023H10L12.375 19.8295Z" fill="#FC5830"></path> <path d="M27.9872 20C30.6349 20 32.2827 18.1875 32.2827 15.5C32.2827 12.7955 30.6349 10.9886 27.9872 10.9886C25.3395 10.9886 23.6918 12.7955 23.6918 15.5C23.6918 18.1875 25.3395 20 27.9872 20ZM27.9986 18.125C26.777 18.125 26.152 17.0057 26.152 15.483C26.152 13.9602 26.777 12.8352 27.9986 12.8352C29.1974 12.8352 29.8224 13.9602 29.8224 15.483C29.8224 17.0057 29.1974 18.125 27.9986 18.125Z" fill="#FC5830"></path> <path d="M35.3594 19.8295H37.9162L39.4162 14.3409H39.5241L41.0241 19.8295H43.5866L45.956 11.1023H43.5128L42.1832 16.9318H42.1094L40.6776 11.1023H38.2741L36.8651 16.9659H36.7855L35.4332 11.1023H32.9844L35.3594 19.8295Z" fill="#FC5830"></path> <path d="M48.9688 19.8295H51.5256L53.0256 14.3409H53.1335L54.6335 19.8295H57.196L59.5653 11.1023H57.1222L55.7926 16.9318H55.7188L54.2869 11.1023H51.8835L50.4744 16.9659H50.3949L49.0426 11.1023H46.5938L48.9688 19.8295Z" fill="#FC5830"></path> <path d="M64.581 20C67.2287 20 68.8764 18.1875 68.8764 15.5C68.8764 12.7955 67.2287 10.9886 64.581 10.9886C61.9332 10.9886 60.2855 12.7955 60.2855 15.5C60.2855 18.1875 61.9332 20 64.581 20ZM64.5923 18.125C63.3707 18.125 62.7457 17.0057 62.7457 15.483C62.7457 13.9602 63.3707 12.8352 64.5923 12.8352C65.7912 12.8352 66.4162 13.9602 66.4162 15.483C66.4162 17.0057 65.7912 18.125 64.5923 18.125Z" fill="#FC5830"></path> <path d="M70.4503 19.8295H72.8707V14.892C72.8707 13.8182 73.6548 13.0795 74.723 13.0795C75.0582 13.0795 75.5185 13.1364 75.7457 13.2102V11.0625C75.5298 11.0114 75.2287 10.9773 74.9844 10.9773C74.0071 10.9773 73.206 11.5455 72.8878 12.625H72.7969V11.1023H70.4503V19.8295Z" fill="#FC5830"></path> <path d="M76.9972 19.8295H79.4176V17.0568L80.071 16.3125L82.4517 19.8295H85.2869L81.8835 14.8807L85.1222 11.1023H82.3438L79.5483 14.4148H79.4176V8.19318H76.9972V19.8295Z" fill="#FC5830"></path> <path d="M93.571 13.5909C93.3551 11.983 92.0597 10.9886 89.8551 10.9886C87.6222 10.9886 86.1506 12.0227 86.1562 13.7045C86.1506 15.0114 86.9744 15.858 88.679 16.1989L90.1903 16.5C90.9517 16.6534 91.2983 16.9318 91.3097 17.3693C91.2983 17.8864 90.7358 18.2557 89.8892 18.2557C89.0256 18.2557 88.4517 17.8864 88.304 17.1761L85.9233 17.3011C86.1506 18.9716 87.571 20 89.8835 20C92.1449 20 93.7642 18.8466 93.7699 17.125C93.7642 15.8636 92.9403 15.108 91.2472 14.7614L89.6676 14.4432C88.8551 14.267 88.554 13.9886 88.5597 13.5682C88.554 13.0455 89.1449 12.7045 89.8949 12.7045C90.7358 12.7045 91.2358 13.1648 91.3551 13.7273L93.571 13.5909Z" fill="#FC5830"></path> <rect x="1" y="1.19318" width="101.77" height="27.8068" rx="3" stroke="#FC5830" stroke-width="2"></rect> </svg> 